<ttFont>
    <TTGlyph name=".notdef" xMin="102" yMin="-362" xMax="1126" yMax="1444">
      <contour>
        <pt x="102" y="-362" on="1"/>
        <pt x="102" y="1444" on="1"/>
        <pt x="1126" y="1444" on="1"/>
        <pt x="1126" y="-362" on="1"/>
      </contour>
      <contour>
        <pt x="217" y="-248" on="1"/>
        <pt x="1012" y="-248" on="1"/>
        <pt x="1012" y="1329" on="1"/>
        <pt x="217" y="1329" on="1"/>
      </contour>
    </TTGlyph>
    <TTGlyph name="Ghunna_above" xMin="-203" yMin="799" xMax="305" yMax="1358">
      <contour>
        <pt x="0" y="799" on="1"/>
        <pt x="-100" y="799" on="0"/>
        <pt x="-203" y="895" on="0"/>
        <pt x="-203" y="1012" on="1"/>
        <pt x="-203" y="1070" on="0"/>
        <pt x="-172" y="1178" on="1"/>
        <pt x="-98" y="1163" on="1"/>
        <pt x="-109" y="1117" on="0"/>
        <pt x="-109" y="1077" on="1"/>
        <pt x="-109" y="1017" on="0"/>
        <pt x="-47" y="944" on="0"/>
        <pt x="2" y="944" on="1"/>
        <pt x="71" y="944" on="0"/>
        <pt x="191" y="996" on="0"/>
        <pt x="215" y="1038" on="1"/>
        <pt x="184" y="1095" on="0"/>
        <pt x="143" y="1208" on="0"/>
        <pt x="143" y="1237" on="1"/>
        <pt x="143" y="1277" on="0"/>
        <pt x="199" y="1336" on="0"/>
        <pt x="266" y="1358" on="1"/>
        <pt x="278" y="1262" on="0"/>
        <pt x="287" y="1217" on="1"/>
        <pt x="305" y="1132" on="0"/>
        <pt x="305" y="1079" on="1"/>
        <pt x="305" y="1002" on="0"/>
        <pt x="221" y="874" on="0"/>
        <pt x="77" y="799" on="0"/>
      </contour>
    </TTGlyph>
    <TTGlyph name="alef_alt.fina" xMin="164" yMin="-20" xMax="631" yMax="1462">
      <contour>
        <pt x="326" y="1462" on="1"/>
        <pt x="342" y="1086" on="0"/>
        <pt x="349" y="655" on="1"/>
        <pt x="353" y="388" on="0"/>
        <pt x="358" y="225" on="1"/>
        <pt x="469" y="164" on="0"/>
        <pt x="610" y="164" on="1"/>
        <pt x="631" y="164" on="0"/>
        <pt x="631" y="143" on="1"/>
        <pt x="631" y="0" on="1"/>
        <pt x="631" y="-20" on="0"/>
        <pt x="610" y="-20" on="1"/>
        <pt x="468" y="-20" on="0"/>
        <pt x="280" y="94" on="0"/>
        <pt x="268" y="190" on="1"/>
        <pt x="221" y="570" on="0"/>
        <pt x="164" y="1327" on="1"/>
        <pt x="229" y="1395" on="0"/>
      </contour>
    </TTGlyph>
    <TTGlyph name="alef_alt.isol" xMin="188" yMin="-20" xMax="434" yMax="1460">
      <contour>
        <pt x="369" y="1118" on="1"/>
        <pt x="383" y="712" on="0"/>
        <pt x="383" y="645" on="1"/>
        <pt x="383" y="557" on="1"/>
        <pt x="383" y="380" on="0"/>
        <pt x="367" y="0" on="1"/>
        <pt x="256" y="-20" on="1"/>
        <pt x="252" y="306" on="0"/>
        <pt x="241" y="522" on="1"/>
        <pt x="236" y="627" on="1"/>
        <pt x="225" y="870" on="0"/>
        <pt x="190" y="1245" on="1"/>
        <pt x="188" y="1278" on="1"/>
        <pt x="188" y="1353" on="0"/>
        <pt x="265" y="1443" on="0"/>
        <pt x="348" y="1460" on="1"/>
        <pt x="371" y="1369" on="0"/>
        <pt x="391" y="1309" on="1"/>
        <pt x="434" y="1174" on="1"/>
      </contour>
    </TTGlyph>
    <TTGlyph name="allah" xMin="164" yMin="-20" xMax="2623" yMax="2370">
      <contour>
        <pt x="672" y="121" on="1"/>
        <pt x="548" y="131" on="0"/>
        <pt x="410" y="163" on="0"/>
        <pt x="248" y="241" on="0"/>
        <pt x="164" y="314" on="0"/>
        <pt x="164" y="344" on="1"/>
        <pt x="164" y="375" on="0"/>
        <pt x="227" y="526" on="0"/>
        <pt x="250" y="567" on="1"/>
        <pt x="285" y="632" on="0"/>
        <pt x="520" y="802" on="0"/>
        <pt x="664" y="862" on="1"/>
        <pt x="651" y="963" on="1"/>
        <pt x="699" y="1009" on="0"/>
        <pt x="786" y="1067" on="0"/>
        <pt x="834" y="1098" on="1"/>
        <pt x="843" y="687" on="0"/>
        <pt x="855" y="379" on="1"/>
        <pt x="860" y="225" on="1"/>
        <pt x="969" y="164" on="0"/>
        <pt x="1110" y="164" on="1"/>
        <pt x="1245" y="164" on="0"/>
        <pt x="1372" y="225" on="1"/>
        <pt x="1298" y="842" on="0"/>
        <pt x="1278" y="1167" on="1"/>
        <pt x="1346" y="1238" on="0"/>
        <pt x="1440" y="1303" on="1"/>
        <pt x="1452" y="1020" on="0"/>
        <pt x="1458" y="724" on="1"/>
        <pt x="1468" y="225" on="1"/>
        <pt x="1577" y="164" on="0"/>
        <pt x="1714" y="164" on="1"/>
        <pt x="1720" y="164" on="1"/>
        <pt x="1868" y="164" on="0"/>
        <pt x="1987" y="227" on="1"/>
        <pt x="1940" y="834" on="0"/>
        <pt x="1866" y="1462" on="1"/>
        <pt x="1937" y="1537" on="0"/>
        <pt x="2028" y="1597" on="1"/>
        <pt x="2035" y="1408" on="0"/>
        <pt x="2056" y="1072" on="0"/>
        <pt x="2075" y="759" on="0"/>
        <pt x="2089" y="459" on="0"/>
        <pt x="2091" y="305" on="1"/>
        <pt x="2091" y="221" on="0"/>
        <pt x="2007" y="63" on="1"/>
        <pt x="1961" y="-20" on="0"/>
        <pt x="1720" y="-20" on="1"/>
        <pt x="1534" y="-20" on="0"/>
        <pt x="1444" y="66" on="1"/>
        <pt x="1358" y="18" on="0"/>
        <pt x="1219" y="-20" on="0"/>
        <pt x="1114" y="-20" on="1"/>
        <pt x="1104" y="-20" on="1"/>
        <pt x="960" y="-18" on="0"/>
        <pt x="784" y="90" on="0"/>
        <pt x="768" y="190" on="1"/>
        <pt x="754" y="276" on="1"/>
      </contour>
      <contour>
        <pt x="2558" y="1255" on="1"/>
        <pt x="2572" y="849" on="0"/>
        <pt x="2572" y="782" on="1"/>
        <pt x="2572" y="379" on="0"/>
        <pt x="2556" y="0" on="1"/>
        <pt x="2445" y="-20" on="1"/>
        <pt x="2435" y="654" on="0"/>
        <pt x="2391" y="1237" on="1"/>
        <pt x="2378" y="1415" on="1"/>
        <pt x="2378" y="1490" on="0"/>
        <pt x="2454" y="1580" on="0"/>
        <pt x="2537" y="1597" on="1"/>
        <pt x="2543" y="1574" on="0"/>
        <pt x="2554" y="1534" on="0"/>
        <pt x="2623" y="1311" on="1"/>
      </contour>
      <contour>
        <pt x="748" y="317" on="1"/>
        <pt x="686" y="707" on="1"/>
        <pt x="400" y="605" on="0"/>
        <pt x="281" y="455" on="1"/>
        <pt x="343" y="407" on="0"/>
        <pt x="453" y="352" on="0"/>
        <pt x="631" y="320" on="0"/>
      </contour>
      <contour>
        <pt x="1532" y="1800" on="1"/>
        <pt x="1556" y="1754" on="0"/>
        <pt x="1581" y="1652" on="0"/>
        <pt x="1581" y="1618" on="1"/>
        <pt x="1581" y="1553" on="0"/>
        <pt x="1497" y="1448" on="0"/>
        <pt x="1434" y="1448" on="1"/>
        <pt x="1411" y="1448" on="0"/>
        <pt x="1356" y="1470" on="0"/>
        <pt x="1339" y="1493" on="1"/>
        <pt x="1318" y="1442" on="0"/>
        <pt x="1244" y="1389" on="0"/>
        <pt x="1204" y="1389" on="1"/>
        <pt x="1150" y="1389" on="0"/>
        <pt x="1081" y="1457" on="0"/>
        <pt x="1081" y="1522" on="1"/>
        <pt x="1081" y="1543" on="0"/>
        <pt x="1097" y="1615" on="0"/>
        <pt x="1114" y="1647" on="1"/>
        <pt x="1155" y="1638" on="1"/>
        <pt x="1145" y="1595" on="0"/>
        <pt x="1145" y="1567" on="1"/>
        <pt x="1145" y="1491" on="0"/>
        <pt x="1210" y="1491" on="1"/>
        <pt x="1241" y="1491" on="0"/>
        <pt x="1282" y="1536" on="0"/>
        <pt x="1282" y="1573" on="1"/>
        <pt x="1278" y="1667" on="1"/>
        <pt x="1341" y="1708" on="1"/>
        <pt x="1354" y="1612" on="0"/>
        <pt x="1406" y="1550" on="0"/>
        <pt x="1454" y="1550" on="1"/>
        <pt x="1471" y="1550" on="0"/>
        <pt x="1502" y="1572" on="0"/>
        <pt x="1507" y="1583" on="1"/>
        <pt x="1500" y="1617" on="0"/>
        <pt x="1464" y="1694" on="1"/>
        <pt x="1459" y="1706" on="0"/>
        <pt x="1459" y="1718" on="1"/>
        <pt x="1459" y="1743" on="0"/>
        <pt x="1504" y="1793" on="0"/>
      </contour>
      <contour>
        <pt x="1303" y="2370" on="1"/>
        <pt x="1328" y="2228" on="0"/>
        <pt x="1341" y="2082" on="0"/>
        <pt x="1341" y="1982" on="1"/>
        <pt x="1341" y="1853" on="0"/>
        <pt x="1274" y="1761" on="1"/>
        <pt x="1260" y="1765" on="1"/>
        <pt x="1260" y="1986" on="0"/>
        <pt x="1215" y="2166" on="1"/>
        <pt x="1206" y="2199" on="0"/>
        <pt x="1206" y="2224" on="1"/>
        <pt x="1206" y="2275" on="0"/>
        <pt x="1259" y="2354" on="0"/>
      </contour>
    </TTGlyph>
    <TTGlyph name="beh_dotless_alt.init" xMin="-20" yMin="-20" xMax="705" yMax="881">
      <contour>
        <pt x="0" y="-20" on="1"/>
        <pt x="-20" y="-20" on="0"/>
        <pt x="-20" y="0" on="1"/>
        <pt x="-20" y="143" on="1"/>
        <pt x="-20" y="164" on="0"/>
        <pt x="0" y="164" on="1"/>
        <pt x="85" y="164" on="0"/>
        <pt x="328" y="182" on="0"/>
        <pt x="528" y="223" on="0"/>
        <pt x="590" y="252" on="1"/>
        <pt x="561" y="359" on="0"/>
        <pt x="503" y="516" on="1"/>
        <pt x="457" y="640" on="0"/>
        <pt x="457" y="678" on="1"/>
        <pt x="457" y="733" on="0"/>
        <pt x="546" y="843" on="0"/>
        <pt x="614" y="881" on="1"/>
        <pt x="625" y="811" on="0"/>
        <pt x="656" y="672" on="0"/>
        <pt x="685" y="538" on="0"/>
        <pt x="705" y="413" on="0"/>
        <pt x="705" y="358" on="1"/>
        <pt x="705" y="281" on="0"/>
        <pt x="621" y="113" on="1"/>
        <pt x="519" y="51" on="0"/>
        <pt x="170" y="-20" on="0"/>
      </contour>
    </TTGlyph>
    <TTGlyph name="beh_dotless_alt.medi" xMin="-20" yMin="-20" xMax="909" yMax="528">
      <contour>
        <pt x="643" y="528" on="1"/>
        <pt x="678" y="528" on="0"/>
        <pt x="702" y="510" on="1"/>
        <pt x="632" y="340" on="0"/>
        <pt x="586" y="254" on="1"/>
        <pt x="728" y="164" on="0"/>
        <pt x="889" y="164" on="1"/>
        <pt x="909" y="164" on="0"/>
        <pt x="909" y="143" on="1"/>
        <pt x="909" y="0" on="1"/>
        <pt x="909" y="-20" on="0"/>
        <pt x="889" y="-20" on="1"/>
        <pt x="665" y="-20" on="0"/>
        <pt x="508" y="121" on="1"/>
        <pt x="489" y="93" on="1"/>
        <pt x="469" y="68" on="1"/>
        <pt x="454" y="52" on="0"/>
        <pt x="302" y="9" on="0"/>
        <pt x="103" y="-20" on="0"/>
        <pt x="0" y="-20" on="1"/>
        <pt x="-20" y="-20" on="0"/>
        <pt x="-20" y="0" on="1"/>
        <pt x="-20" y="143" on="1"/>
        <pt x="-20" y="164" on="0"/>
        <pt x="0" y="164" on="1"/>
        <pt x="320" y="164" on="0"/>
        <pt x="399" y="219" on="1"/>
        <pt x="425" y="236" on="0"/>
        <pt x="486" y="331" on="0"/>
        <pt x="527" y="411" on="1"/>
        <pt x="569" y="489" on="1"/>
        <pt x="591" y="528" on="0"/>
      </contour>
    </TTGlyph>
    <TTGlyph name="circumflex.arabic" xMin="18" yMin="969" xMax="551" yMax="1462">
      <contour>
        <pt x="221" y="1315" on="1"/>
        <pt x="208" y="1238" on="0"/>
        <pt x="117" y="1016" on="0"/>
        <pt x="82" y="969" on="1"/>
        <pt x="57" y="972" on="0"/>
        <pt x="18" y="1014" on="0"/>
        <pt x="18" y="1055" on="1"/>
        <pt x="18" y="1073" on="0"/>
        <pt x="40" y="1116" on="0"/>
        <pt x="80" y="1192" on="0"/>
        <pt x="135" y="1315" on="0"/>
        <pt x="168" y="1413" on="1"/>
        <pt x="225" y="1447" on="0"/>
        <pt x="315" y="1462" on="1"/>
        <pt x="368" y="1348" on="0"/>
        <pt x="479" y="1130" on="0"/>
        <pt x="551" y="1028" on="1"/>
        <pt x="506" y="1017" on="1"/>
        <pt x="479" y="1009" on="0"/>
        <pt x="455" y="1009" on="1"/>
        <pt x="406" y="1009" on="0"/>
        <pt x="334" y="1090" on="0"/>
        <pt x="271" y="1197" on="0"/>
      </contour>
    </TTGlyph>
    <TTGlyph name="damma_01" xMin="-104" yMin="946" xMax="430" yMax="1468">
      <component glyphName="uni064F" x="0" y="0" flags="0x204"/>
    </TTGlyph>
    <TTGlyph name="dammatan_01" xMin="-184" yMin="952" xMax="471" yMax="1468">
      <component glyphName="uni064C" x="0" y="0" flags="0x204"/>
    </TTGlyph>
    <TTGlyph name="diagonal" xMin="62" yMin="1270" xMax="943" yMax="1784">
      <contour>
        <pt x="78" y="1270" on="1"/>
        <pt x="62" y="1337" on="0"/>
        <pt x="62" y="1364" on="1"/>
        <pt x="62" y="1376" on="0"/>
        <pt x="66" y="1378" on="1"/>
        <pt x="122" y="1407" on="0"/>
        <pt x="748" y="1709" on="0"/>
        <pt x="909" y="1784" on="1"/>
        <pt x="943" y="1759" on="0"/>
        <pt x="943" y="1723" on="1"/>
        <pt x="942" y="1708" on="1"/>
        <pt x="932" y="1664" on="0"/>
        <pt x="883" y="1642" on="1"/>
        <pt x="496" y="1468" on="0"/>
        <pt x="158" y="1309" on="0"/>
      </contour>
    </TTGlyph>
    <TTGlyph name="fatha_01" xMin="-57" yMin="1006" xMax="495" yMax="1321">
      <component glyphName="uni064E" x="0" y="0" flags="0x204"/>
    </TTGlyph>
    <TTGlyph name="fathatan_01" xMin="-88" yMin="987" xMax="495" yMax="1511">
      <component glyphName="uni064B" x="0" y="0" flags="0x204"/>
    </TTGlyph>
    <TTGlyph name="feh_dotless.isol" xMin="164" yMin="-20" xMax="1921" yMax="1139">
      <contour>
        <pt x="772" y="-20" on="1"/>
        <pt x="164" y="-20" on="0"/>
        <pt x="164" y="391" on="1"/>
        <pt x="164" y="549" on="0"/>
        <pt x="197" y="655" on="1"/>
        <pt x="283" y="655" on="1"/>
        <pt x="274" y="588" on="0"/>
        <pt x="274" y="537" on="1"/>
        <pt x="274" y="390" on="0"/>
        <pt x="389" y="235" on="0"/>
        <pt x="637" y="164" on="0"/>
        <pt x="823" y="164" on="1"/>
        <pt x="1062" y="164" on="0"/>
        <pt x="1643" y="260" on="0"/>
        <pt x="1806" y="334" on="1"/>
        <pt x="1792" y="448" on="0"/>
        <pt x="1774" y="522" on="1"/>
        <pt x="1605" y="391" on="0"/>
        <pt x="1432" y="391" on="1"/>
        <pt x="1327" y="391" on="0"/>
        <pt x="1192" y="547" on="0"/>
        <pt x="1192" y="672" on="1"/>
        <pt x="1192" y="791" on="0"/>
        <pt x="1274" y="1010" on="0"/>
        <pt x="1412" y="1139" on="0"/>
        <pt x="1491" y="1139" on="1"/>
        <pt x="1612" y="1139" on="0"/>
        <pt x="1806" y="964" on="0"/>
        <pt x="1921" y="635" on="0"/>
        <pt x="1921" y="440" on="1"/>
        <pt x="1921" y="363" on="0"/>
        <pt x="1837" y="195" on="1"/>
        <pt x="1678" y="95" on="0"/>
        <pt x="1092" y="-20" on="0"/>
      </contour>
      <contour>
        <pt x="1489" y="573" on="1"/>
        <pt x="1608" y="573" on="0"/>
        <pt x="1743" y="633" on="1"/>
        <pt x="1638" y="934" on="0"/>
        <pt x="1454" y="934" on="1"/>
        <pt x="1382" y="934" on="0"/>
        <pt x="1284" y="802" on="0"/>
        <pt x="1284" y="719" on="1"/>
        <pt x="1284" y="643" on="0"/>
        <pt x="1383" y="573" on="0"/>
      </contour>
    </TTGlyph>
    <TTGlyph name="fourdots.above" xMin="115" yMin="797" xMax="842" yMax="1530">
      <contour>
        <pt x="479" y="961" on="1"/>
        <pt x="424" y="880" on="0"/>
        <pt x="336" y="797" on="1"/>
        <pt x="237" y="873" on="0"/>
        <pt x="176" y="944" on="1"/>
        <pt x="223" y="987" on="0"/>
        <pt x="332" y="1106" on="1"/>
        <pt x="353" y="1083" on="0"/>
      </contour>
      <contour>
        <pt x="842" y="995" on="1"/>
        <pt x="788" y="916" on="0"/>
        <pt x="698" y="831" on="1"/>
        <pt x="604" y="903" on="0"/>
        <pt x="539" y="979" on="1"/>
        <pt x="581" y="1017" on="0"/>
        <pt x="694" y="1141" on="1"/>
        <pt x="716" y="1117" on="0"/>
      </contour>
      <contour>
        <pt x="418" y="1350" on="1"/>
        <pt x="364" y="1271" on="0"/>
        <pt x="274" y="1186" on="1"/>
        <pt x="177" y="1260" on="0"/>
        <pt x="115" y="1333" on="1"/>
        <pt x="157" y="1371" on="0"/>
        <pt x="270" y="1495" on="1"/>
        <pt x="286" y="1478" on="0"/>
      </contour>
      <contour>
        <pt x="780" y="1384" on="1"/>
        <pt x="726" y="1306" on="0"/>
        <pt x="637" y="1221" on="1"/>
        <pt x="538" y="1297" on="0"/>
        <pt x="477" y="1368" on="1"/>
        <pt x="524" y="1411" on="0"/>
        <pt x="633" y="1530" on="1"/>
        <pt x="709" y="1453" on="1"/>
      </contour>
    </TTGlyph>
    <TTGlyph name="fourdots.below" xMin="135" yMin="-915" xMax="862" yMax="-182">
      <contour>
        <pt x="500" y="-752" on="1"/>
        <pt x="448" y="-828" on="0"/>
        <pt x="356" y="-915" on="1"/>
        <pt x="259" y="-841" on="0"/>
        <pt x="197" y="-768" on="1"/>
        <pt x="239" y="-730" on="0"/>
        <pt x="352" y="-606" on="1"/>
        <pt x="374" y="-630" on="0"/>
      </contour>
      <contour>
        <pt x="862" y="-717" on="1"/>
        <pt x="807" y="-798" on="0"/>
        <pt x="719" y="-881" on="1"/>
        <pt x="622" y="-807" on="0"/>
        <pt x="559" y="-733" on="1"/>
        <pt x="606" y="-690" on="0"/>
        <pt x="715" y="-571" on="1"/>
        <pt x="755" y="-615" on="0"/>
        <pt x="827" y="-683" on="0"/>
      </contour>
      <contour>
        <pt x="438" y="-362" on="1"/>
        <pt x="383" y="-443" on="0"/>
        <pt x="295" y="-526" on="1"/>
        <pt x="196" y="-450" on="0"/>
        <pt x="135" y="-379" on="1"/>
        <pt x="182" y="-336" on="0"/>
        <pt x="291" y="-217" on="1"/>
        <pt x="312" y="-240" on="0"/>
      </contour>
      <contour>
        <pt x="801" y="-328" on="1"/>
        <pt x="747" y="-407" on="0"/>
        <pt x="657" y="-492" on="1"/>
        <pt x="563" y="-420" on="0"/>
        <pt x="498" y="-344" on="1"/>
        <pt x="540" y="-306" on="0"/>
        <pt x="653" y="-182" on="1"/>
        <pt x="675" y="-206" on="0"/>
      </contour>
    </TTGlyph>
    <TTGlyph name="hah_alt.fina" xMin="164" yMin="-694" xMax="1765" yMax="799">
      <contour>
        <pt x="309" y="-694" on="1"/>
        <pt x="280" y="-621" on="0"/>
        <pt x="242" y="-440" on="0"/>
        <pt x="242" y="-373" on="1"/>
        <pt x="242" y="-183" on="0"/>
        <pt x="407" y="134" on="0"/>
        <pt x="711" y="361" on="0"/>
        <pt x="913" y="418" on="1"/>
        <pt x="851" y="449" on="0"/>
        <pt x="741" y="513" on="0"/>
        <pt x="634" y="565" on="0"/>
        <pt x="524" y="598" on="0"/>
        <pt x="463" y="598" on="1"/>
        <pt x="350" y="598" on="0"/>
        <pt x="255" y="539" on="1"/>
        <pt x="199" y="504" on="1"/>
        <pt x="185" y="518" on="0"/>
        <pt x="164" y="569" on="0"/>
        <pt x="164" y="598" on="1"/>
        <pt x="164" y="690" on="0"/>
        <pt x="326" y="799" on="0"/>
        <pt x="455" y="799" on="1"/>
        <pt x="549" y="799" on="0"/>
        <pt x="741" y="739" on="0"/>
        <pt x="850" y="678" on="1"/>
        <pt x="1059" y="561" on="0"/>
        <pt x="1250" y="491" on="0"/>
        <pt x="1479" y="460" on="0"/>
        <pt x="1616" y="455" on="1"/>
        <pt x="1524" y="276" on="1"/>
        <pt x="1347" y="297" on="0"/>
        <pt x="1257" y="311" on="1"/>
        <pt x="1243" y="311" on="1"/>
        <pt x="1290" y="238" on="0"/>
        <pt x="1384" y="182" on="0"/>
        <pt x="1551" y="164" on="0"/>
        <pt x="1745" y="164" on="1"/>
        <pt x="1765" y="164" on="0"/>
        <pt x="1765" y="143" on="1"/>
        <pt x="1765" y="0" on="1"/>
        <pt x="1765" y="-20" on="0"/>
        <pt x="1745" y="-20" on="1"/>
        <pt x="1538" y="-18" on="0"/>
        <pt x="1313" y="37" on="0"/>
        <pt x="1181" y="162" on="0"/>
        <pt x="1126" y="297" on="1"/>
        <pt x="915" y="259" on="0"/>
        <pt x="553" y="51" on="0"/>
        <pt x="369" y="-220" on="0"/>
        <pt x="369" y="-373" on="1"/>
        <pt x="369" y="-434" on="0"/>
        <pt x="393" y="-559" on="0"/>
        <pt x="428" y="-651" on="1"/>
      </contour>
    </TTGlyph>
    <TTGlyph name="hah_alt.isol" xMin="164" yMin="-694" xMax="1616" yMax="799">
      <contour>
        <pt x="309" y="-694" on="1"/>
        <pt x="280" y="-621" on="0"/>
        <pt x="242" y="-440" on="0"/>
        <pt x="242" y="-373" on="1"/>
        <pt x="242" y="-183" on="0"/>
        <pt x="407" y="134" on="0"/>
        <pt x="711" y="361" on="0"/>
        <pt x="913" y="418" on="1"/>
        <pt x="851" y="449" on="0"/>
        <pt x="741" y="513" on="0"/>
        <pt x="634" y="565" on="0"/>
        <pt x="524" y="598" on="0"/>
        <pt x="463" y="598" on="1"/>
        <pt x="350" y="598" on="0"/>
        <pt x="255" y="539" on="1"/>
        <pt x="199" y="504" on="1"/>
        <pt x="185" y="518" on="0"/>
        <pt x="164" y="569" on="0"/>
        <pt x="164" y="598" on="1"/>
        <pt x="164" y="690" on="0"/>
        <pt x="326" y="799" on="0"/>
        <pt x="455" y="799" on="1"/>
        <pt x="549" y="799" on="0"/>
        <pt x="741" y="739" on="0"/>
        <pt x="850" y="678" on="1"/>
        <pt x="1059" y="561" on="0"/>
        <pt x="1250" y="491" on="0"/>
        <pt x="1479" y="460" on="0"/>
        <pt x="1616" y="455" on="1"/>
        <pt x="1524" y="276" on="1"/>
        <pt x="1347" y="297" on="0"/>
        <pt x="1257" y="311" on="1"/>
        <pt x="1106" y="306" on="0"/>
        <pt x="766" y="187" on="0"/>
        <pt x="510" y="1" on="0"/>
        <pt x="369" y="-240" on="0"/>
        <pt x="369" y="-373" on="1"/>
        <pt x="369" y="-434" on="0"/>
        <pt x="393" y="-559" on="0"/>
        <pt x="428" y="-651" on="1"/>
      </contour>
    </TTGlyph>
    <TTGlyph name="hamza_medial" xMin="23" yMin="827" xMax="410" yMax="1372">
      <contour>
        <pt x="295" y="1194" on="1"/>
        <pt x="297" y="1206" on="1"/>
        <pt x="297" y="1219" on="0"/>
        <pt x="275" y="1245" on="0"/>
        <pt x="258" y="1245" on="1"/>
        <pt x="217" y="1245" on="0"/>
        <pt x="135" y="1181" on="0"/>
        <pt x="117" y="1130" on="1"/>
        <pt x="164" y="1070" on="0"/>
        <pt x="263" y="1070" on="1"/>
        <pt x="316" y="1070" on="0"/>
        <pt x="410" y="1090" on="1"/>
        <pt x="403" y="973" on="1"/>
        <pt x="270" y="937" on="0"/>
        <pt x="121" y="876" on="0"/>
        <pt x="29" y="827" on="1"/>
        <pt x="23" y="944" on="1"/>
        <pt x="50" y="963" on="0"/>
        <pt x="112" y="995" on="0"/>
        <pt x="141" y="1012" on="1"/>
        <pt x="31" y="1032" on="0"/>
        <pt x="31" y="1133" on="1"/>
        <pt x="31" y="1188" on="0"/>
        <pt x="95" y="1299" on="0"/>
        <pt x="204" y="1372" on="0"/>
        <pt x="254" y="1372" on="1"/>
        <pt x="311" y="1372" on="0"/>
        <pt x="373" y="1315" on="0"/>
        <pt x="373" y="1260" on="1"/>
        <pt x="373" y="1243" on="0"/>
        <pt x="360" y="1193" on="0"/>
        <pt x="352" y="1178" on="1"/>
      </contour>
    </TTGlyph>
    <TTGlyph name="heh_ae.fina" xMin="164" yMin="-20" xMax="1130" yMax="1098">
      <component glyphName="uni0647.fina" x="0" y="0" flags="0x204"/>
    </TTGlyph>
    <TTGlyph name="kasra_01" xMin="-57" yMin="-526" xMax="495" yMax="-211">
      <component glyphName="uni0650" x="0" y="0" flags="0x204"/>
    </TTGlyph>
    <TTGlyph name="kasratan_01" xMin="-88" yMin="-676" xMax="495" yMax="-152">
      <component glyphName="uni064D" x="0" y="0" flags="0x204"/>
    </TTGlyph>
    <TTGlyph name="onedot.above" xMin="311" yMin="793" xMax="639" yMax="1126">
      <contour>
        <pt x="639" y="969" on="1"/>
        <pt x="588" y="892" on="0"/>
        <pt x="483" y="793" on="1"/>
        <pt x="376" y="876" on="0"/>
        <pt x="311" y="950" on="1"/>
        <pt x="413" y="1050" on="0"/>
        <pt x="479" y="1126" on="1"/>
        <pt x="558" y="1040" on="0"/>
      </contour>
    </TTGlyph>
    <TTGlyph name="onedot.below" xMin="270" yMin="-522" xMax="598" yMax="-188">
      <contour>
        <pt x="598" y="-346" on="1"/>
        <pt x="547" y="-423" on="0"/>
        <pt x="442" y="-522" on="1"/>
        <pt x="335" y="-439" on="0"/>
        <pt x="270" y="-365" on="1"/>
        <pt x="377" y="-260" on="0"/>
        <pt x="438" y="-188" on="1"/>
        <pt x="521" y="-279" on="0"/>
      </contour>
    </TTGlyph>
    <TTGlyph name="patah.wide" xMin="0" yMin="287" xMax="700" yMax="449">
      <contour>
        <pt x="0" y="287" on="1"/>
        <pt x="0" y="449" on="1"/>
        <pt x="700" y="449" on="1"/>
        <pt x="700" y="287" on="1"/>
      </contour>
    </TTGlyph>
    <TTGlyph name="riyal" xMin="246" yMin="-553" xMax="2253" yMax="1780">
      <contour>
        <pt x="1872" y="-20" on="1"/>
        <pt x="1774" y="-20" on="0"/>
        <pt x="1610" y="108" on="0"/>
        <pt x="1602" y="190" on="1"/>
        <pt x="1571" y="447" on="0"/>
        <pt x="1542" y="864" on="1"/>
        <pt x="1457" y="767" on="0"/>
        <pt x="1329" y="561" on="1"/>
        <pt x="1345" y="441" on="0"/>
        <pt x="1372" y="126" on="0"/>
        <pt x="1372" y="37" on="1"/>
        <pt x="1372" y="-108" on="0"/>
        <pt x="1187" y="-378" on="0"/>
        <pt x="859" y="-553" on="0"/>
        <pt x="682" y="-553" on="1"/>
        <pt x="475" y="-553" on="0"/>
        <pt x="246" y="-314" on="0"/>
        <pt x="246" y="-100" on="1"/>
        <pt x="246" y="-22" on="0"/>
        <pt x="269" y="136" on="0"/>
        <pt x="309" y="291" on="1"/>
        <pt x="397" y="270" on="1"/>
        <pt x="354" y="105" on="0"/>
        <pt x="354" y="18" on="1"/>
        <pt x="354" y="-159" on="0"/>
        <pt x="531" y="-354" on="0"/>
        <pt x="688" y="-354" on="1"/>
        <pt x="803" y="-354" on="0"/>
        <pt x="1048" y="-276" on="0"/>
        <pt x="1242" y="-136" on="0"/>
        <pt x="1282" y="-53" on="1"/>
        <pt x="1214" y="383" on="1"/>
        <pt x="1093" y="209" on="0"/>
        <pt x="898" y="63" on="0"/>
        <pt x="809" y="63" on="1"/>
        <pt x="667" y="63" on="0"/>
        <pt x="516" y="278" on="0"/>
        <pt x="516" y="487" on="1"/>
        <pt x="516" y="590" on="0"/>
        <pt x="565" y="800" on="0"/>
        <pt x="616" y="922" on="1"/>
        <pt x="702" y="897" on="1"/>
        <pt x="629" y="703" on="0"/>
        <pt x="629" y="569" on="1"/>
        <pt x="629" y="276" on="0"/>
        <pt x="786" y="276" on="1"/>
        <pt x="842" y="276" on="0"/>
        <pt x="952" y="339" on="0"/>
        <pt x="1070" y="460" on="0"/>
        <pt x="1178" y="606" on="1"/>
        <pt x="1159" y="687" on="0"/>
        <pt x="1048" y="1454" on="0"/>
        <pt x="1048" y="1549" on="1"/>
        <pt x="1048" y="1631" on="0"/>
        <pt x="1124" y="1724" on="0"/>
        <pt x="1206" y="1741" on="1"/>
        <pt x="1229" y="1650" on="0"/>
        <pt x="1249" y="1590" on="1"/>
        <pt x="1292" y="1454" on="1"/>
        <pt x="1235" y="1405" on="1"/>
        <pt x="1266" y="1151" on="0"/>
        <pt x="1305" y="780" on="1"/>
        <pt x="1332" y="820" on="0"/>
        <pt x="1509" y="1040" on="0"/>
        <pt x="1528" y="1055" on="1"/>
        <pt x="1493" y="1645" on="1"/>
        <pt x="1558" y="1713" on="0"/>
        <pt x="1655" y="1780" on="1"/>
        <pt x="1667" y="1506" on="0"/>
        <pt x="1673" y="1192" on="1"/>
        <pt x="1742" y="1246" on="0"/>
        <pt x="1880" y="1296" on="0"/>
        <pt x="1962" y="1296" on="1"/>
        <pt x="2047" y="1296" on="0"/>
        <pt x="2157" y="1192" on="0"/>
        <pt x="2157" y="1112" on="1"/>
        <pt x="2157" y="1071" on="0"/>
        <pt x="2113" y="991" on="0"/>
        <pt x="2089" y="991" on="1"/>
        <pt x="2067" y="1042" on="0"/>
        <pt x="1990" y="1081" on="0"/>
        <pt x="1931" y="1081" on="1"/>
        <pt x="1793" y="1081" on="0"/>
        <pt x="1677" y="993" on="1"/>
        <pt x="1686" y="369" on="0"/>
        <pt x="1692" y="225" on="1"/>
        <pt x="1780" y="164" on="0"/>
        <pt x="1896" y="164" on="1"/>
        <pt x="2019" y="164" on="0"/>
        <pt x="2103" y="231" on="1"/>
        <pt x="2073" y="341" on="0"/>
        <pt x="2016" y="496" on="1"/>
        <pt x="1970" y="620" on="0"/>
        <pt x="1970" y="657" on="1"/>
        <pt x="1970" y="712" on="0"/>
        <pt x="2058" y="822" on="0"/>
        <pt x="2128" y="860" on="1"/>
        <pt x="2139" y="790" on="0"/>
        <pt x="2170" y="651" on="0"/>
        <pt x="2198" y="518" on="0"/>
        <pt x="2218" y="393" on="0"/>
        <pt x="2218" y="338" on="1"/>
        <pt x="2218" y="260" on="0"/>
        <pt x="2134" y="92" on="1"/>
        <pt x="2059" y="26" on="0"/>
        <pt x="1943" y="-20" on="0"/>
      </contour>
      <contour>
        <pt x="1890" y="-330" on="1"/>
        <pt x="1835" y="-411" on="0"/>
        <pt x="1747" y="-494" on="1"/>
        <pt x="1650" y="-420" on="0"/>
        <pt x="1587" y="-346" on="1"/>
        <pt x="1634" y="-303" on="0"/>
        <pt x="1743" y="-184" on="1"/>
        <pt x="1783" y="-228" on="0"/>
        <pt x="1855" y="-296" on="0"/>
      </contour>
      <contour>
        <pt x="2253" y="-295" on="1"/>
        <pt x="2199" y="-374" on="0"/>
        <pt x="2109" y="-459" on="1"/>
        <pt x="2010" y="-384" on="0"/>
        <pt x="1950" y="-311" on="1"/>
        <pt x="1997" y="-269" on="0"/>
        <pt x="2105" y="-150" on="1"/>
        <pt x="2121" y="-167" on="0"/>
      </contour>
    </TTGlyph>
    <TTGlyph name="shadda_01" xMin="-70" yMin="989" xMax="430" yMax="1401">
      <component glyphName="uni0651" x="0" y="0" flags="0x204"/>
    </TTGlyph>
    <TTGlyph name="smallv.arabic" xMin="18" yMin="971" xMax="551" yMax="1464">
      <contour>
        <pt x="348" y="1118" on="1"/>
        <pt x="361" y="1195" on="0"/>
        <pt x="452" y="1417" on="0"/>
        <pt x="487" y="1464" on="1"/>
        <pt x="512" y="1461" on="0"/>
        <pt x="551" y="1419" on="0"/>
        <pt x="551" y="1378" on="1"/>
        <pt x="551" y="1360" on="0"/>
        <pt x="529" y="1317" on="0"/>
        <pt x="489" y="1241" on="0"/>
        <pt x="434" y="1118" on="0"/>
        <pt x="401" y="1020" on="1"/>
        <pt x="339" y="984" on="0"/>
        <pt x="254" y="971" on="1"/>
        <pt x="201" y="1085" on="0"/>
        <pt x="91" y="1303" on="0"/>
        <pt x="18" y="1405" on="1"/>
        <pt x="63" y="1416" on="1"/>
        <pt x="90" y="1424" on="0"/>
        <pt x="113" y="1424" on="1"/>
        <pt x="152" y="1424" on="0"/>
        <pt x="214" y="1374" on="0"/>
        <pt x="312" y="1209" on="0"/>
      </contour>
    </TTGlyph>
    <TTGlyph name="sukun_01" xMin="27" yMin="1022" xMax="338" yMax="1391">
      <component glyphName="uni0652" x="0" y="0" flags="0x204"/>
    </TTGlyph>
    <TTGlyph name="threedots.above" xMin="244" yMin="797" xMax="930" yMax="1378">
      <contour>
        <pt x="727" y="1231" on="1"/>
        <pt x="631" y="1128" on="0"/>
        <pt x="588" y="1098" on="1"/>
        <pt x="500" y="1158" on="0"/>
        <pt x="436" y="1231" on="1"/>
        <pt x="490" y="1279" on="0"/>
        <pt x="580" y="1378" on="1"/>
        <pt x="607" y="1342" on="0"/>
        <pt x="700" y="1252" on="0"/>
      </contour>
      <contour>
        <pt x="547" y="961" on="1"/>
        <pt x="493" y="882" on="0"/>
        <pt x="403" y="797" on="1"/>
        <pt x="306" y="871" on="0"/>
        <pt x="244" y="944" on="1"/>
        <pt x="286" y="982" on="0"/>
        <pt x="399" y="1106" on="1"/>
        <pt x="415" y="1089" on="0"/>
      </contour>
      <contour>
        <pt x="930" y="995" on="1"/>
        <pt x="876" y="916" on="0"/>
        <pt x="786" y="831" on="1"/>
        <pt x="692" y="903" on="0"/>
        <pt x="627" y="979" on="1"/>
        <pt x="669" y="1017" on="0"/>
        <pt x="782" y="1141" on="1"/>
        <pt x="804" y="1117" on="0"/>
      </contour>
    </TTGlyph>
    <TTGlyph name="threedots.below" xMin="223" yMin="-727" xMax="909" yMax="-150">
      <contour>
        <pt x="526" y="-330" on="1"/>
        <pt x="471" y="-411" on="0"/>
        <pt x="383" y="-494" on="1"/>
        <pt x="286" y="-420" on="0"/>
        <pt x="223" y="-346" on="1"/>
        <pt x="288" y="-287" on="0"/>
        <pt x="379" y="-184" on="1"/>
        <pt x="419" y="-228" on="0"/>
        <pt x="491" y="-296" on="0"/>
      </contour>
      <contour>
        <pt x="909" y="-295" on="1"/>
        <pt x="854" y="-376" on="0"/>
        <pt x="766" y="-459" on="1"/>
        <pt x="665" y="-382" on="0"/>
        <pt x="606" y="-311" on="1"/>
        <pt x="675" y="-248" on="0"/>
        <pt x="762" y="-150" on="1"/>
        <pt x="783" y="-173" on="0"/>
      </contour>
      <contour>
        <pt x="733" y="-594" on="1"/>
        <pt x="637" y="-697" on="0"/>
        <pt x="594" y="-727" on="1"/>
        <pt x="506" y="-667" on="0"/>
        <pt x="442" y="-594" on="1"/>
        <pt x="491" y="-550" on="0"/>
        <pt x="586" y="-446" on="1"/>
        <pt x="642" y="-520" on="0"/>
      </contour>
    </TTGlyph>
    <TTGlyph name="threedots.horz.below" xMin="88" yMin="-551" xMax="1108" yMax="-178">
      <contour>
        <pt x="745" y="-358" on="1"/>
        <pt x="690" y="-439" on="0"/>
        <pt x="602" y="-522" on="1"/>
        <pt x="503" y="-446" on="0"/>
        <pt x="442" y="-375" on="1"/>
        <pt x="507" y="-316" on="0"/>
        <pt x="598" y="-213" on="1"/>
        <pt x="619" y="-236" on="0"/>
      </contour>
      <contour>
        <pt x="1108" y="-324" on="1"/>
        <pt x="1054" y="-402" on="0"/>
        <pt x="965" y="-487" on="1"/>
        <pt x="866" y="-411" on="0"/>
        <pt x="805" y="-340" on="1"/>
        <pt x="852" y="-297" on="0"/>
        <pt x="961" y="-178" on="1"/>
        <pt x="1001" y="-222" on="0"/>
        <pt x="1073" y="-290" on="0"/>
      </contour>
      <contour>
        <pt x="391" y="-387" on="1"/>
        <pt x="336" y="-468" on="0"/>
        <pt x="248" y="-551" on="1"/>
        <pt x="147" y="-474" on="0"/>
        <pt x="88" y="-403" on="1"/>
        <pt x="141" y="-355" on="0"/>
        <pt x="244" y="-242" on="1"/>
        <pt x="265" y="-265" on="0"/>
      </contour>
    </TTGlyph>
    <TTGlyph name="threedots.horz_alt1.below" xMin="42" yMin="-551" xMax="1062" yMax="-178">
      <component glyphName="threedots.horz.below" x="-46" y="0" flags="0x4"/>
    </TTGlyph>
    <TTGlyph name="threedots.rev.above" xMin="229" yMin="799" xMax="915" yMax="1376">
      <contour>
        <pt x="532" y="1196" on="1"/>
        <pt x="477" y="1115" on="0"/>
        <pt x="389" y="1032" on="1"/>
        <pt x="288" y="1109" on="0"/>
        <pt x="229" y="1180" on="1"/>
        <pt x="298" y="1243" on="0"/>
        <pt x="385" y="1341" on="1"/>
        <pt x="406" y="1318" on="0"/>
      </contour>
      <contour>
        <pt x="915" y="1231" on="1"/>
        <pt x="860" y="1150" on="0"/>
        <pt x="772" y="1067" on="1"/>
        <pt x="673" y="1143" on="0"/>
        <pt x="612" y="1214" on="1"/>
        <pt x="666" y="1264" on="0"/>
        <pt x="768" y="1376" on="1"/>
        <pt x="789" y="1353" on="0"/>
      </contour>
      <contour>
        <pt x="739" y="932" on="1"/>
        <pt x="643" y="829" on="0"/>
        <pt x="600" y="799" on="1"/>
        <pt x="509" y="861" on="0"/>
        <pt x="449" y="932" on="1"/>
        <pt x="528" y="1005" on="0"/>
        <pt x="592" y="1079" on="1"/>
        <pt x="619" y="1043" on="0"/>
        <pt x="712" y="953" on="0"/>
      </contour>
    </TTGlyph>
    <TTGlyph name="threedots.rev.below" xMin="244" yMin="-696" xMax="930" yMax="-115">
      <contour>
        <pt x="727" y="-262" on="1"/>
        <pt x="631" y="-365" on="0"/>
        <pt x="588" y="-395" on="1"/>
        <pt x="500" y="-335" on="0"/>
        <pt x="436" y="-262" on="1"/>
        <pt x="490" y="-214" on="0"/>
        <pt x="580" y="-115" on="1"/>
        <pt x="607" y="-151" on="0"/>
        <pt x="700" y="-241" on="0"/>
      </contour>
      <contour>
        <pt x="547" y="-532" on="1"/>
        <pt x="493" y="-611" on="0"/>
        <pt x="403" y="-696" on="1"/>
        <pt x="306" y="-622" on="0"/>
        <pt x="244" y="-549" on="1"/>
        <pt x="286" y="-511" on="0"/>
        <pt x="399" y="-387" on="1"/>
        <pt x="415" y="-404" on="0"/>
      </contour>
      <contour>
        <pt x="930" y="-498" on="1"/>
        <pt x="876" y="-577" on="0"/>
        <pt x="786" y="-662" on="1"/>
        <pt x="686" y="-583" on="0"/>
        <pt x="627" y="-514" on="1"/>
        <pt x="669" y="-476" on="0"/>
        <pt x="782" y="-352" on="1"/>
        <pt x="804" y="-376" on="0"/>
      </contour>
    </TTGlyph>
    <TTGlyph name="threedots.rev_alt1.below" xMin="42" yMin="-696" xMax="728" yMax="-115">
      <component glyphName="threedots.rev.below" x="-202" y="0" flags="0x4"/>
    </TTGlyph>
    <TTGlyph name="threedots.small.above" xMin="346" yMin="885" xMax="827" yMax="1290">
      <contour>
        <pt x="827" y="1022" on="1"/>
        <pt x="784" y="960" on="0"/>
        <pt x="727" y="907" on="1"/>
        <pt x="661" y="959" on="0"/>
        <pt x="614" y="1012" on="1"/>
        <pt x="672" y="1070" on="1"/>
        <pt x="723" y="1124" on="1"/>
      </contour>
      <contour>
        <pt x="559" y="999" on="1"/>
        <pt x="527" y="947" on="0"/>
        <pt x="459" y="885" on="1"/>
        <pt x="397" y="930" on="0"/>
        <pt x="346" y="987" on="1"/>
        <pt x="375" y="1013" on="0"/>
        <pt x="433" y="1077" on="0"/>
        <pt x="455" y="1100" on="1"/>
      </contour>
      <contour>
        <pt x="684" y="1188" on="1"/>
        <pt x="627" y="1121" on="0"/>
        <pt x="588" y="1094" on="1"/>
        <pt x="527" y="1132" on="0"/>
        <pt x="481" y="1188" on="1"/>
        <pt x="536" y="1238" on="0"/>
        <pt x="582" y="1290" on="1"/>
        <pt x="616" y="1245" on="0"/>
      </contour>
    </TTGlyph>
    <TTGlyph name="threedots.small.below" xMin="326" yMin="-641" xMax="807" yMax="-236">
      <contour>
        <pt x="539" y="-362" on="1"/>
        <pt x="527" y="-382" on="0"/>
        <pt x="466" y="-452" on="0"/>
        <pt x="438" y="-477" on="1"/>
        <pt x="361" y="-416" on="0"/>
        <pt x="326" y="-375" on="1"/>
        <pt x="386" y="-317" on="0"/>
        <pt x="434" y="-260" on="1"/>
        <pt x="470" y="-299" on="0"/>
      </contour>
      <contour>
        <pt x="807" y="-338" on="1"/>
        <pt x="777" y="-386" on="0"/>
        <pt x="707" y="-453" on="1"/>
        <pt x="635" y="-396" on="0"/>
        <pt x="594" y="-350" on="1"/>
        <pt x="647" y="-299" on="0"/>
        <pt x="702" y="-236" on="1"/>
        <pt x="749" y="-285" on="0"/>
      </contour>
      <contour>
        <pt x="684" y="-547" on="1"/>
        <pt x="622" y="-616" on="0"/>
        <pt x="586" y="-641" on="1"/>
        <pt x="518" y="-594" on="0"/>
        <pt x="479" y="-547" on="1"/>
        <pt x="509" y="-520" on="0"/>
        <pt x="580" y="-444" on="1"/>
        <pt x="618" y="-495" on="0"/>
      </contour>
    </TTGlyph>
    <TTGlyph name="threedots_alt1.below" xMin="42" yMin="-727" xMax="728" yMax="-150">
      <component glyphName="threedots.below" x="-181" y="0" flags="0x4"/>
    </TTGlyph>
    <TTGlyph name="threedots_alt2.below" xMin="42" yMin="-641" xMax="523" yMax="-236">
      <component glyphName="threedots.small.below" x="-284" y="0" flags="0x4"/>
    </TTGlyph>
    <TTGlyph name="twodots.above" xMin="176" yMin="797" xMax="842" yMax="1141">
      <contour>
        <pt x="479" y="961" on="1"/>
        <pt x="424" y="880" on="0"/>
        <pt x="336" y="797" on="1"/>
        <pt x="237" y="873" on="0"/>
        <pt x="176" y="944" on="1"/>
        <pt x="223" y="987" on="0"/>
        <pt x="332" y="1106" on="1"/>
        <pt x="353" y="1083" on="0"/>
      </contour>
      <contour>
        <pt x="842" y="995" on="1"/>
        <pt x="788" y="916" on="0"/>
        <pt x="698" y="831" on="1"/>
        <pt x="604" y="903" on="0"/>
        <pt x="539" y="979" on="1"/>
        <pt x="581" y="1017" on="0"/>
        <pt x="694" y="1141" on="1"/>
        <pt x="716" y="1117" on="0"/>
      </contour>
    </TTGlyph>
    <TTGlyph name="twodots.below" xMin="135" yMin="-522" xMax="801" yMax="-178">
      <contour>
        <pt x="438" y="-358" on="1"/>
        <pt x="383" y="-439" on="0"/>
        <pt x="295" y="-522" on="1"/>
        <pt x="196" y="-446" on="0"/>
        <pt x="135" y="-375" on="1"/>
        <pt x="182" y="-332" on="0"/>
        <pt x="291" y="-213" on="1"/>
        <pt x="312" y="-236" on="0"/>
      </contour>
      <contour>
        <pt x="801" y="-324" on="1"/>
        <pt x="749" y="-400" on="0"/>
        <pt x="657" y="-487" on="1"/>
        <pt x="560" y="-413" on="0"/>
        <pt x="498" y="-340" on="1"/>
        <pt x="540" y="-302" on="0"/>
        <pt x="653" y="-178" on="1"/>
        <pt x="675" y="-202" on="0"/>
      </contour>
    </TTGlyph>
    <TTGlyph name="twodots.small.above" xMin="276" yMin="848" xMax="741" yMax="1090">
      <contour>
        <pt x="487" y="963" on="1"/>
        <pt x="440" y="895" on="0"/>
        <pt x="387" y="848" on="1"/>
        <pt x="310" y="909" on="0"/>
        <pt x="276" y="952" on="1"/>
        <pt x="321" y="993" on="0"/>
        <pt x="385" y="1065" on="1"/>
        <pt x="438" y="1011" on="1"/>
      </contour>
      <contour>
        <pt x="741" y="987" on="1"/>
        <pt x="698" y="925" on="0"/>
        <pt x="641" y="872" on="1"/>
        <pt x="565" y="932" on="0"/>
        <pt x="530" y="975" on="1"/>
        <pt x="582" y="1025" on="0"/>
        <pt x="639" y="1090" on="1"/>
        <pt x="674" y="1051" on="0"/>
      </contour>
    </TTGlyph>
    <TTGlyph name="twodots.small.below" xMin="236" yMin="-471" xMax="700" yMax="-229">
      <contour>
        <pt x="446" y="-356" on="1"/>
        <pt x="399" y="-424" on="0"/>
        <pt x="346" y="-471" on="1"/>
        <pt x="272" y="-412" on="0"/>
        <pt x="236" y="-367" on="1"/>
        <pt x="277" y="-331" on="0"/>
        <pt x="344" y="-254" on="1"/>
        <pt x="397" y="-308" on="1"/>
      </contour>
      <contour>
        <pt x="700" y="-332" on="1"/>
        <pt x="647" y="-405" on="0"/>
        <pt x="600" y="-446" on="1"/>
        <pt x="522" y="-384" on="0"/>
        <pt x="489" y="-344" on="1"/>
        <pt x="541" y="-294" on="0"/>
        <pt x="598" y="-229" on="1"/>
        <pt x="633" y="-268" on="0"/>
      </contour>
    </TTGlyph>
    <TTGlyph name="twodots.vert.above" xMin="131" yMin="797" xMax="479" yMax="1509">
      <contour>
        <pt x="479" y="961" on="1"/>
        <pt x="424" y="880" on="0"/>
        <pt x="336" y="797" on="1"/>
        <pt x="237" y="873" on="0"/>
        <pt x="176" y="944" on="1"/>
        <pt x="223" y="987" on="0"/>
        <pt x="332" y="1106" on="1"/>
        <pt x="353" y="1083" on="0"/>
      </contour>
      <contour>
        <pt x="434" y="1364" on="1"/>
        <pt x="379" y="1283" on="0"/>
        <pt x="291" y="1200" on="1"/>
        <pt x="190" y="1277" on="0"/>
        <pt x="131" y="1348" on="1"/>
        <pt x="184" y="1396" on="0"/>
        <pt x="287" y="1509" on="1"/>
        <pt x="308" y="1486" on="0"/>
      </contour>
    </TTGlyph>
    <TTGlyph name="twodots.vert.below" xMin="131" yMin="-891" xMax="479" yMax="-178">
      <contour>
        <pt x="479" y="-727" on="1"/>
        <pt x="424" y="-808" on="0"/>
        <pt x="336" y="-891" on="1"/>
        <pt x="235" y="-814" on="0"/>
        <pt x="176" y="-743" on="1"/>
        <pt x="229" y="-695" on="0"/>
        <pt x="332" y="-582" on="1"/>
        <pt x="353" y="-605" on="0"/>
      </contour>
      <contour>
        <pt x="434" y="-324" on="1"/>
        <pt x="380" y="-402" on="0"/>
        <pt x="291" y="-487" on="1"/>
        <pt x="192" y="-411" on="0"/>
        <pt x="131" y="-340" on="1"/>
        <pt x="178" y="-297" on="0"/>
        <pt x="287" y="-178" on="1"/>
        <pt x="327" y="-222" on="0"/>
        <pt x="399" y="-290" on="0"/>
      </contour>
    </TTGlyph>
    <TTGlyph name="twodots.vert.small.above" xMin="182" yMin="903" xMax="426" yMax="1403">
      <contour>
        <pt x="426" y="1018" on="1"/>
        <pt x="396" y="970" on="0"/>
        <pt x="326" y="903" on="1"/>
        <pt x="246" y="968" on="0"/>
        <pt x="215" y="1008" on="1"/>
        <pt x="264" y="1052" on="0"/>
        <pt x="324" y="1120" on="1"/>
        <pt x="351" y="1089" on="0"/>
        <pt x="401" y="1043" on="0"/>
      </contour>
      <contour>
        <pt x="395" y="1300" on="1"/>
        <pt x="357" y="1243" on="0"/>
        <pt x="295" y="1186" on="1"/>
        <pt x="220" y="1246" on="0"/>
        <pt x="182" y="1288" on="1"/>
        <pt x="247" y="1351" on="0"/>
        <pt x="293" y="1403" on="1"/>
        <pt x="342" y="1349" on="0"/>
      </contour>
    </TTGlyph>
    <TTGlyph name="twodots.vert.small.below" xMin="182" yMin="-784" xMax="426" yMax="-285">
      <contour>
        <pt x="426" y="-670" on="1"/>
        <pt x="388" y="-727" on="0"/>
        <pt x="326" y="-784" on="1"/>
        <pt x="244" y="-717" on="0"/>
        <pt x="215" y="-680" on="1"/>
        <pt x="260" y="-639" on="0"/>
        <pt x="324" y="-567" on="1"/>
        <pt x="376" y="-621" on="1"/>
      </contour>
      <contour>
        <pt x="395" y="-387" on="1"/>
        <pt x="365" y="-435" on="0"/>
        <pt x="295" y="-502" on="1"/>
        <pt x="223" y="-445" on="0"/>
        <pt x="182" y="-399" on="1"/>
        <pt x="239" y="-344" on="0"/>
        <pt x="293" y="-285" on="1"/>
        <pt x="337" y="-333" on="0"/>
      </contour>
    </TTGlyph>
    <TTGlyph name="twodots.vert_alt1.below" xMin="42" yMin="-891" xMax="390" yMax="-178">
      <component glyphName="twodots.vert.below" x="-89" y="0" flags="0x4"/>
    </TTGlyph>
    <TTGlyph name="twodots_alt1.below" xMin="42" yMin="-522" xMax="708" yMax="-178">
      <component glyphName="twodots.below" x="-93" y="0" flags="0x4"/>
    </TTGlyph>
    <TTGlyph name="uni0600" xMin="83" yMin="-418" xMax="1495" yMax="203">
      <contour>
        <pt x="1495" y="-190" on="1"/>
        <pt x="1476" y="-298" on="0"/>
        <pt x="1425" y="-377" on="1"/>
        <pt x="1356" y="-394" on="0"/>
        <pt x="965" y="-418" on="0"/>
        <pt x="788" y="-418" on="1"/>
        <pt x="588" y="-418" on="0"/>
        <pt x="217" y="-388" on="0"/>
        <pt x="129" y="-352" on="0"/>
        <pt x="83" y="-274" on="0"/>
        <pt x="83" y="-224" on="1"/>
        <pt x="84" y="-197" on="1"/>
        <pt x="432" y="-236" on="0"/>
        <pt x="944" y="-236" on="1"/>
        <pt x="949" y="-56" on="0"/>
        <pt x="1067" y="41" on="1"/>
        <pt x="1182" y="130" on="0"/>
        <pt x="1329" y="203" on="1"/>
        <pt x="1342" y="171" on="0"/>
        <pt x="1342" y="137" on="1"/>
        <pt x="1342" y="96" on="0"/>
        <pt x="1312" y="31" on="0"/>
        <pt x="1286" y="14" on="1"/>
        <pt x="1136" y="-76" on="0"/>
        <pt x="1036" y="-156" on="0"/>
        <pt x="1036" y="-176" on="1"/>
        <pt x="1036" y="-201" on="0"/>
        <pt x="1113" y="-229" on="0"/>
        <pt x="1184" y="-229" on="1"/>
        <pt x="1255" y="-229" on="0"/>
        <pt x="1386" y="-214" on="0"/>
      </contour>
    </TTGlyph>
    <TTGlyph name="uni0601" xMin="78" yMin="-748" xMax="3883" yMax="-90">
      <contour>
        <pt x="3623" y="-471" on="1"/>
        <pt x="3770" y="-324" on="0"/>
        <pt x="3770" y="-274" on="1"/>
        <pt x="3770" y="-264" on="0"/>
        <pt x="3760" y="-264" on="1"/>
        <pt x="3737" y="-264" on="0"/>
        <pt x="3678" y="-282" on="1"/>
        <pt x="3471" y="-347" on="0"/>
        <pt x="2887" y="-487" on="0"/>
        <pt x="2362" y="-559" on="0"/>
        <pt x="2142" y="-559" on="1"/>
        <pt x="1881" y="-559" on="0"/>
        <pt x="1428" y="-485" on="0"/>
        <pt x="1237" y="-403" on="1"/>
        <pt x="1207" y="-391" on="0"/>
        <pt x="1194" y="-391" on="1"/>
        <pt x="1182" y="-391" on="0"/>
        <pt x="1150" y="-438" on="1"/>
        <pt x="1108" y="-501" on="0"/>
        <pt x="1063" y="-546" on="0"/>
        <pt x="1015" y="-575" on="0"/>
        <pt x="987" y="-575" on="1"/>
        <pt x="895" y="-575" on="0"/>
        <pt x="806" y="-444" on="1"/>
        <pt x="756" y="-370" on="0"/>
        <pt x="701" y="-313" on="0"/>
        <pt x="678" y="-313" on="1"/>
        <pt x="624" y="-313" on="0"/>
        <pt x="516" y="-422" on="0"/>
        <pt x="456" y="-530" on="1"/>
        <pt x="392" y="-648" on="0"/>
        <pt x="304" y="-748" on="0"/>
        <pt x="264" y="-748" on="1"/>
        <pt x="174" y="-748" on="0"/>
        <pt x="78" y="-593" on="0"/>
        <pt x="78" y="-451" on="1"/>
        <pt x="78" y="-326" on="0"/>
        <pt x="162" y="-158" on="1"/>
        <pt x="238" y="-199" on="1"/>
        <pt x="215" y="-250" on="0"/>
        <pt x="184" y="-339" on="0"/>
        <pt x="184" y="-385" on="1"/>
        <pt x="184" y="-468" on="0"/>
        <pt x="232" y="-547" on="0"/>
        <pt x="260" y="-547" on="1"/>
        <pt x="293" y="-547" on="0"/>
        <pt x="370" y="-447" on="0"/>
        <pt x="443" y="-318" on="1"/>
        <pt x="571" y="-90" on="0"/>
        <pt x="707" y="-90" on="1"/>
        <pt x="744" y="-90" on="0"/>
        <pt x="810" y="-160" on="0"/>
        <pt x="849" y="-233" on="1"/>
        <pt x="886" y="-303" on="0"/>
        <pt x="972" y="-377" on="0"/>
        <pt x="1024" y="-377" on="1"/>
        <pt x="1087" y="-377" on="0"/>
        <pt x="1136" y="-280" on="1"/>
        <pt x="1159" y="-235" on="0"/>
        <pt x="1193" y="-184" on="0"/>
        <pt x="1206" y="-184" on="1"/>
        <pt x="1217" y="-184" on="0"/>
        <pt x="1246" y="-197" on="1"/>
        <pt x="1319" y="-231" on="0"/>
        <pt x="1580" y="-310" on="0"/>
        <pt x="1964" y="-358" on="0"/>
        <pt x="2183" y="-358" on="1"/>
        <pt x="2439" y="-358" on="0"/>
        <pt x="3057" y="-267" on="0"/>
        <pt x="3512" y="-152" on="1"/>
        <pt x="3622" y="-124" on="0"/>
        <pt x="3750" y="-92" on="0"/>
        <pt x="3787" y="-92" on="1"/>
        <pt x="3827" y="-92" on="0"/>
        <pt x="3883" y="-147" on="0"/>
        <pt x="3883" y="-188" on="1"/>
        <pt x="3883" y="-342" on="0"/>
        <pt x="3688" y="-528" on="1"/>
      </contour>
    </TTGlyph>
    <TTGlyph name="uni0602" xMin="123" yMin="-418" xMax="1601" yMax="170">
      <contour>
        <pt x="674" y="-70" on="1"/>
        <pt x="674" y="-145" on="0"/>
        <pt x="621" y="-233" on="1"/>
        <pt x="925" y="-233" on="0"/>
        <pt x="1364" y="-203" on="0"/>
        <pt x="1597" y="-174" on="1"/>
        <pt x="1601" y="-212" on="1"/>
        <pt x="1601" y="-260" on="0"/>
        <pt x="1552" y="-339" on="0"/>
        <pt x="1463" y="-381" on="0"/>
        <pt x="1163" y="-406" on="0"/>
        <pt x="710" y="-418" on="0"/>
        <pt x="510" y="-418" on="1"/>
        <pt x="318" y="-418" on="0"/>
        <pt x="123" y="-280" on="0"/>
        <pt x="123" y="-147" on="1"/>
        <pt x="123" y="-68" on="0"/>
        <pt x="212" y="80" on="0"/>
        <pt x="361" y="170" on="0"/>
        <pt x="442" y="170" on="1"/>
        <pt x="535" y="170" on="0"/>
        <pt x="674" y="30" on="0"/>
      </contour>
      <contour>
        <pt x="211" y="-113" on="1"/>
        <pt x="211" y="-175" on="0"/>
        <pt x="384" y="-233" on="0"/>
        <pt x="537" y="-233" on="1"/>
        <pt x="559" y="-183" on="0"/>
        <pt x="559" y="-152" on="1"/>
        <pt x="559" y="8" on="0"/>
        <pt x="416" y="8" on="1"/>
        <pt x="330" y="8" on="0"/>
        <pt x="211" y="-59" on="0"/>
      </contour>
    </TTGlyph>
    <TTGlyph name="uni0603" xMin="89" yMin="-498" xMax="1788" yMax="178">
      <contour>
        <pt x="975" y="-453" on="1"/>
        <pt x="1002" y="-401" on="0"/>
        <pt x="1032" y="-354" on="1"/>
        <pt x="960" y="-323" on="0"/>
        <pt x="932" y="-309" on="1"/>
        <pt x="928" y="-309" on="0"/>
        <pt x="928" y="-313" on="1"/>
        <pt x="882" y="-359" on="0"/>
        <pt x="739" y="-420" on="0"/>
        <pt x="672" y="-420" on="1"/>
        <pt x="538" y="-420" on="0"/>
        <pt x="352" y="-403" on="0"/>
        <pt x="155" y="-364" on="0"/>
        <pt x="89" y="-278" on="0"/>
        <pt x="89" y="-215" on="1"/>
        <pt x="90" y="-186" on="1"/>
        <pt x="307" y="-223" on="0"/>
        <pt x="543" y="-246" on="0"/>
        <pt x="672" y="-246" on="1"/>
        <pt x="739" y="-246" on="0"/>
        <pt x="828" y="-212" on="0"/>
        <pt x="866" y="-180" on="1"/>
        <pt x="905" y="-148" on="0"/>
        <pt x="947" y="-83" on="0"/>
        <pt x="969" y="-49" on="1"/>
        <pt x="981" y="-29" on="0"/>
        <pt x="1023" y="-7" on="0"/>
        <pt x="1045" y="-7" on="1"/>
        <pt x="1080" y="-7" on="0"/>
        <pt x="1102" y="-29" on="1"/>
        <pt x="1060" y="-127" on="0"/>
        <pt x="1032" y="-172" on="1"/>
        <pt x="1055" y="-183" on="0"/>
        <pt x="1124" y="-207" on="1"/>
        <pt x="1245" y="-28" on="0"/>
        <pt x="1469" y="178" on="0"/>
        <pt x="1548" y="178" on="1"/>
        <pt x="1646" y="178" on="0"/>
        <pt x="1788" y="28" on="0"/>
        <pt x="1788" y="-76" on="1"/>
        <pt x="1788" y="-174" on="0"/>
        <pt x="1682" y="-330" on="0"/>
        <pt x="1478" y="-428" on="0"/>
        <pt x="1374" y="-428" on="1"/>
        <pt x="1253" y="-428" on="0"/>
        <pt x="1120" y="-385" on="1"/>
        <pt x="1087" y="-433" on="0"/>
        <pt x="1049" y="-498" on="1"/>
      </contour>
      <contour>
        <pt x="1489" y="-2" on="1"/>
        <pt x="1397" y="-2" on="0"/>
        <pt x="1227" y="-229" on="1"/>
        <pt x="1308" y="-244" on="0"/>
        <pt x="1391" y="-244" on="1"/>
        <pt x="1558" y="-244" on="0"/>
        <pt x="1696" y="-137" on="1"/>
        <pt x="1608" y="-2" on="0"/>
      </contour>
    </TTGlyph>
    <TTGlyph name="uni060B" xMin="-20" yMin="-678" xMax="889" yMax="1597">
      <component glyphName="uni066F.init" x="0" y="0" flags="0x4"/>
      <component glyphName="uni0656" x="532" y="117" flags="0x4"/>
      <component glyphName="onedot.above" x="-110" y="471" flags="0x4"/>
    </TTGlyph>
    <TTGlyph name="uni060C" xMin="102" yMin="-20" xMax="438" yMax="559">
      <contour>
        <pt x="102" y="158" on="1"/>
        <pt x="102" y="305" on="0"/>
        <pt x="273" y="510" on="0"/>
        <pt x="438" y="559" on="1"/>
        <pt x="438" y="473" on="1"/>
        <pt x="244" y="411" on="0"/>
        <pt x="244" y="289" on="1"/>
        <pt x="244" y="267" on="0"/>
        <pt x="273" y="235" on="0"/>
        <pt x="319" y="211" on="1"/>
        <pt x="393" y="170" on="0"/>
        <pt x="393" y="100" on="1"/>
        <pt x="393" y="42" on="0"/>
        <pt x="317" y="-20" on="0"/>
        <pt x="260" y="-20" on="1"/>
        <pt x="190" y="-20" on="0"/>
        <pt x="102" y="79" on="0"/>
      </contour>
    </TTGlyph>
    <TTGlyph name="uni060D" xMin="100" yMin="-385" xMax="549" yMax="354">
      <contour>
        <pt x="549" y="209" on="1"/>
        <pt x="263" y="-73" on="0"/>
        <pt x="166" y="-385" on="1"/>
        <pt x="136" y="-376" on="0"/>
        <pt x="100" y="-317" on="0"/>
        <pt x="100" y="-284" on="1"/>
        <pt x="100" y="-235" on="0"/>
        <pt x="194" y="-24" on="0"/>
        <pt x="382" y="225" on="0"/>
        <pt x="506" y="354" on="1"/>
      </contour>
    </TTGlyph>
    <TTGlyph name="uni060E" xMin="164" yMin="-20" xMax="2017" yMax="729">
      <contour>
        <pt x="924" y="348" on="1"/>
        <pt x="924" y="297" on="0"/>
        <pt x="893" y="154" on="1"/>
        <pt x="1311" y="156" on="0"/>
        <pt x="1856" y="284" on="0"/>
        <pt x="1954" y="406" on="1"/>
        <pt x="2017" y="356" on="1"/>
        <pt x="1959" y="233" on="0"/>
        <pt x="1788" y="101" on="0"/>
        <pt x="1511" y="19" on="0"/>
        <pt x="1103" y="-20" on="0"/>
        <pt x="823" y="-20" on="1"/>
        <pt x="564" y="-20" on="0"/>
        <pt x="293" y="44" on="0"/>
        <pt x="164" y="189" on="0"/>
        <pt x="164" y="315" on="1"/>
        <pt x="164" y="432" on="0"/>
        <pt x="289" y="613" on="0"/>
        <pt x="497" y="729" on="0"/>
        <pt x="614" y="729" on="1"/>
        <pt x="756" y="729" on="0"/>
        <pt x="924" y="517" on="0"/>
      </contour>
      <contour>
        <pt x="252" y="365" on="1"/>
        <pt x="252" y="264" on="0"/>
        <pt x="540" y="156" on="0"/>
        <pt x="805" y="154" on="1"/>
        <pt x="823" y="232" on="0"/>
        <pt x="823" y="266" on="1"/>
        <pt x="823" y="350" on="0"/>
        <pt x="756" y="473" on="0"/>
        <pt x="639" y="541" on="0"/>
        <pt x="571" y="541" on="1"/>
        <pt x="494" y="541" on="0"/>
        <pt x="346" y="488" on="0"/>
        <pt x="252" y="405" on="0"/>
      </contour>
    </TTGlyph>
    <TTGlyph name="uni060F" xMin="92" yMin="-735" xMax="1372" yMax="1262">
      <contour>
        <pt x="1108" y="799" on="1"/>
        <pt x="1135" y="765" on="0"/>
        <pt x="1135" y="723" on="1"/>
        <pt x="1135" y="685" on="0"/>
        <pt x="1097" y="628" on="0"/>
        <pt x="1034" y="584" on="0"/>
        <pt x="950" y="549" on="1"/>
        <pt x="761" y="474" on="0"/>
        <pt x="488" y="274" on="0"/>
        <pt x="356" y="44" on="0"/>
        <pt x="356" y="-80" on="1"/>
        <pt x="356" y="-171" on="0"/>
        <pt x="389" y="-252" on="1"/>
        <pt x="553" y="-44" on="0"/>
        <pt x="860" y="164" on="0"/>
        <pt x="1024" y="164" on="1"/>
        <pt x="1192" y="164" on="0"/>
        <pt x="1372" y="-35" on="0"/>
        <pt x="1372" y="-221" on="1"/>
        <pt x="1372" y="-351" on="0"/>
        <pt x="1218" y="-571" on="0"/>
        <pt x="958" y="-696" on="0"/>
        <pt x="815" y="-696" on="1"/>
        <pt x="658" y="-696" on="0"/>
        <pt x="432" y="-569" on="0"/>
        <pt x="365" y="-459" on="1"/>
        <pt x="280" y="-562" on="0"/>
        <pt x="162" y="-735" on="1"/>
        <pt x="92" y="-684" on="1"/>
        <pt x="230" y="-465" on="0"/>
        <pt x="313" y="-352" on="1"/>
        <pt x="270" y="-225" on="0"/>
        <pt x="270" y="-80" on="1"/>
        <pt x="270" y="214" on="0"/>
        <pt x="492" y="446" on="1"/>
        <pt x="354" y="477" on="0"/>
        <pt x="164" y="677" on="0"/>
        <pt x="164" y="795" on="1"/>
        <pt x="164" y="901" on="0"/>
        <pt x="280" y="1129" on="0"/>
        <pt x="455" y="1262" on="0"/>
        <pt x="549" y="1262" on="1"/>
        <pt x="631" y="1262" on="0"/>
        <pt x="779" y="1183" on="0"/>
        <pt x="887" y="1090" on="1"/>
        <pt x="844" y="1014" on="1"/>
        <pt x="748" y="1050" on="0"/>
        <pt x="663" y="1069" on="0"/>
        <pt x="610" y="1069" on="1"/>
        <pt x="463" y="1069" on="0"/>
        <pt x="301" y="981" on="1"/>
        <pt x="301" y="833" on="0"/>
        <pt x="520" y="638" on="0"/>
        <pt x="711" y="623" on="1"/>
        <pt x="892" y="734" on="0"/>
      </contour>
      <contour>
        <pt x="1040" y="-41" on="1"/>
        <pt x="751" y="-41" on="0"/>
        <pt x="455" y="-356" on="1"/>
        <pt x="520" y="-430" on="0"/>
        <pt x="722" y="-512" on="0"/>
        <pt x="834" y="-512" on="1"/>
        <pt x="958" y="-512" on="0"/>
        <pt x="1178" y="-434" on="0"/>
        <pt x="1286" y="-309" on="0"/>
        <pt x="1286" y="-227" on="1"/>
        <pt x="1286" y="-151" on="0"/>
        <pt x="1136" y="-41" on="0"/>
      </contour>
    </TTGlyph>
    <TTGlyph name="uni0610" xMin="-70" yMin="961" xMax="420" yMax="1485">
      <contour>
        <pt x="41" y="1276" on="1"/>
        <pt x="164" y="1485" on="0"/>
        <pt x="287" y="1485" on="1"/>
        <pt x="337" y="1485" on="0"/>
        <pt x="420" y="1401" on="0"/>
        <pt x="420" y="1354" on="1"/>
        <pt x="420" y="1250" on="0"/>
        <pt x="275" y="1124" on="0"/>
        <pt x="160" y="1124" on="1"/>
        <pt x="106" y="1124" on="0"/>
        <pt x="55" y="1137" on="1"/>
        <pt x="55" y="1047" on="0"/>
        <pt x="41" y="1012" on="1"/>
        <pt x="13" y="964" on="0"/>
        <pt x="-25" y="961" on="1"/>
        <pt x="-16" y="1038" on="0"/>
        <pt x="-16" y="1087" on="1"/>
        <pt x="-16" y="1176" on="0"/>
        <pt x="-70" y="1298" on="1"/>
        <pt x="-60" y="1323" on="0"/>
        <pt x="-37" y="1376" on="0"/>
        <pt x="-14" y="1405" on="1"/>
        <pt x="-3" y="1377" on="0"/>
        <pt x="21" y="1313" on="0"/>
      </contour>
      <contour>
        <pt x="70" y="1231" on="1"/>
        <pt x="104" y="1217" on="0"/>
        <pt x="162" y="1217" on="1"/>
        <pt x="320" y="1217" on="0"/>
        <pt x="371" y="1296" on="1"/>
        <pt x="345" y="1380" on="0"/>
        <pt x="260" y="1380" on="1"/>
        <pt x="150" y="1380" on="0"/>
      </contour>
    </TTGlyph>
    <TTGlyph name="uni0611" xMin="-78" yMin="961" xMax="440" yMax="1481">
      <contour>
        <pt x="135" y="1118" on="1"/>
        <pt x="86" y="1118" on="0"/>
        <pt x="51" y="1126" on="1"/>
        <pt x="51" y="1039" on="0"/>
        <pt x="2" y="963" on="0"/>
        <pt x="-33" y="961" on="1"/>
        <pt x="-25" y="1030" on="0"/>
        <pt x="-25" y="1087" on="1"/>
        <pt x="-25" y="1178" on="0"/>
        <pt x="-78" y="1298" on="1"/>
        <pt x="-58" y="1355" on="0"/>
        <pt x="-25" y="1403" on="1"/>
        <pt x="1" y="1344" on="1"/>
        <pt x="37" y="1259" on="0"/>
        <pt x="87" y="1210" on="0"/>
        <pt x="129" y="1210" on="1"/>
        <pt x="133" y="1210" on="1"/>
        <pt x="100" y="1247" on="0"/>
        <pt x="100" y="1294" on="1"/>
        <pt x="100" y="1360" on="0"/>
        <pt x="195" y="1481" on="0"/>
        <pt x="252" y="1481" on="1"/>
        <pt x="283" y="1481" on="0"/>
        <pt x="339" y="1451" on="0"/>
        <pt x="385" y="1411" on="1"/>
        <pt x="362" y="1376" on="1"/>
        <pt x="313" y="1399" on="0"/>
        <pt x="266" y="1399" on="1"/>
        <pt x="219" y="1399" on="0"/>
        <pt x="164" y="1368" on="1"/>
        <pt x="164" y="1317" on="0"/>
        <pt x="217" y="1251" on="0"/>
        <pt x="289" y="1235" on="1"/>
        <pt x="383" y="1260" on="0"/>
        <pt x="432" y="1286" on="1"/>
        <pt x="440" y="1268" on="0"/>
        <pt x="440" y="1253" on="1"/>
        <pt x="440" y="1226" on="0"/>
        <pt x="408" y="1181" on="0"/>
        <pt x="321" y="1144" on="0"/>
        <pt x="189" y="1118" on="0"/>
      </contour>
    </TTGlyph>
    <TTGlyph name="uni0612" xMin="-205" yMin="1042" xMax="461" yMax="1581">
      <contour>
        <pt x="-166" y="1053" on="1"/>
        <pt x="-166" y="1153" on="0"/>
        <pt x="-63" y="1312" on="0"/>
        <pt x="37" y="1358" on="1"/>
        <pt x="-36" y="1384" on="0"/>
        <pt x="-80" y="1384" on="1"/>
        <pt x="-148" y="1384" on="0"/>
        <pt x="-180" y="1346" on="1"/>
        <pt x="-205" y="1364" on="0"/>
        <pt x="-205" y="1393" on="1"/>
        <pt x="-205" y="1432" on="0"/>
        <pt x="-135" y="1479" on="0"/>
        <pt x="-82" y="1479" on="1"/>
        <pt x="-40" y="1479" on="0"/>
        <pt x="32" y="1458" on="0"/>
        <pt x="104" y="1434" on="0"/>
        <pt x="178" y="1413" on="0"/>
        <pt x="221" y="1413" on="1"/>
        <pt x="251" y="1413" on="0"/>
        <pt x="295" y="1419" on="1"/>
        <pt x="260" y="1325" on="1"/>
        <pt x="238" y="1321" on="0"/>
        <pt x="199" y="1321" on="1"/>
        <pt x="197" y="1321" on="1"/>
        <pt x="116" y="1308" on="0"/>
        <pt x="-34" y="1229" on="0"/>
        <pt x="-124" y="1117" on="0"/>
        <pt x="-125" y="1053" on="1"/>
      </contour>
      <contour>
        <pt x="242" y="1042" on="1"/>
        <pt x="221" y="1042" on="0"/>
        <pt x="126" y="1087" on="0"/>
        <pt x="94" y="1114" on="1"/>
        <pt x="111" y="1153" on="1"/>
        <pt x="187" y="1135" on="0"/>
        <pt x="219" y="1135" on="1"/>
        <pt x="293" y="1135" on="0"/>
        <pt x="388" y="1221" on="0"/>
        <pt x="410" y="1290" on="1"/>
        <pt x="373" y="1369" on="0"/>
        <pt x="344" y="1417" on="1"/>
        <pt x="317" y="1468" on="0"/>
        <pt x="317" y="1503" on="1"/>
        <pt x="317" y="1531" on="0"/>
        <pt x="353" y="1566" on="0"/>
        <pt x="387" y="1581" on="1"/>
        <pt x="400" y="1531" on="0"/>
        <pt x="416" y="1487" on="1"/>
        <pt x="431" y="1445" on="0"/>
        <pt x="461" y="1355" on="0"/>
        <pt x="461" y="1321" on="1"/>
        <pt x="461" y="1206" on="0"/>
        <pt x="336" y="1042" on="0"/>
      </contour>
    </TTGlyph>
    <TTGlyph name="uni0613" xMin="-184" yMin="948" xMax="522" yMax="1579">
      <contour>
        <pt x="-121" y="1505" on="1"/>
        <pt x="-80" y="1561" on="0"/>
        <pt x="-63" y="1579" on="1"/>
        <pt x="-36" y="1561" on="0"/>
        <pt x="18" y="1507" on="1"/>
        <pt x="-23" y="1448" on="0"/>
        <pt x="-41" y="1436" on="1"/>
      </contour>
      <contour>
        <pt x="303" y="961" on="1"/>
        <pt x="280" y="961" on="0"/>
        <pt x="189" y="1004" on="0"/>
        <pt x="156" y="1032" on="1"/>
        <pt x="172" y="1071" on="1"/>
        <pt x="248" y="1053" on="0"/>
        <pt x="281" y="1053" on="1"/>
        <pt x="355" y="1053" on="0"/>
        <pt x="449" y="1139" on="0"/>
        <pt x="471" y="1208" on="1"/>
        <pt x="439" y="1275" on="0"/>
        <pt x="426" y="1299" on="1"/>
        <pt x="394" y="1356" on="0"/>
        <pt x="379" y="1400" on="0"/>
        <pt x="379" y="1421" on="1"/>
        <pt x="379" y="1449" on="0"/>
        <pt x="414" y="1484" on="0"/>
        <pt x="449" y="1499" on="1"/>
        <pt x="465" y="1439" on="0"/>
        <pt x="477" y="1405" on="1"/>
        <pt x="522" y="1287" on="0"/>
        <pt x="522" y="1239" on="1"/>
        <pt x="522" y="1123" on="0"/>
        <pt x="396" y="961" on="0"/>
      </contour>
      <contour>
        <pt x="-74" y="1264" on="1"/>
        <pt x="49" y="1473" on="0"/>
        <pt x="172" y="1473" on="1"/>
        <pt x="223" y="1473" on="0"/>
        <pt x="305" y="1387" on="0"/>
        <pt x="305" y="1341" on="1"/>
        <pt x="305" y="1237" on="0"/>
        <pt x="162" y="1112" on="0"/>
        <pt x="45" y="1112" on="1"/>
        <pt x="-8" y="1112" on="0"/>
        <pt x="-59" y="1124" on="1"/>
        <pt x="-59" y="1029" on="0"/>
        <pt x="-74" y="999" on="1"/>
        <pt x="-103" y="952" on="0"/>
        <pt x="-139" y="948" on="1"/>
        <pt x="-131" y="1018" on="0"/>
        <pt x="-131" y="1075" on="1"/>
        <pt x="-131" y="1166" on="0"/>
        <pt x="-184" y="1286" on="1"/>
        <pt x="-159" y="1355" on="0"/>
        <pt x="-129" y="1393" on="1"/>
        <pt x="-118" y="1365" on="0"/>
        <pt x="-94" y="1301" on="0"/>
      </contour>
      <contour>
        <pt x="-45" y="1219" on="1"/>
        <pt x="-9" y="1204" on="0"/>
        <pt x="47" y="1204" on="1"/>
        <pt x="205" y="1204" on="0"/>
        <pt x="256" y="1284" on="1"/>
        <pt x="232" y="1368" on="0"/>
        <pt x="145" y="1368" on="1"/>
        <pt x="35" y="1368" on="0"/>
      </contour>
    </TTGlyph>
    <TTGlyph name="uni0614" xMin="-355" yMin="1098" xMax="530" yMax="1341">
      <contour>
        <pt x="530" y="1315" on="1"/>
        <pt x="450" y="1098" on="0"/>
        <pt x="330" y="1098" on="1"/>
        <pt x="254" y="1098" on="0"/>
        <pt x="207" y="1190" on="1"/>
        <pt x="153" y="1147" on="0"/>
        <pt x="5" y="1118" on="0"/>
        <pt x="-88" y="1118" on="1"/>
        <pt x="-208" y="1118" on="0"/>
        <pt x="-355" y="1145" on="0"/>
        <pt x="-355" y="1197" on="1"/>
        <pt x="-354" y="1210" on="1"/>
        <pt x="-255" y="1208" on="1"/>
        <pt x="-144" y="1208" on="0"/>
        <pt x="11" y="1217" on="0"/>
        <pt x="127" y="1239" on="0"/>
        <pt x="201" y="1282" on="0"/>
        <pt x="248" y="1339" on="1"/>
        <pt x="283" y="1325" on="1"/>
        <pt x="283" y="1303" on="1"/>
        <pt x="283" y="1268" on="0"/>
        <pt x="330" y="1210" on="0"/>
        <pt x="360" y="1210" on="1"/>
        <pt x="423" y="1210" on="0"/>
        <pt x="498" y="1341" on="1"/>
      </contour>
    </TTGlyph>
    <TTGlyph name="uni0615" xMin="-248" yMin="707" xMax="463" yMax="1423">
      <contour>
        <pt x="-229" y="901" on="1"/>
        <pt x="-96" y="879" on="1"/>
        <pt x="-69" y="921" on="0"/>
        <pt x="-35" y="958" on="1"/>
        <pt x="-86" y="1211" on="1"/>
        <pt x="-109" y="1321" on="0"/>
        <pt x="-109" y="1341" on="1"/>
        <pt x="-109" y="1367" on="0"/>
        <pt x="-33" y="1414" on="0"/>
        <pt x="16" y="1423" on="1"/>
        <pt x="51" y="1319" on="1"/>
        <pt x="27" y="1300" on="1"/>
        <pt x="32" y="1242" on="0"/>
        <pt x="34" y="1105" on="0"/>
        <pt x="37" y="1036" on="1"/>
        <pt x="99" y="1095" on="0"/>
        <pt x="213" y="1161" on="0"/>
        <pt x="250" y="1161" on="1"/>
        <pt x="291" y="1161" on="0"/>
        <pt x="392" y="1091" on="0"/>
        <pt x="463" y="988" on="0"/>
        <pt x="463" y="954" on="1"/>
        <pt x="463" y="886" on="0"/>
        <pt x="370" y="773" on="0"/>
        <pt x="214" y="707" on="0"/>
        <pt x="135" y="707" on="1"/>
        <pt x="69" y="707" on="0"/>
        <pt x="-51" y="732" on="0"/>
        <pt x="-160" y="775" on="0"/>
        <pt x="-248" y="825" on="1"/>
      </contour>
      <contour>
        <pt x="233" y="1012" on="1"/>
        <pt x="181" y="1012" on="0"/>
        <pt x="52" y="935" on="0"/>
        <pt x="-8" y="870" on="1"/>
        <pt x="64" y="862" on="0"/>
        <pt x="141" y="862" on="1"/>
        <pt x="220" y="862" on="0"/>
        <pt x="327" y="886" on="0"/>
        <pt x="395" y="915" on="1"/>
        <pt x="374" y="954" on="0"/>
        <pt x="278" y="1012" on="0"/>
      </contour>
    </TTGlyph>
    <TTGlyph name="uni061B" xMin="100" yMin="-20" xMax="436" yMax="1139">
      <contour>
        <pt x="129" y="119" on="1"/>
        <pt x="129" y="258" on="0"/>
        <pt x="258" y="258" on="1"/>
        <pt x="321" y="258" on="0"/>
        <pt x="387" y="186" on="0"/>
        <pt x="387" y="119" on="1"/>
        <pt x="387" y="52" on="0"/>
        <pt x="322" y="-20" on="0"/>
        <pt x="258" y="-20" on="1"/>
        <pt x="129" y="-20" on="0"/>
      </contour>
      <contour>
        <pt x="100" y="737" on="1"/>
        <pt x="100" y="883" on="0"/>
        <pt x="270" y="1090" on="0"/>
        <pt x="436" y="1139" on="1"/>
        <pt x="436" y="1053" on="1"/>
        <pt x="242" y="991" on="0"/>
        <pt x="242" y="868" on="1"/>
        <pt x="242" y="844" on="0"/>
        <pt x="276" y="810" on="0"/>
        <pt x="317" y="790" on="1"/>
        <pt x="391" y="752" on="0"/>
        <pt x="391" y="680" on="1"/>
        <pt x="391" y="621" on="0"/>
        <pt x="315" y="559" on="0"/>
        <pt x="258" y="559" on="1"/>
        <pt x="189" y="559" on="0"/>
        <pt x="100" y="658" on="0"/>
      </contour>
    </TTGlyph>
    <TTGlyph name="uni061E" xMin="-29" yMin="-109" xMax="657" yMax="472">
      <component glyphName="threedots.above" x="-273" y="-906" flags="0x4"/>
    </TTGlyph>
    <TTGlyph name="uni061F" xMin="88" yMin="-14" xMax="920" yMax="1483">
      <contour>
        <pt x="485" y="643" on="1"/>
        <pt x="278" y="728" on="0"/>
        <pt x="88" y="956" on="0"/>
        <pt x="88" y="1112" on="1"/>
        <pt x="88" y="1281" on="0"/>
        <pt x="335" y="1483" on="0"/>
        <pt x="537" y="1483" on="1"/>
        <pt x="718" y="1483" on="0"/>
        <pt x="920" y="1362" on="0"/>
        <pt x="920" y="1253" on="1"/>
        <pt x="920" y="1191" on="0"/>
        <pt x="827" y="1120" on="0"/>
        <pt x="750" y="1120" on="1"/>
        <pt x="750" y="1246" on="0"/>
        <pt x="632" y="1382" on="0"/>
        <pt x="520" y="1382" on="1"/>
        <pt x="412" y="1382" on="0"/>
        <pt x="297" y="1265" on="0"/>
        <pt x="297" y="1147" on="1"/>
        <pt x="297" y="999" on="0"/>
        <pt x="456" y="785" on="0"/>
        <pt x="610" y="723" on="1"/>
        <pt x="610" y="412" on="1"/>
        <pt x="485" y="412" on="1"/>
      </contour>
      <contour>
        <pt x="680" y="125" on="1"/>
        <pt x="680" y="-14" on="0"/>
        <pt x="551" y="-14" on="1"/>
        <pt x="488" y="-14" on="0"/>
        <pt x="422" y="57" on="0"/>
        <pt x="422" y="125" on="1"/>
        <pt x="422" y="192" on="0"/>
        <pt x="487" y="264" on="0"/>
        <pt x="551" y="264" on="1"/>
        <pt x="680" y="264" on="0"/>
      </contour>
    </TTGlyph>
    <TTGlyph name="uni0621" xMin="164" yMin="-109" xMax="1202" yMax="799">
      <contour>
        <pt x="164" y="-8" on="1"/>
        <pt x="298" y="47" on="0"/>
        <pt x="420" y="86" on="1"/>
        <pt x="355" y="134" on="0"/>
        <pt x="281" y="260" on="0"/>
        <pt x="281" y="332" on="1"/>
        <pt x="281" y="433" on="0"/>
        <pt x="406" y="661" on="0"/>
        <pt x="601" y="799" on="0"/>
        <pt x="705" y="799" on="1"/>
        <pt x="812" y="799" on="0"/>
        <pt x="934" y="686" on="0"/>
        <pt x="934" y="584" on="1"/>
        <pt x="934" y="527" on="0"/>
        <pt x="907" y="485" on="1"/>
        <pt x="829" y="516" on="1"/>
        <pt x="836" y="547" on="0"/>
        <pt x="836" y="578" on="1"/>
        <pt x="774" y="606" on="0"/>
        <pt x="707" y="606" on="1"/>
        <pt x="626" y="606" on="0"/>
        <pt x="437" y="489" on="0"/>
        <pt x="373" y="397" on="1"/>
        <pt x="414" y="298" on="0"/>
        <pt x="565" y="187" on="0"/>
        <pt x="690" y="158" on="1"/>
        <pt x="816" y="185" on="0"/>
        <pt x="1100" y="225" on="0"/>
        <pt x="1171" y="231" on="1"/>
        <pt x="1202" y="200" on="0"/>
        <pt x="1202" y="153" on="1"/>
        <pt x="1202" y="103" on="0"/>
        <pt x="1135" y="42" on="0"/>
        <pt x="1077" y="37" on="1"/>
        <pt x="841" y="19" on="0"/>
        <pt x="564" y="-24" on="0"/>
        <pt x="197" y="-109" on="1"/>
      </contour>
    </TTGlyph>
    <TTGlyph name="uni0622" xMin="-106" yMin="-20" xMax="668" yMax="1762">
      <component glyphName="alef_alt.isol" x="12" y="0" flags="0x4"/>
      <component glyphName="uni0653" x="119" y="244" flags="0x4"/>
    </TTGlyph>
    <TTGlyph name="uni0622.fina" xMin="-119" yMin="-20" xMax="655" yMax="1762">
      <component glyphName="alef_alt.fina" x="20" y="0" flags="0x4"/>
      <component glyphName="uni0653" x="106" y="244" flags="0x4"/>
    </TTGlyph>
    <TTGlyph name="uni0623" xMin="121" yMin="-20" xMax="508" yMax="1972">
      <component glyphName="alef_alt.isol" x="10" y="0" flags="0x4"/>
      <component glyphName="uni0654" x="158" y="297" flags="0x4"/>
    </TTGlyph>
    <TTGlyph name="uni0623.fina" xMin="51" yMin="-20" xMax="651" yMax="1972">
      <component glyphName="alef_alt.fina" x="20" y="0" flags="0x4"/>
      <component glyphName="uni0654" x="88" y="297" flags="0x4"/>
    </TTGlyph>
    <TTGlyph name="uni0624" xMin="82" yMin="-512" xMax="1006" yMax="1419">
      <component glyphName="uni0648" x="0" y="0" flags="0x204"/>
      <component glyphName="hamza_medial" x="227" y="47" flags="0x4"/>
    </TTGlyph>
    <TTGlyph name="uni0624.fina" xMin="82" yMin="-512" xMax="1169" yMax="1417">
      <component glyphName="uni0648.fina" x="0" y="0" flags="0x204"/>
      <component glyphName="hamza_medial" x="229" y="45" flags="0x4"/>
    </TTGlyph>
    <TTGlyph name="uni0625" xMin="137" yMin="-667" xMax="524" yMax="1460">
      <component glyphName="alef_alt.isol" x="-11" y="0" flags="0x4"/>
      <component glyphName="uni0654" x="174" y="-1797" flags="0x4"/>
    </TTGlyph>
    <TTGlyph name="uni0625.fina" xMin="184" yMin="-667" xMax="651" yMax="1462">
      <component glyphName="alef_alt.fina" x="20" y="0" flags="0x4"/>
      <component glyphName="uni0654" x="287" y="-1797" flags="0x4"/>
    </TTGlyph>
    <TTGlyph name="uni0626" xMin="164" yMin="-696" xMax="1407" yMax="836">
      <component glyphName="uni0649" x="0" y="0" flags="0x204"/>
      <component glyphName="hamza_medial" x="264" y="-536" flags="0x4"/>
    </TTGlyph>
    <TTGlyph name="uni0626.fina" xMin="164" yMin="-696" xMax="1696" yMax="666">
      <component glyphName="uni0649.fina" x="0" y="0" flags="0x204"/>
      <component glyphName="hamza_medial" x="449" y="-706" flags="0x4"/>
    </TTGlyph>
    <TTGlyph name="uni0626.init" xMin="-20" yMin="-20" xMax="541" yMax="1470">
      <component glyphName="uni066E.init" x="0" y="0" flags="0x204"/>
      <component glyphName="hamza_medial" x="115" y="98" flags="0x4"/>
    </TTGlyph>
    <TTGlyph name="uni0626.medi" xMin="-20" yMin="-20" xMax="745" yMax="1176">
      <component glyphName="uni066E.medi" x="0" y="0" flags="0x204"/>
      <component glyphName="hamza_medial" x="117" y="-196" flags="0x4"/>
    </TTGlyph>
    <TTGlyph name="uni0627" xMin="184" yMin="-20" xMax="430" yMax="1597">
      <contour>
        <pt x="365" y="1255" on="1"/>
        <pt x="379" y="849" on="0"/>
        <pt x="379" y="782" on="1"/>
        <pt x="379" y="402" on="0"/>
        <pt x="362" y="0" on="1"/>
        <pt x="252" y="-20" on="1"/>
        <pt x="247" y="314" on="0"/>
        <pt x="213" y="1091" on="0"/>
        <pt x="186" y="1382" on="1"/>
        <pt x="184" y="1415" on="1"/>
        <pt x="184" y="1490" on="0"/>
        <pt x="261" y="1580" on="0"/>
        <pt x="344" y="1597" on="1"/>
        <pt x="367" y="1506" on="0"/>
        <pt x="387" y="1446" on="1"/>
        <pt x="430" y="1311" on="1"/>
      </contour>
    </TTGlyph>
    <TTGlyph name="uni0627.fina" xMin="184" yMin="-20" xMax="651" yMax="1597">
      <contour>
        <pt x="346" y="1597" on="1"/>
        <pt x="361" y="1304" on="0"/>
        <pt x="372" y="578" on="1"/>
        <pt x="379" y="225" on="1"/>
        <pt x="490" y="164" on="0"/>
        <pt x="631" y="164" on="1"/>
        <pt x="651" y="164" on="0"/>
        <pt x="651" y="143" on="1"/>
        <pt x="651" y="0" on="1"/>
        <pt x="651" y="-20" on="0"/>
        <pt x="631" y="-20" on="1"/>
        <pt x="489" y="-20" on="0"/>
        <pt x="301" y="93" on="0"/>
        <pt x="289" y="190" on="1"/>
        <pt x="249" y="522" on="0"/>
        <pt x="207" y="1141" on="1"/>
        <pt x="184" y="1462" on="1"/>
        <pt x="255" y="1537" on="0"/>
      </contour>
    </TTGlyph>
    <TTGlyph name="uni0628" xMin="165" yMin="-521" xMax="1738" yMax="963">
      <component glyphName="uni066E" x="-81" y="0" flags="0x4"/>
      <component glyphName="onedot.above" x="553" y="-1314" flags="0x4"/>
    </TTGlyph>
    <TTGlyph name="uni0628.fina" xMin="165" yMin="-521" xMax="2010" yMax="655">
      <component glyphName="uni066E.fina" x="-81" y="0" flags="0x4"/>
      <component glyphName="onedot.above" x="553" y="-1314" flags="0x4"/>
    </TTGlyph>
    <TTGlyph name="uni0628.init" xMin="-20" yMin="-521" xMax="541" yMax="881">
      <component glyphName="uni066E.init" x="0" y="0" flags="0x204"/>
      <component glyphName="onedot.above" x="-198" y="-1314" flags="0x4"/>
    </TTGlyph>
    <TTGlyph name="uni0628.medi" xMin="-20" yMin="-521" xMax="745" yMax="528">
      <component glyphName="uni066E.medi" x="0" y="0" flags="0x204"/>
      <component glyphName="onedot.above" x="-136" y="-1314" flags="0x4"/>
    </TTGlyph>
    <TTGlyph name="uni0629" xMin="165" yMin="-20" xMax="897" yMax="1485">
      <component glyphName="uni0647" x="37" y="0" flags="0x4"/>
      <component glyphName="twodots.above" x="-11" y="344" flags="0x4"/>
    </TTGlyph>
    <TTGlyph name="uni0629.fina" xMin="165" yMin="-20" xMax="1167" yMax="1561">
      <component glyphName="uni0647.fina" x="37" y="0" flags="0x4"/>
      <component glyphName="twodots.above" x="-11" y="420" flags="0x4"/>
    </TTGlyph>
    <TTGlyph name="uni062A" xMin="165" yMin="-20" xMax="1738" yMax="1141">
      <component glyphName="uni066E" x="-81" y="0" flags="0x4"/>
      <component glyphName="twodots.above" x="410" y="0" flags="0x4"/>
    </TTGlyph>
    <TTGlyph name="uni062A.fina" xMin="165" yMin="-20" xMax="2010" yMax="992">
      <component glyphName="uni066E.fina" x="-81" y="0" flags="0x4"/>
      <component glyphName="twodots.above" x="500" y="-149" flags="0x4"/>
    </TTGlyph>
    <TTGlyph name="uni062A.init" xMin="-20" yMin="-20" xMax="667" yMax="1385">
      <component glyphName="uni066E.init" x="0" y="0" flags="0x4"/>
      <component glyphName="twodots.above" x="-175" y="244" flags="0x4"/>
    </TTGlyph>
    <TTGlyph name="uni062A.medi" xMin="-20" yMin="-20" xMax="909" yMax="1044">
      <component glyphName="beh_dotless_alt.medi" x="0" y="0" flags="0x204"/>
      <component glyphName="twodots.above" x="-93" y="-97" flags="0x4"/>
    </TTGlyph>
    <TTGlyph name="uni062B" xMin="165" yMin="-20" xMax="1738" yMax="1378">
      <component glyphName="uni066E" x="-81" y="0" flags="0x4"/>
      <component glyphName="threedots.above" x="334" y="0" flags="0x4"/>
    </TTGlyph>
    <TTGlyph name="uni062B.fina" xMin="165" yMin="-20" xMax="2010" yMax="1229">
      <component glyphName="uni066E.fina" x="-81" y="0" flags="0x4"/>
      <component glyphName="threedots.above" x="424" y="-149" flags="0x4"/>
    </TTGlyph>
    <TTGlyph name="uni062B.init" xMin="-20" yMin="-20" xMax="677" yMax="1622">
      <component glyphName="uni066E.init" x="0" y="0" flags="0x4"/>
      <component glyphName="threedots.above" x="-253" y="244" flags="0x4"/>
    </TTGlyph>
    <TTGlyph name="uni062B.medi" xMin="-20" yMin="-20" xMax="909" yMax="1281">
      <component glyphName="beh_dotless_alt.medi" x="0" y="0" flags="0x204"/>
      <component glyphName="threedots.above" x="-171" y="-97" flags="0x4"/>
    </TTGlyph>
    <TTGlyph name="uni062C" xMin="164" yMin="-696" xMax="1491" yMax="963">
      <component glyphName="uni062D" x="0" y="0" flags="0x204"/>
      <component glyphName="onedot.above" x="379" y="-990" flags="0x4"/>
    </TTGlyph>
    <TTGlyph name="uni062C.fina" xMin="164" yMin="-895" xMax="1706" yMax="799">
      <component glyphName="uni062D.fina" x="0" y="0" flags="0x204"/>
      <component glyphName="onedot.above" x="348" y="-1259" flags="0x4"/>
    </TTGlyph>
    <TTGlyph name="uni062C.init" xMin="-20" yMin="-490" xMax="1450" yMax="799">
      <component glyphName="uni062D.init" x="0" y="0" flags="0x204"/>
      <component glyphName="onedot.above" x="274" y="-1283" flags="0x4"/>
    </TTGlyph>
    <TTGlyph name="uni062C.medi" xMin="-20" yMin="-490" xMax="1645" yMax="799">
      <component glyphName="uni062D.medi" x="0" y="0" flags="0x204"/>
      <component glyphName="onedot.above" x="274" y="-1283" flags="0x4"/>
    </TTGlyph>
    <TTGlyph name="uni062D" xMin="164" yMin="-696" xMax="1491" yMax="963">
      <contour>
        <pt x="328" y="-80" on="1"/>
        <pt x="328" y="-204" on="0"/>
        <pt x="457" y="-390" on="0"/>
        <pt x="721" y="-498" on="0"/>
        <pt x="874" y="-498" on="1"/>
        <pt x="1039" y="-498" on="0"/>
        <pt x="1319" y="-463" on="0"/>
        <pt x="1464" y="-430" on="1"/>
        <pt x="1491" y="-512" on="1"/>
        <pt x="1307" y="-613" on="0"/>
        <pt x="1007" y="-696" on="0"/>
        <pt x="868" y="-696" on="1"/>
        <pt x="572" y="-696" on="0"/>
        <pt x="242" y="-369" on="0"/>
        <pt x="242" y="-80" on="1"/>
        <pt x="242" y="164" on="0"/>
        <pt x="552" y="577" on="0"/>
        <pt x="801" y="674" on="1"/>
        <pt x="705" y="706" on="1"/>
        <pt x="545" y="762" on="0"/>
        <pt x="463" y="762" on="1"/>
        <pt x="350" y="762" on="0"/>
        <pt x="255" y="703" on="1"/>
        <pt x="199" y="668" on="1"/>
        <pt x="185" y="682" on="0"/>
        <pt x="164" y="733" on="0"/>
        <pt x="164" y="762" on="1"/>
        <pt x="164" y="854" on="0"/>
        <pt x="326" y="963" on="0"/>
        <pt x="455" y="963" on="1"/>
        <pt x="535" y="963" on="0"/>
        <pt x="728" y="922" on="0"/>
        <pt x="860" y="879" on="1"/>
        <pt x="1117" y="795" on="0"/>
        <pt x="1280" y="795" on="1"/>
        <pt x="1318" y="795" on="1"/>
        <pt x="1438" y="799" on="1"/>
        <pt x="1370" y="614" on="1"/>
        <pt x="1306" y="604" on="0"/>
        <pt x="1229" y="604" on="1"/>
        <pt x="1002" y="586" on="0"/>
        <pt x="558" y="376" on="0"/>
        <pt x="328" y="85" on="0"/>
      </contour>
    </TTGlyph>
    <TTGlyph name="uni062D.fina" xMin="164" yMin="-895" xMax="1706" yMax="799">
      <contour>
        <pt x="1686" y="-20" on="1"/>
        <pt x="1464" y="-20" on="0"/>
        <pt x="1267" y="11" on="0"/>
        <pt x="1147" y="85" on="0"/>
        <pt x="1061" y="225" on="0"/>
        <pt x="1026" y="344" on="1"/>
        <pt x="820" y="291" on="0"/>
        <pt x="496" y="96" on="0"/>
        <pt x="328" y="-147" on="0"/>
        <pt x="328" y="-283" on="1"/>
        <pt x="328" y="-476" on="0"/>
        <pt x="615" y="-696" on="0"/>
        <pt x="864" y="-696" on="1"/>
        <pt x="986" y="-696" on="0"/>
        <pt x="1213" y="-666" on="0"/>
        <pt x="1372" y="-629" on="1"/>
        <pt x="1399" y="-711" on="1"/>
        <pt x="1241" y="-797" on="0"/>
        <pt x="950" y="-895" on="0"/>
        <pt x="858" y="-895" on="1"/>
        <pt x="673" y="-895" on="0"/>
        <pt x="393" y="-743" on="0"/>
        <pt x="242" y="-463" on="0"/>
        <pt x="242" y="-283" on="1"/>
        <pt x="242" y="-128" on="0"/>
        <pt x="396" y="169" on="0"/>
        <pt x="676" y="403" on="0"/>
        <pt x="850" y="465" on="1"/>
        <pt x="740" y="512" on="1"/>
        <pt x="627" y="562" on="0"/>
        <pt x="507" y="598" on="0"/>
        <pt x="463" y="598" on="1"/>
        <pt x="350" y="598" on="0"/>
        <pt x="255" y="539" on="1"/>
        <pt x="199" y="504" on="1"/>
        <pt x="185" y="518" on="0"/>
        <pt x="164" y="569" on="0"/>
        <pt x="164" y="598" on="1"/>
        <pt x="164" y="690" on="0"/>
        <pt x="326" y="799" on="0"/>
        <pt x="455" y="799" on="1"/>
        <pt x="525" y="799" on="0"/>
        <pt x="692" y="748" on="0"/>
        <pt x="831" y="684" on="1"/>
        <pt x="1082" y="569" on="0"/>
        <pt x="1280" y="569" on="1"/>
        <pt x="1318" y="569" on="1"/>
        <pt x="1438" y="573" on="1"/>
        <pt x="1370" y="389" on="1"/>
        <pt x="1306" y="379" on="0"/>
        <pt x="1229" y="379" on="1"/>
        <pt x="1179" y="375" on="0"/>
        <pt x="1120" y="365" on="1"/>
        <pt x="1153" y="283" on="0"/>
        <pt x="1210" y="214" on="0"/>
        <pt x="1294" y="178" on="0"/>
        <pt x="1441" y="164" on="0"/>
        <pt x="1686" y="164" on="1"/>
        <pt x="1706" y="164" on="0"/>
        <pt x="1706" y="143" on="1"/>
        <pt x="1706" y="0" on="1"/>
        <pt x="1706" y="-20" on="0"/>
      </contour>
    </TTGlyph>
    <TTGlyph name="uni062D.init" xMin="-20" yMin="-20" xMax="1450" yMax="799">
      <contour>
        <pt x="0" y="-20" on="1"/>
        <pt x="-20" y="-20" on="0"/>
        <pt x="-20" y="0" on="1"/>
        <pt x="-20" y="143" on="1"/>
        <pt x="-20" y="164" on="0"/>
        <pt x="0" y="164" on="1"/>
        <pt x="356" y="164" on="0"/>
        <pt x="557" y="225" on="1"/>
        <pt x="667" y="261" on="1"/>
        <pt x="767" y="298" on="0"/>
        <pt x="877" y="332" on="0"/>
        <pt x="934" y="342" on="1"/>
        <pt x="857" y="378" on="0"/>
        <pt x="739" y="467" on="0"/>
        <pt x="634" y="545" on="0"/>
        <pt x="529" y="598" on="0"/>
        <pt x="465" y="598" on="1"/>
        <pt x="418" y="598" on="0"/>
        <pt x="345" y="582" on="0"/>
        <pt x="285" y="555" on="0"/>
        <pt x="201" y="504" on="1"/>
        <pt x="187" y="518" on="0"/>
        <pt x="166" y="569" on="0"/>
        <pt x="166" y="598" on="1"/>
        <pt x="166" y="690" on="0"/>
        <pt x="328" y="799" on="0"/>
        <pt x="457" y="799" on="1"/>
        <pt x="533" y="799" on="0"/>
        <pt x="689" y="733" on="0"/>
        <pt x="793" y="657" on="1"/>
        <pt x="912" y="570" on="0"/>
        <pt x="1081" y="478" on="0"/>
        <pt x="1275" y="430" on="0"/>
        <pt x="1450" y="432" on="1"/>
        <pt x="1358" y="254" on="1"/>
        <pt x="1210" y="268" on="1"/>
        <pt x="1102" y="265" on="0"/>
        <pt x="1007" y="245" on="0"/>
        <pt x="883" y="194" on="0"/>
        <pt x="770" y="135" on="1"/>
        <pt x="645" y="70" on="0"/>
        <pt x="444" y="5" on="0"/>
        <pt x="209" y="-20" on="0"/>
      </contour>
    </TTGlyph>
    <TTGlyph name="uni062D.medi" xMin="-20" yMin="-20" xMax="1645" yMax="799">
      <contour>
        <pt x="0" y="-20" on="1"/>
        <pt x="-20" y="-20" on="0"/>
        <pt x="-20" y="0" on="1"/>
        <pt x="-20" y="143" on="1"/>
        <pt x="-20" y="164" on="0"/>
        <pt x="0" y="164" on="1"/>
        <pt x="356" y="164" on="0"/>
        <pt x="557" y="225" on="1"/>
        <pt x="627" y="246" on="0"/>
        <pt x="754" y="300" on="1"/>
        <pt x="855" y="342" on="0"/>
        <pt x="932" y="358" on="1"/>
        <pt x="856" y="393" on="0"/>
        <pt x="738" y="477" on="0"/>
        <pt x="633" y="549" on="0"/>
        <pt x="528" y="598" on="0"/>
        <pt x="465" y="598" on="1"/>
        <pt x="418" y="598" on="0"/>
        <pt x="345" y="582" on="0"/>
        <pt x="285" y="555" on="0"/>
        <pt x="201" y="504" on="1"/>
        <pt x="187" y="518" on="0"/>
        <pt x="166" y="569" on="0"/>
        <pt x="166" y="598" on="1"/>
        <pt x="166" y="690" on="0"/>
        <pt x="328" y="799" on="0"/>
        <pt x="457" y="799" on="1"/>
        <pt x="534" y="799" on="0"/>
        <pt x="694" y="735" on="0"/>
        <pt x="793" y="668" on="1"/>
        <pt x="904" y="591" on="0"/>
        <pt x="1049" y="513" on="0"/>
        <pt x="1172" y="473" on="0"/>
        <pt x="1306" y="453" on="0"/>
        <pt x="1450" y="453" on="1"/>
        <pt x="1358" y="274" on="1"/>
        <pt x="1236" y="283" on="0"/>
        <pt x="1153" y="295" on="1"/>
        <pt x="1137" y="295" on="1"/>
        <pt x="1170" y="234" on="0"/>
        <pt x="1256" y="184" on="0"/>
        <pt x="1424" y="164" on="0"/>
        <pt x="1624" y="164" on="1"/>
        <pt x="1645" y="164" on="0"/>
        <pt x="1645" y="143" on="1"/>
        <pt x="1645" y="0" on="1"/>
        <pt x="1645" y="-20" on="0"/>
        <pt x="1624" y="-20" on="1"/>
        <pt x="1443" y="-19" on="0"/>
        <pt x="1220" y="35" on="0"/>
        <pt x="1081" y="149" on="0"/>
        <pt x="1028" y="266" on="1"/>
        <pt x="980" y="248" on="0"/>
        <pt x="920" y="215" on="1"/>
        <pt x="700" y="94" on="0"/>
        <pt x="479" y="12" on="0"/>
        <pt x="234" y="-20" on="0"/>
      </contour>
    </TTGlyph>
    <TTGlyph name="uni062E" xMin="164" yMin="-696" xMax="1491" yMax="1407">
      <component glyphName="uni062D" x="0" y="0" flags="0x204"/>
      <component glyphName="onedot.above" x="311" y="281" flags="0x4"/>
    </TTGlyph>
    <TTGlyph name="uni062E.fina" xMin="164" yMin="-895" xMax="1706" yMax="1214">
      <component glyphName="uni062D.fina" x="0" y="0" flags="0x204"/>
      <component glyphName="onedot.above" x="412" y="88" flags="0x4"/>
    </TTGlyph>
    <TTGlyph name="uni062E.init" xMin="-20" yMin="-20" xMax="1450" yMax="1214">
      <component glyphName="uni062D.init" x="0" y="0" flags="0x204"/>
      <component glyphName="onedot.above" x="475" y="88" flags="0x4"/>
    </TTGlyph>
    <TTGlyph name="uni062E.medi" xMin="-20" yMin="-20" xMax="1645" yMax="1214">
      <component glyphName="uni062D.medi" x="0" y="0" flags="0x204"/>
      <component glyphName="onedot.above" x="475" y="88" flags="0x4"/>
    </TTGlyph>
    <TTGlyph name="uni062F" xMin="82" yMin="-20" xMax="895" yMax="963">
      <contour>
        <pt x="377" y="-20" on="1"/>
        <pt x="232" y="-20" on="0"/>
        <pt x="82" y="58" on="0"/>
        <pt x="82" y="133" on="1"/>
        <pt x="82" y="168" on="0"/>
        <pt x="105" y="237" on="0"/>
        <pt x="125" y="260" on="1"/>
        <pt x="185" y="211" on="0"/>
        <pt x="339" y="164" on="0"/>
        <pt x="453" y="164" on="1"/>
        <pt x="621" y="164" on="0"/>
        <pt x="780" y="213" on="1"/>
        <pt x="740" y="324" on="0"/>
        <pt x="629" y="530" on="1"/>
        <pt x="586" y="609" on="1"/>
        <pt x="551" y="669" on="0"/>
        <pt x="520" y="757" on="0"/>
        <pt x="520" y="803" on="1"/>
        <pt x="520" y="862" on="0"/>
        <pt x="587" y="944" on="0"/>
        <pt x="647" y="963" on="1"/>
        <pt x="683" y="864" on="0"/>
        <pt x="769" y="680" on="0"/>
        <pt x="844" y="516" on="0"/>
        <pt x="895" y="374" on="0"/>
        <pt x="895" y="319" on="1"/>
        <pt x="895" y="242" on="0"/>
        <pt x="811" y="74" on="1"/>
        <pt x="629" y="-20" on="0"/>
      </contour>
    </TTGlyph>
    <TTGlyph name="uni062F.fina" xMin="82" yMin="-20" xMax="1182" yMax="963">
      <contour>
        <pt x="1161" y="-20" on="1"/>
        <pt x="976" y="-20" on="0"/>
        <pt x="864" y="106" on="1"/>
        <pt x="648" y="-20" on="0"/>
        <pt x="377" y="-20" on="1"/>
        <pt x="232" y="-20" on="0"/>
        <pt x="82" y="58" on="0"/>
        <pt x="82" y="133" on="1"/>
        <pt x="82" y="168" on="0"/>
        <pt x="105" y="237" on="0"/>
        <pt x="125" y="260" on="1"/>
        <pt x="185" y="211" on="0"/>
        <pt x="339" y="164" on="0"/>
        <pt x="453" y="164" on="1"/>
        <pt x="618" y="164" on="0"/>
        <pt x="786" y="213" on="1"/>
        <pt x="736" y="293" on="0"/>
        <pt x="620" y="556" on="0"/>
        <pt x="557" y="764" on="0"/>
        <pt x="557" y="803" on="1"/>
        <pt x="557" y="862" on="0"/>
        <pt x="624" y="944" on="0"/>
        <pt x="684" y="963" on="1"/>
        <pt x="756" y="698" on="0"/>
        <pt x="883" y="365" on="0"/>
        <pt x="1038" y="164" on="0"/>
        <pt x="1161" y="164" on="1"/>
        <pt x="1182" y="164" on="0"/>
        <pt x="1182" y="143" on="1"/>
        <pt x="1182" y="0" on="1"/>
        <pt x="1182" y="-20" on="0"/>
      </contour>
    </TTGlyph>
    <TTGlyph name="uni0630" xMin="82" yMin="-20" xMax="895" yMax="1437">
      <component glyphName="uni062F" x="0" y="0" flags="0x204"/>
      <component glyphName="onedot.above" x="86" y="311" flags="0x4"/>
    </TTGlyph>
    <TTGlyph name="uni0630.fina" xMin="82" yMin="-20" xMax="1182" yMax="1437">
      <component glyphName="uni062F.fina" x="0" y="0" flags="0x204"/>
      <component glyphName="onedot.above" x="86" y="311" flags="0x4"/>
    </TTGlyph>
    <TTGlyph name="uni0631" xMin="-82" yMin="-512" xMax="774" yMax="801">
      <contour>
        <pt x="233" y="-512" on="1"/>
        <pt x="179" y="-512" on="0"/>
        <pt x="-10" y="-431" on="0"/>
        <pt x="-82" y="-377" on="1"/>
        <pt x="-49" y="-297" on="1"/>
        <pt x="35" y="-314" on="0"/>
        <pt x="125" y="-324" on="0"/>
        <pt x="178" y="-324" on="1"/>
        <pt x="358" y="-324" on="0"/>
        <pt x="617" y="-109" on="0"/>
        <pt x="684" y="98" on="1"/>
        <pt x="662" y="153" on="0"/>
        <pt x="620" y="233" on="0"/>
        <pt x="570" y="320" on="1"/>
        <pt x="525" y="395" on="0"/>
        <pt x="449" y="572" on="0"/>
        <pt x="449" y="633" on="1"/>
        <pt x="449" y="694" on="0"/>
        <pt x="524" y="769" on="0"/>
        <pt x="590" y="801" on="1"/>
        <pt x="606" y="736" on="0"/>
        <pt x="658" y="601" on="1"/>
        <pt x="731" y="408" on="0"/>
        <pt x="774" y="234" on="0"/>
        <pt x="774" y="174" on="1"/>
        <pt x="774" y="-14" on="0"/>
        <pt x="633" y="-332" on="0"/>
        <pt x="384" y="-512" on="0"/>
      </contour>
    </TTGlyph>
    <TTGlyph name="uni0631.fina" xMin="-82" yMin="-512" xMax="981" yMax="801">
      <contour>
        <pt x="961" y="-20" on="1"/>
        <pt x="847" y="-20" on="0"/>
        <pt x="764" y="39" on="1"/>
        <pt x="725" y="-208" on="0"/>
        <pt x="434" y="-512" on="0"/>
        <pt x="233" y="-512" on="1"/>
        <pt x="179" y="-512" on="0"/>
        <pt x="-10" y="-431" on="0"/>
        <pt x="-82" y="-377" on="1"/>
        <pt x="-49" y="-297" on="1"/>
        <pt x="35" y="-314" on="0"/>
        <pt x="125" y="-324" on="0"/>
        <pt x="178" y="-324" on="1"/>
        <pt x="358" y="-324" on="0"/>
        <pt x="617" y="-109" on="0"/>
        <pt x="684" y="98" on="1"/>
        <pt x="662" y="153" on="0"/>
        <pt x="620" y="233" on="0"/>
        <pt x="570" y="320" on="1"/>
        <pt x="525" y="395" on="0"/>
        <pt x="449" y="572" on="0"/>
        <pt x="449" y="633" on="1"/>
        <pt x="449" y="694" on="0"/>
        <pt x="524" y="769" on="0"/>
        <pt x="590" y="801" on="1"/>
        <pt x="605" y="739" on="0"/>
        <pt x="662" y="590" on="0"/>
        <pt x="719" y="434" on="0"/>
        <pt x="766" y="279" on="0"/>
        <pt x="772" y="211" on="1"/>
        <pt x="856" y="164" on="0"/>
        <pt x="961" y="164" on="1"/>
        <pt x="981" y="164" on="0"/>
        <pt x="981" y="143" on="1"/>
        <pt x="981" y="0" on="1"/>
        <pt x="981" y="-20" on="0"/>
      </contour>
    </TTGlyph>
    <TTGlyph name="uni0632" xMin="-82" yMin="-512" xMax="774" yMax="1296">
      <component glyphName="uni0631" x="0" y="0" flags="0x204"/>
      <component glyphName="onedot.above" x="-11" y="170" flags="0x4"/>
    </TTGlyph>
    <TTGlyph name="uni0632.fina" xMin="-82" yMin="-512" xMax="981" yMax="1296">
      <component glyphName="uni0631.fina" x="0" y="0" flags="0x4"/>
      <component glyphName="onedot.above" x="-11" y="170" flags="0x4"/>
    </TTGlyph>
    <TTGlyph name="uni0633" xMin="164" yMin="-696" xMax="2318" yMax="799">
      <contour>
        <pt x="600" y="-696" on="1"/>
        <pt x="394" y="-696" on="0"/>
        <pt x="164" y="-459" on="0"/>
        <pt x="164" y="-244" on="1"/>
        <pt x="164" y="-169" on="0"/>
        <pt x="181" y="-56" on="0"/>
        <pt x="211" y="68" on="1"/>
        <pt x="299" y="47" on="1"/>
        <pt x="272" y="-56" on="0"/>
        <pt x="272" y="-125" on="1"/>
        <pt x="272" y="-303" on="0"/>
        <pt x="449" y="-498" on="0"/>
        <pt x="606" y="-498" on="1"/>
        <pt x="721" y="-498" on="0"/>
        <pt x="966" y="-420" on="0"/>
        <pt x="1160" y="-280" on="0"/>
        <pt x="1200" y="-197" on="1"/>
        <pt x="1042" y="149" on="0"/>
        <pt x="1042" y="264" on="1"/>
        <pt x="1042" y="390" on="0"/>
        <pt x="1200" y="479" on="1"/>
        <pt x="1210" y="390" on="0"/>
        <pt x="1251" y="188" on="1"/>
        <pt x="1325" y="164" on="0"/>
        <pt x="1403" y="164" on="1"/>
        <pt x="1539" y="164" on="0"/>
        <pt x="1616" y="188" on="1"/>
        <pt x="1630" y="211" on="0"/>
        <pt x="1644" y="257" on="1"/>
        <pt x="1674" y="355" on="1"/>
        <pt x="1708" y="467" on="0"/>
        <pt x="1755" y="562" on="0"/>
        <pt x="1801" y="586" on="0"/>
        <pt x="1828" y="587" on="1"/>
        <pt x="1861" y="587" on="0"/>
        <pt x="1884" y="569" on="1"/>
        <pt x="1853" y="503" on="0"/>
        <pt x="1803" y="341" on="0"/>
        <pt x="1780" y="262" on="1"/>
        <pt x="1888" y="212" on="0"/>
        <pt x="2085" y="170" on="0"/>
        <pt x="2204" y="170" on="1"/>
        <pt x="2175" y="276" on="0"/>
        <pt x="2114" y="434" on="1"/>
        <pt x="2066" y="557" on="0"/>
        <pt x="2066" y="596" on="1"/>
        <pt x="2066" y="651" on="0"/>
        <pt x="2154" y="761" on="0"/>
        <pt x="2224" y="799" on="1"/>
        <pt x="2235" y="729" on="0"/>
        <pt x="2267" y="590" on="0"/>
        <pt x="2297" y="456" on="0"/>
        <pt x="2318" y="331" on="0"/>
        <pt x="2318" y="276" on="1"/>
        <pt x="2318" y="232" on="0"/>
        <pt x="2261" y="48" on="0"/>
        <pt x="2226" y="-20" on="1"/>
        <pt x="2069" y="-20" on="0"/>
        <pt x="1850" y="20" on="0"/>
        <pt x="1714" y="84" on="1"/>
        <pt x="1694" y="45" on="1"/>
        <pt x="1677" y="16" on="0"/>
        <pt x="1503" y="-20" on="0"/>
        <pt x="1376" y="-20" on="1"/>
        <pt x="1324" y="-20" on="0"/>
        <pt x="1284" y="-12" on="1"/>
        <pt x="1290" y="-62" on="0"/>
        <pt x="1290" y="-106" on="1"/>
        <pt x="1290" y="-251" on="0"/>
        <pt x="1105" y="-521" on="0"/>
        <pt x="777" y="-696" on="0"/>
      </contour>
    </TTGlyph>
    <TTGlyph name="uni0633.fina" xMin="164" yMin="-696" xMax="2490" yMax="607">
      <contour>
        <pt x="2470" y="-20" on="1"/>
        <pt x="2377" y="-20" on="0"/>
        <pt x="2186" y="53" on="0"/>
        <pt x="2128" y="113" on="1"/>
        <pt x="2093" y="45" on="1"/>
        <pt x="2077" y="19" on="0"/>
        <pt x="1949" y="-20" on="0"/>
        <pt x="1880" y="-20" on="1"/>
        <pt x="1817" y="-20" on="0"/>
        <pt x="1727" y="13" on="0"/>
        <pt x="1686" y="41" on="1"/>
        <pt x="1664" y="15" on="0"/>
        <pt x="1515" y="-17" on="0"/>
        <pt x="1397" y="-20" on="1"/>
        <pt x="1345" y="-20" on="0"/>
        <pt x="1284" y="-8" on="1"/>
        <pt x="1290" y="-58" on="0"/>
        <pt x="1290" y="-106" on="1"/>
        <pt x="1290" y="-251" on="0"/>
        <pt x="1105" y="-521" on="0"/>
        <pt x="777" y="-696" on="0"/>
        <pt x="600" y="-696" on="1"/>
        <pt x="394" y="-696" on="0"/>
        <pt x="164" y="-459" on="0"/>
        <pt x="164" y="-244" on="1"/>
        <pt x="164" y="-169" on="0"/>
        <pt x="181" y="-56" on="0"/>
        <pt x="211" y="68" on="1"/>
        <pt x="299" y="47" on="1"/>
        <pt x="272" y="-56" on="0"/>
        <pt x="272" y="-125" on="1"/>
        <pt x="272" y="-303" on="0"/>
        <pt x="449" y="-498" on="0"/>
        <pt x="606" y="-498" on="1"/>
        <pt x="721" y="-498" on="0"/>
        <pt x="966" y="-420" on="0"/>
        <pt x="1160" y="-280" on="0"/>
        <pt x="1200" y="-197" on="1"/>
        <pt x="1042" y="149" on="0"/>
        <pt x="1042" y="264" on="1"/>
        <pt x="1042" y="390" on="0"/>
        <pt x="1200" y="479" on="1"/>
        <pt x="1209" y="395" on="0"/>
        <pt x="1253" y="180" on="1"/>
        <pt x="1326" y="164" on="0"/>
        <pt x="1423" y="164" on="1"/>
        <pt x="1537" y="164" on="0"/>
        <pt x="1612" y="188" on="1"/>
        <pt x="1628" y="215" on="0"/>
        <pt x="1670" y="355" on="1"/>
        <pt x="1699" y="456" on="0"/>
        <pt x="1750" y="561" on="0"/>
        <pt x="1798" y="587" on="0"/>
        <pt x="1824" y="587" on="1"/>
        <pt x="1857" y="587" on="0"/>
        <pt x="1880" y="569" on="1"/>
        <pt x="1843" y="486" on="0"/>
        <pt x="1785" y="292" on="1"/>
        <pt x="1755" y="199" on="1"/>
        <pt x="1793" y="180" on="0"/>
        <pt x="1849" y="170" on="0"/>
        <pt x="1884" y="170" on="1"/>
        <pt x="1942" y="170" on="0"/>
        <pt x="2017" y="195" on="1"/>
        <pt x="2034" y="223" on="0"/>
        <pt x="2086" y="368" on="1"/>
        <pt x="2129" y="491" on="0"/>
        <pt x="2175" y="584" on="0"/>
        <pt x="2217" y="607" on="0"/>
        <pt x="2243" y="607" on="1"/>
        <pt x="2280" y="607" on="0"/>
        <pt x="2302" y="590" on="1"/>
        <pt x="2291" y="565" on="0"/>
        <pt x="2270" y="508" on="0"/>
        <pt x="2181" y="248" on="1"/>
        <pt x="2238" y="210" on="0"/>
        <pt x="2373" y="164" on="0"/>
        <pt x="2470" y="164" on="1"/>
        <pt x="2490" y="164" on="0"/>
        <pt x="2490" y="143" on="1"/>
        <pt x="2490" y="0" on="1"/>
        <pt x="2490" y="-20" on="0"/>
      </contour>
    </TTGlyph>
    <TTGlyph name="uni0633.init" xMin="-20" yMin="-20" xMax="1462" yMax="799">
      <contour>
        <pt x="545" y="-20" on="1"/>
        <pt x="477" y="-20" on="0"/>
        <pt x="303" y="22" on="0"/>
        <pt x="250" y="53" on="1"/>
        <pt x="171" y="-20" on="0"/>
        <pt x="0" y="-20" on="1"/>
        <pt x="-20" y="-20" on="0"/>
        <pt x="-20" y="0" on="1"/>
        <pt x="-20" y="143" on="1"/>
        <pt x="-20" y="164" on="0"/>
        <pt x="0" y="164" on="1"/>
        <pt x="67" y="164" on="0"/>
        <pt x="155" y="189" on="0"/>
        <pt x="195" y="219" on="1"/>
        <pt x="226" y="244" on="0"/>
        <pt x="265" y="293" on="0"/>
        <pt x="324" y="393" on="1"/>
        <pt x="345" y="431" on="0"/>
        <pt x="398" y="431" on="1"/>
        <pt x="435" y="431" on="0"/>
        <pt x="457" y="414" on="1"/>
        <pt x="388" y="249" on="0"/>
        <pt x="356" y="193" on="1"/>
        <pt x="438" y="164" on="0"/>
        <pt x="571" y="164" on="1"/>
        <pt x="685" y="164" on="0"/>
        <pt x="760" y="188" on="1"/>
        <pt x="776" y="215" on="0"/>
        <pt x="818" y="355" on="1"/>
        <pt x="847" y="456" on="0"/>
        <pt x="898" y="561" on="0"/>
        <pt x="946" y="587" on="0"/>
        <pt x="972" y="587" on="1"/>
        <pt x="1005" y="587" on="0"/>
        <pt x="1028" y="569" on="1"/>
        <pt x="997" y="503" on="0"/>
        <pt x="947" y="341" on="0"/>
        <pt x="924" y="262" on="1"/>
        <pt x="1032" y="212" on="0"/>
        <pt x="1229" y="170" on="0"/>
        <pt x="1348" y="170" on="1"/>
        <pt x="1320" y="276" on="0"/>
        <pt x="1258" y="434" on="1"/>
        <pt x="1210" y="557" on="0"/>
        <pt x="1210" y="596" on="1"/>
        <pt x="1210" y="651" on="0"/>
        <pt x="1298" y="761" on="0"/>
        <pt x="1368" y="799" on="1"/>
        <pt x="1379" y="729" on="0"/>
        <pt x="1411" y="590" on="0"/>
        <pt x="1441" y="456" on="0"/>
        <pt x="1462" y="331" on="0"/>
        <pt x="1462" y="276" on="1"/>
        <pt x="1462" y="232" on="0"/>
        <pt x="1405" y="48" on="0"/>
        <pt x="1370" y="-20" on="1"/>
        <pt x="1213" y="-20" on="0"/>
        <pt x="994" y="20" on="0"/>
        <pt x="858" y="84" on="1"/>
        <pt x="838" y="45" on="1"/>
        <pt x="820" y="18" on="0"/>
        <pt x="661" y="-18" on="0"/>
      </contour>
    </TTGlyph>
    <TTGlyph name="uni0633.medi" xMin="-20" yMin="-20" xMax="1638" yMax="607">
      <contour>
        <pt x="1618" y="-20" on="1"/>
        <pt x="1525" y="-20" on="0"/>
        <pt x="1334" y="53" on="0"/>
        <pt x="1276" y="113" on="1"/>
        <pt x="1241" y="45" on="1"/>
        <pt x="1225" y="18" on="0"/>
        <pt x="1095" y="-20" on="0"/>
        <pt x="1028" y="-20" on="1"/>
        <pt x="965" y="-20" on="0"/>
        <pt x="875" y="13" on="0"/>
        <pt x="834" y="41" on="1"/>
        <pt x="812" y="15" on="0"/>
        <pt x="663" y="-17" on="0"/>
        <pt x="545" y="-20" on="1"/>
        <pt x="477" y="-20" on="0"/>
        <pt x="303" y="22" on="0"/>
        <pt x="250" y="53" on="1"/>
        <pt x="171" y="-20" on="0"/>
        <pt x="0" y="-20" on="1"/>
        <pt x="-20" y="-20" on="0"/>
        <pt x="-20" y="0" on="1"/>
        <pt x="-20" y="143" on="1"/>
        <pt x="-20" y="164" on="0"/>
        <pt x="0" y="164" on="1"/>
        <pt x="67" y="164" on="0"/>
        <pt x="155" y="189" on="0"/>
        <pt x="195" y="219" on="1"/>
        <pt x="226" y="244" on="0"/>
        <pt x="265" y="293" on="0"/>
        <pt x="324" y="393" on="1"/>
        <pt x="345" y="431" on="0"/>
        <pt x="398" y="431" on="1"/>
        <pt x="435" y="431" on="0"/>
        <pt x="457" y="414" on="1"/>
        <pt x="388" y="249" on="0"/>
        <pt x="356" y="193" on="1"/>
        <pt x="438" y="164" on="0"/>
        <pt x="571" y="164" on="1"/>
        <pt x="685" y="164" on="0"/>
        <pt x="760" y="188" on="1"/>
        <pt x="776" y="215" on="0"/>
        <pt x="818" y="355" on="1"/>
        <pt x="847" y="456" on="0"/>
        <pt x="898" y="561" on="0"/>
        <pt x="946" y="587" on="0"/>
        <pt x="972" y="587" on="1"/>
        <pt x="1005" y="587" on="0"/>
        <pt x="1028" y="569" on="1"/>
        <pt x="991" y="486" on="0"/>
        <pt x="933" y="292" on="1"/>
        <pt x="903" y="199" on="1"/>
        <pt x="941" y="180" on="0"/>
        <pt x="997" y="170" on="0"/>
        <pt x="1032" y="170" on="1"/>
        <pt x="1090" y="170" on="0"/>
        <pt x="1165" y="195" on="1"/>
        <pt x="1182" y="223" on="0"/>
        <pt x="1234" y="368" on="1"/>
        <pt x="1284" y="512" on="0"/>
        <pt x="1317" y="569" on="1"/>
        <pt x="1340" y="607" on="0"/>
        <pt x="1391" y="607" on="1"/>
        <pt x="1428" y="607" on="0"/>
        <pt x="1450" y="590" on="1"/>
        <pt x="1439" y="565" on="0"/>
        <pt x="1418" y="508" on="0"/>
        <pt x="1329" y="248" on="1"/>
        <pt x="1386" y="210" on="0"/>
        <pt x="1521" y="164" on="0"/>
        <pt x="1618" y="164" on="1"/>
        <pt x="1638" y="164" on="0"/>
        <pt x="1638" y="143" on="1"/>
        <pt x="1638" y="0" on="1"/>
        <pt x="1638" y="-20" on="0"/>
      </contour>
    </TTGlyph>
    <TTGlyph name="uni0634" xMin="164" yMin="-696" xMax="2318" yMax="1378">
      <component glyphName="uni0633" x="0" y="0" flags="0x204"/>
      <component glyphName="threedots.above" x="1163" y="0" flags="0x4"/>
    </TTGlyph>
    <TTGlyph name="uni0634.fina" xMin="164" yMin="-696" xMax="2490" yMax="1378">
      <component glyphName="uni0633.fina" x="0" y="0" flags="0x204"/>
      <component glyphName="threedots.above" x="1145" y="0" flags="0x4"/>
    </TTGlyph>
    <TTGlyph name="uni0634.init" xMin="-20" yMin="-20" xMax="1462" yMax="1378">
      <component glyphName="uni0633.init" x="0" y="0" flags="0x204"/>
      <component glyphName="threedots.above" x="270" y="0" flags="0x4"/>
    </TTGlyph>
    <TTGlyph name="uni0634.medi" xMin="-20" yMin="-20" xMax="1638" yMax="1378">
      <component glyphName="uni0633.medi" x="0" y="0" flags="0x204"/>
      <component glyphName="threedots.above" x="240" y="0" flags="0x4"/>
    </TTGlyph>
    <TTGlyph name="uni0635" xMin="164" yMin="-696" xMax="2517" yMax="840">
      <contour>
        <pt x="600" y="-696" on="1"/>
        <pt x="394" y="-696" on="0"/>
        <pt x="164" y="-459" on="0"/>
        <pt x="164" y="-244" on="1"/>
        <pt x="164" y="-169" on="0"/>
        <pt x="181" y="-56" on="0"/>
        <pt x="211" y="68" on="1"/>
        <pt x="299" y="47" on="1"/>
        <pt x="272" y="-56" on="0"/>
        <pt x="272" y="-125" on="1"/>
        <pt x="272" y="-303" on="0"/>
        <pt x="449" y="-498" on="0"/>
        <pt x="606" y="-498" on="1"/>
        <pt x="721" y="-498" on="0"/>
        <pt x="966" y="-420" on="0"/>
        <pt x="1160" y="-280" on="0"/>
        <pt x="1200" y="-197" on="1"/>
        <pt x="1042" y="149" on="0"/>
        <pt x="1042" y="264" on="1"/>
        <pt x="1042" y="390" on="0"/>
        <pt x="1200" y="479" on="1"/>
        <pt x="1217" y="353" on="0"/>
        <pt x="1237" y="254" on="1"/>
        <pt x="1249" y="248" on="0"/>
        <pt x="1305" y="227" on="1"/>
        <pt x="1527" y="526" on="0"/>
        <pt x="1928" y="840" on="0"/>
        <pt x="2091" y="840" on="1"/>
        <pt x="2165" y="840" on="0"/>
        <pt x="2375" y="717" on="0"/>
        <pt x="2517" y="551" on="0"/>
        <pt x="2517" y="489" on="1"/>
        <pt x="2517" y="341" on="0"/>
        <pt x="2329" y="115" on="0"/>
        <pt x="1949" y="-20" on="0"/>
        <pt x="1741" y="-20" on="1"/>
        <pt x="1643" y="-20" on="0"/>
        <pt x="1374" y="13" on="0"/>
        <pt x="1278" y="41" on="1"/>
        <pt x="1290" y="-48" on="0"/>
        <pt x="1290" y="-106" on="1"/>
        <pt x="1290" y="-251" on="0"/>
        <pt x="1105" y="-521" on="0"/>
        <pt x="777" y="-696" on="0"/>
      </contour>
      <contour>
        <pt x="2032" y="639" on="1"/>
        <pt x="1917" y="639" on="0"/>
        <pt x="1595" y="412" on="0"/>
        <pt x="1415" y="199" on="1"/>
        <pt x="1583" y="164" on="0"/>
        <pt x="1765" y="164" on="1"/>
        <pt x="1933" y="164" on="0"/>
        <pt x="2248" y="269" on="0"/>
        <pt x="2408" y="369" on="1"/>
        <pt x="2340" y="492" on="0"/>
        <pt x="2131" y="639" on="0"/>
      </contour>
    </TTGlyph>
    <TTGlyph name="uni0635.fina" xMin="164" yMin="-696" xMax="2689" yMax="840">
      <contour>
        <pt x="600" y="-696" on="1"/>
        <pt x="394" y="-696" on="0"/>
        <pt x="164" y="-459" on="0"/>
        <pt x="164" y="-244" on="1"/>
        <pt x="164" y="-169" on="0"/>
        <pt x="181" y="-56" on="0"/>
        <pt x="211" y="68" on="1"/>
        <pt x="299" y="47" on="1"/>
        <pt x="272" y="-56" on="0"/>
        <pt x="272" y="-125" on="1"/>
        <pt x="272" y="-303" on="0"/>
        <pt x="449" y="-498" on="0"/>
        <pt x="606" y="-498" on="1"/>
        <pt x="721" y="-498" on="0"/>
        <pt x="966" y="-420" on="0"/>
        <pt x="1160" y="-280" on="0"/>
        <pt x="1200" y="-197" on="1"/>
        <pt x="1042" y="149" on="0"/>
        <pt x="1042" y="264" on="1"/>
        <pt x="1042" y="390" on="0"/>
        <pt x="1200" y="479" on="1"/>
        <pt x="1217" y="353" on="0"/>
        <pt x="1237" y="254" on="1"/>
        <pt x="1249" y="248" on="0"/>
        <pt x="1305" y="227" on="1"/>
        <pt x="1527" y="526" on="0"/>
        <pt x="1928" y="840" on="0"/>
        <pt x="2091" y="840" on="1"/>
        <pt x="2165" y="840" on="0"/>
        <pt x="2375" y="717" on="0"/>
        <pt x="2517" y="551" on="0"/>
        <pt x="2517" y="489" on="1"/>
        <pt x="2517" y="336" on="0"/>
        <pt x="2421" y="223" on="1"/>
        <pt x="2524" y="164" on="0"/>
        <pt x="2669" y="164" on="1"/>
        <pt x="2689" y="164" on="0"/>
        <pt x="2689" y="143" on="1"/>
        <pt x="2689" y="0" on="1"/>
        <pt x="2689" y="-20" on="0"/>
        <pt x="2669" y="-20" on="1"/>
        <pt x="2569" y="-20" on="0"/>
        <pt x="2372" y="57" on="0"/>
        <pt x="2304" y="125" on="1"/>
        <pt x="2202" y="59" on="0"/>
        <pt x="1897" y="-20" on="0"/>
        <pt x="1741" y="-20" on="1"/>
        <pt x="1643" y="-20" on="0"/>
        <pt x="1374" y="13" on="0"/>
        <pt x="1278" y="41" on="1"/>
        <pt x="1290" y="-48" on="0"/>
        <pt x="1290" y="-106" on="1"/>
        <pt x="1290" y="-251" on="0"/>
        <pt x="1105" y="-521" on="0"/>
        <pt x="777" y="-696" on="0"/>
      </contour>
      <contour>
        <pt x="2032" y="639" on="1"/>
        <pt x="1917" y="639" on="0"/>
        <pt x="1595" y="412" on="0"/>
        <pt x="1415" y="199" on="1"/>
        <pt x="1583" y="164" on="0"/>
        <pt x="1765" y="164" on="1"/>
        <pt x="1933" y="164" on="0"/>
        <pt x="2248" y="269" on="0"/>
        <pt x="2408" y="369" on="1"/>
        <pt x="2340" y="492" on="0"/>
        <pt x="2131" y="639" on="0"/>
      </contour>
    </TTGlyph>
    <TTGlyph name="uni0635.init" xMin="-20" yMin="-20" xMax="1731" yMax="840">
      <contour>
        <pt x="414" y="464" on="1"/>
        <pt x="449" y="464" on="0"/>
        <pt x="471" y="442" on="1"/>
        <pt x="399" y="276" on="1"/>
        <pt x="453" y="250" on="0"/>
        <pt x="518" y="227" on="1"/>
        <pt x="978" y="840" on="0"/>
        <pt x="1305" y="840" on="1"/>
        <pt x="1380" y="840" on="0"/>
        <pt x="1592" y="714" on="0"/>
        <pt x="1731" y="548" on="0"/>
        <pt x="1731" y="489" on="1"/>
        <pt x="1731" y="342" on="0"/>
        <pt x="1544" y="116" on="0"/>
        <pt x="1164" y="-20" on="0"/>
        <pt x="954" y="-20" on="1"/>
        <pt x="773" y="-20" on="0"/>
        <pt x="409" y="57" on="0"/>
        <pt x="305" y="117" on="1"/>
        <pt x="285" y="91" on="1"/>
        <pt x="237" y="31" on="0"/>
        <pt x="97" y="-20" on="0"/>
        <pt x="0" y="-20" on="1"/>
        <pt x="-20" y="-20" on="0"/>
        <pt x="-20" y="0" on="1"/>
        <pt x="-20" y="143" on="1"/>
        <pt x="-20" y="164" on="0"/>
        <pt x="0" y="164" on="1"/>
        <pt x="84" y="164" on="0"/>
        <pt x="188" y="206" on="0"/>
        <pt x="263" y="289" on="0"/>
        <pt x="338" y="422" on="1"/>
        <pt x="364" y="464" on="0"/>
      </contour>
      <contour>
        <pt x="1245" y="639" on="1"/>
        <pt x="1131" y="639" on="0"/>
        <pt x="810" y="414" on="0"/>
        <pt x="631" y="199" on="1"/>
        <pt x="790" y="164" on="0"/>
        <pt x="979" y="164" on="1"/>
        <pt x="1294" y="164" on="0"/>
        <pt x="1622" y="369" on="1"/>
        <pt x="1554" y="492" on="0"/>
        <pt x="1345" y="639" on="0"/>
      </contour>
    </TTGlyph>
    <TTGlyph name="uni0635.medi" xMin="-20" yMin="-20" xMax="1915" yMax="840">
      <contour>
        <pt x="1894" y="-20" on="1"/>
        <pt x="1792" y="-20" on="0"/>
        <pt x="1592" y="61" on="0"/>
        <pt x="1526" y="131" on="1"/>
        <pt x="1421" y="61" on="0"/>
        <pt x="1108" y="-20" on="0"/>
        <pt x="954" y="-20" on="1"/>
        <pt x="773" y="-20" on="0"/>
        <pt x="409" y="57" on="0"/>
        <pt x="305" y="117" on="1"/>
        <pt x="285" y="91" on="1"/>
        <pt x="237" y="31" on="0"/>
        <pt x="97" y="-20" on="0"/>
        <pt x="0" y="-20" on="1"/>
        <pt x="-20" y="-20" on="0"/>
        <pt x="-20" y="0" on="1"/>
        <pt x="-20" y="143" on="1"/>
        <pt x="-20" y="164" on="0"/>
        <pt x="0" y="164" on="1"/>
        <pt x="84" y="164" on="0"/>
        <pt x="188" y="206" on="0"/>
        <pt x="263" y="289" on="0"/>
        <pt x="338" y="422" on="1"/>
        <pt x="364" y="464" on="0"/>
        <pt x="414" y="464" on="1"/>
        <pt x="449" y="464" on="0"/>
        <pt x="471" y="442" on="1"/>
        <pt x="399" y="276" on="1"/>
        <pt x="453" y="250" on="0"/>
        <pt x="518" y="227" on="1"/>
        <pt x="978" y="840" on="0"/>
        <pt x="1305" y="840" on="1"/>
        <pt x="1380" y="840" on="0"/>
        <pt x="1592" y="714" on="0"/>
        <pt x="1731" y="548" on="0"/>
        <pt x="1731" y="489" on="1"/>
        <pt x="1731" y="339" on="0"/>
        <pt x="1636" y="229" on="1"/>
        <pt x="1747" y="164" on="0"/>
        <pt x="1894" y="164" on="1"/>
        <pt x="1915" y="164" on="0"/>
        <pt x="1915" y="143" on="1"/>
        <pt x="1915" y="0" on="1"/>
        <pt x="1915" y="-20" on="0"/>
      </contour>
      <contour>
        <pt x="1245" y="639" on="1"/>
        <pt x="1131" y="639" on="0"/>
        <pt x="810" y="414" on="0"/>
        <pt x="631" y="199" on="1"/>
        <pt x="790" y="164" on="0"/>
        <pt x="979" y="164" on="1"/>
        <pt x="1294" y="164" on="0"/>
        <pt x="1622" y="369" on="1"/>
        <pt x="1554" y="492" on="0"/>
        <pt x="1345" y="639" on="0"/>
      </contour>
    </TTGlyph>
    <TTGlyph name="uni0636" xMin="164" yMin="-696" xMax="2517" yMax="1269">
      <component glyphName="uni0635" x="0" y="0" flags="0x204"/>
      <component glyphName="onedot.above" x="1227" y="143" flags="0x4"/>
    </TTGlyph>
    <TTGlyph name="uni0636.fina" xMin="164" yMin="-696" xMax="2689" yMax="1269">
      <component glyphName="uni0635.fina" x="0" y="0" flags="0x4"/>
      <component glyphName="onedot.above" x="1227" y="143" flags="0x4"/>
    </TTGlyph>
    <TTGlyph name="uni0636.init" xMin="-20" yMin="-20" xMax="1731" yMax="1269">
      <component glyphName="uni0635.init" x="0" y="0" flags="0x204"/>
      <component glyphName="onedot.above" x="408" y="143" flags="0x4"/>
    </TTGlyph>
    <TTGlyph name="uni0636.medi" xMin="-20" yMin="-20" xMax="1915" yMax="1269">
      <component glyphName="uni0635.medi" x="0" y="0" flags="0x4"/>
      <component glyphName="onedot.above" x="418" y="143" flags="0x4"/>
    </TTGlyph>
    <TTGlyph name="uni0637" xMin="102" yMin="-20" xMax="1731" yMax="1597">
      <contour>
        <pt x="954" y="-20" on="1"/>
        <pt x="854" y="-20" on="0"/>
        <pt x="496" y="-3" on="0"/>
        <pt x="428" y="18" on="1"/>
        <pt x="376" y="33" on="0"/>
        <pt x="176" y="136" on="0"/>
        <pt x="102" y="188" on="1"/>
        <pt x="127" y="272" on="1"/>
        <pt x="399" y="210" on="0"/>
        <pt x="494" y="197" on="1"/>
        <pt x="554" y="278" on="0"/>
        <pt x="631" y="371" on="1"/>
        <pt x="561" y="784" on="1"/>
        <pt x="517" y="1020" on="0"/>
        <pt x="476" y="1345" on="0"/>
        <pt x="476" y="1405" on="1"/>
        <pt x="476" y="1486" on="0"/>
        <pt x="551" y="1580" on="0"/>
        <pt x="635" y="1597" on="1"/>
        <pt x="658" y="1506" on="0"/>
        <pt x="678" y="1446" on="1"/>
        <pt x="721" y="1311" on="1"/>
        <pt x="657" y="1255" on="1"/>
        <pt x="670" y="1068" on="0"/>
        <pt x="707" y="782" on="1"/>
        <pt x="723" y="612" on="0"/>
        <pt x="729" y="481" on="1"/>
        <pt x="893" y="655" on="0"/>
        <pt x="1186" y="840" on="0"/>
        <pt x="1305" y="840" on="1"/>
        <pt x="1380" y="840" on="0"/>
        <pt x="1592" y="714" on="0"/>
        <pt x="1731" y="548" on="0"/>
        <pt x="1731" y="489" on="1"/>
        <pt x="1731" y="342" on="0"/>
        <pt x="1544" y="116" on="0"/>
        <pt x="1164" y="-20" on="0"/>
      </contour>
      <contour>
        <pt x="1245" y="639" on="1"/>
        <pt x="1126" y="639" on="0"/>
        <pt x="796" y="401" on="0"/>
        <pt x="614" y="180" on="1"/>
        <pt x="772" y="164" on="0"/>
        <pt x="979" y="164" on="1"/>
        <pt x="1294" y="164" on="0"/>
        <pt x="1622" y="369" on="1"/>
        <pt x="1554" y="492" on="0"/>
        <pt x="1345" y="639" on="0"/>
      </contour>
    </TTGlyph>
    <TTGlyph name="uni0637.fina" xMin="102" yMin="-20" xMax="1909" yMax="1597">
      <contour>
        <pt x="954" y="-20" on="1"/>
        <pt x="854" y="-20" on="0"/>
        <pt x="496" y="-3" on="0"/>
        <pt x="428" y="18" on="1"/>
        <pt x="376" y="33" on="0"/>
        <pt x="176" y="136" on="0"/>
        <pt x="102" y="188" on="1"/>
        <pt x="127" y="272" on="1"/>
        <pt x="399" y="210" on="0"/>
        <pt x="494" y="197" on="1"/>
        <pt x="554" y="278" on="0"/>
        <pt x="631" y="371" on="1"/>
        <pt x="561" y="784" on="1"/>
        <pt x="517" y="1020" on="0"/>
        <pt x="476" y="1345" on="0"/>
        <pt x="476" y="1405" on="1"/>
        <pt x="476" y="1486" on="0"/>
        <pt x="551" y="1580" on="0"/>
        <pt x="635" y="1597" on="1"/>
        <pt x="658" y="1506" on="0"/>
        <pt x="678" y="1446" on="1"/>
        <pt x="721" y="1311" on="1"/>
        <pt x="657" y="1255" on="1"/>
        <pt x="670" y="1068" on="0"/>
        <pt x="707" y="782" on="1"/>
        <pt x="723" y="612" on="0"/>
        <pt x="729" y="481" on="1"/>
        <pt x="893" y="655" on="0"/>
        <pt x="1186" y="840" on="0"/>
        <pt x="1305" y="840" on="1"/>
        <pt x="1380" y="840" on="0"/>
        <pt x="1592" y="714" on="0"/>
        <pt x="1731" y="548" on="0"/>
        <pt x="1731" y="489" on="1"/>
        <pt x="1731" y="337" on="0"/>
        <pt x="1636" y="227" on="1"/>
        <pt x="1747" y="164" on="0"/>
        <pt x="1888" y="164" on="1"/>
        <pt x="1909" y="164" on="0"/>
        <pt x="1909" y="143" on="1"/>
        <pt x="1909" y="0" on="1"/>
        <pt x="1909" y="-20" on="0"/>
        <pt x="1888" y="-20" on="1"/>
        <pt x="1789" y="-20" on="0"/>
        <pt x="1588" y="60" on="0"/>
        <pt x="1522" y="129" on="1"/>
        <pt x="1412" y="58" on="0"/>
        <pt x="1108" y="-20" on="0"/>
      </contour>
      <contour>
        <pt x="1245" y="639" on="1"/>
        <pt x="1126" y="639" on="0"/>
        <pt x="796" y="401" on="0"/>
        <pt x="614" y="180" on="1"/>
        <pt x="772" y="164" on="0"/>
        <pt x="979" y="164" on="1"/>
        <pt x="1294" y="164" on="0"/>
        <pt x="1622" y="369" on="1"/>
        <pt x="1554" y="492" on="0"/>
        <pt x="1345" y="639" on="0"/>
      </contour>
    </TTGlyph>
    <TTGlyph name="uni0637.init" xMin="-20" yMin="-20" xMax="1468" yMax="1597">
      <contour>
        <pt x="1468" y="518" on="1"/>
        <pt x="1468" y="346" on="0"/>
        <pt x="1150" y="106" on="0"/>
        <pt x="503" y="-20" on="0"/>
        <pt x="0" y="-20" on="1"/>
        <pt x="-20" y="-20" on="0"/>
        <pt x="-20" y="0" on="1"/>
        <pt x="-20" y="143" on="1"/>
        <pt x="-20" y="164" on="0"/>
        <pt x="0" y="164" on="1"/>
        <pt x="91" y="164" on="1"/>
        <pt x="207" y="166" on="1"/>
        <pt x="294" y="288" on="0"/>
        <pt x="362" y="369" on="1"/>
        <pt x="291" y="784" on="1"/>
        <pt x="247" y="1020" on="0"/>
        <pt x="206" y="1345" on="0"/>
        <pt x="206" y="1405" on="1"/>
        <pt x="206" y="1486" on="0"/>
        <pt x="281" y="1580" on="0"/>
        <pt x="365" y="1597" on="1"/>
        <pt x="394" y="1482" on="0"/>
        <pt x="428" y="1384" on="1"/>
        <pt x="451" y="1311" on="1"/>
        <pt x="387" y="1255" on="1"/>
        <pt x="396" y="1125" on="0"/>
        <pt x="426" y="870" on="1"/>
        <pt x="445" y="697" on="0"/>
        <pt x="455" y="572" on="0"/>
        <pt x="459" y="481" on="1"/>
        <pt x="629" y="668" on="0"/>
        <pt x="930" y="868" on="0"/>
        <pt x="1042" y="868" on="1"/>
        <pt x="1116" y="868" on="0"/>
        <pt x="1324" y="746" on="0"/>
        <pt x="1468" y="580" on="0"/>
      </contour>
      <contour>
        <pt x="983" y="668" on="1"/>
        <pt x="872" y="668" on="0"/>
        <pt x="530" y="400" on="0"/>
        <pt x="340" y="168" on="1"/>
        <pt x="564" y="175" on="0"/>
        <pt x="692" y="193" on="1"/>
        <pt x="845" y="211" on="0"/>
        <pt x="979" y="243" on="0"/>
        <pt x="1101" y="287" on="0"/>
        <pt x="1248" y="355" on="0"/>
        <pt x="1358" y="412" on="1"/>
        <pt x="1286" y="535" on="0"/>
        <pt x="1090" y="668" on="0"/>
      </contour>
    </TTGlyph>
    <TTGlyph name="uni0637.medi" xMin="-20" yMin="-20" xMax="1556" yMax="1597">
      <contour>
        <pt x="1536" y="-20" on="1"/>
        <pt x="1428" y="-20" on="0"/>
        <pt x="1221" y="67" on="0"/>
        <pt x="1159" y="139" on="1"/>
        <pt x="792" y="-20" on="0"/>
        <pt x="0" y="-20" on="1"/>
        <pt x="-20" y="-20" on="0"/>
        <pt x="-20" y="0" on="1"/>
        <pt x="-20" y="143" on="1"/>
        <pt x="-20" y="164" on="0"/>
        <pt x="0" y="164" on="1"/>
        <pt x="91" y="164" on="1"/>
        <pt x="207" y="166" on="1"/>
        <pt x="294" y="288" on="0"/>
        <pt x="362" y="369" on="1"/>
        <pt x="291" y="784" on="1"/>
        <pt x="247" y="1020" on="0"/>
        <pt x="206" y="1345" on="0"/>
        <pt x="206" y="1405" on="1"/>
        <pt x="206" y="1486" on="0"/>
        <pt x="281" y="1580" on="0"/>
        <pt x="365" y="1597" on="1"/>
        <pt x="394" y="1482" on="0"/>
        <pt x="428" y="1384" on="1"/>
        <pt x="451" y="1311" on="1"/>
        <pt x="387" y="1255" on="1"/>
        <pt x="396" y="1125" on="0"/>
        <pt x="426" y="870" on="1"/>
        <pt x="445" y="697" on="0"/>
        <pt x="455" y="572" on="0"/>
        <pt x="459" y="481" on="1"/>
        <pt x="629" y="668" on="0"/>
        <pt x="930" y="868" on="0"/>
        <pt x="1042" y="868" on="1"/>
        <pt x="1116" y="868" on="0"/>
        <pt x="1324" y="746" on="0"/>
        <pt x="1468" y="580" on="0"/>
        <pt x="1468" y="518" on="1"/>
        <pt x="1468" y="340" on="0"/>
        <pt x="1298" y="217" on="1"/>
        <pt x="1400" y="164" on="0"/>
        <pt x="1536" y="164" on="1"/>
        <pt x="1556" y="164" on="0"/>
        <pt x="1556" y="143" on="1"/>
        <pt x="1556" y="0" on="1"/>
        <pt x="1556" y="-20" on="0"/>
      </contour>
      <contour>
        <pt x="983" y="668" on="1"/>
        <pt x="872" y="668" on="0"/>
        <pt x="530" y="400" on="0"/>
        <pt x="340" y="168" on="1"/>
        <pt x="564" y="175" on="0"/>
        <pt x="692" y="193" on="1"/>
        <pt x="845" y="211" on="0"/>
        <pt x="979" y="243" on="0"/>
        <pt x="1101" y="287" on="0"/>
        <pt x="1248" y="355" on="0"/>
        <pt x="1358" y="412" on="1"/>
        <pt x="1286" y="535" on="0"/>
        <pt x="1090" y="668" on="0"/>
      </contour>
    </TTGlyph>
    <TTGlyph name="uni0638" xMin="102" yMin="-20" xMax="1731" yMax="1597">
      <component glyphName="uni0637" x="0" y="0" flags="0x204"/>
      <component glyphName="onedot.above" x="569" y="147" flags="0x4"/>
    </TTGlyph>
    <TTGlyph name="uni0638.fina" xMin="102" yMin="-20" xMax="1909" yMax="1597">
      <component glyphName="uni0637.fina" x="0" y="0" flags="0x4"/>
      <component glyphName="onedot.above" x="569" y="147" flags="0x4"/>
    </TTGlyph>
    <TTGlyph name="uni0638.init" xMin="-20" yMin="-20" xMax="1468" yMax="1597">
      <component glyphName="uni0637.init" x="0" y="0" flags="0x204"/>
      <component glyphName="onedot.above" x="285" y="147" flags="0x4"/>
    </TTGlyph>
    <TTGlyph name="uni0638.medi" xMin="-20" yMin="-20" xMax="1556" yMax="1597">
      <component glyphName="uni0637.medi" x="0" y="0" flags="0x4"/>
      <component glyphName="onedot.above" x="283" y="147" flags="0x4"/>
    </TTGlyph>
    <TTGlyph name="uni0639" xMin="164" yMin="-696" xMax="1520" yMax="1262">
      <contour>
        <pt x="897" y="-696" on="1"/>
        <pt x="602" y="-696" on="0"/>
        <pt x="270" y="-369" on="0"/>
        <pt x="270" y="-80" on="1"/>
        <pt x="270" y="214" on="0"/>
        <pt x="492" y="446" on="1"/>
        <pt x="354" y="477" on="0"/>
        <pt x="164" y="677" on="0"/>
        <pt x="164" y="795" on="1"/>
        <pt x="164" y="901" on="0"/>
        <pt x="280" y="1129" on="0"/>
        <pt x="455" y="1262" on="0"/>
        <pt x="549" y="1262" on="1"/>
        <pt x="631" y="1262" on="0"/>
        <pt x="779" y="1183" on="0"/>
        <pt x="887" y="1090" on="1"/>
        <pt x="844" y="1014" on="1"/>
        <pt x="748" y="1050" on="0"/>
        <pt x="663" y="1069" on="0"/>
        <pt x="610" y="1069" on="1"/>
        <pt x="463" y="1069" on="0"/>
        <pt x="301" y="981" on="1"/>
        <pt x="301" y="833" on="0"/>
        <pt x="520" y="638" on="0"/>
        <pt x="711" y="623" on="1"/>
        <pt x="892" y="734" on="0"/>
        <pt x="1108" y="799" on="1"/>
        <pt x="1135" y="765" on="0"/>
        <pt x="1135" y="723" on="1"/>
        <pt x="1135" y="685" on="0"/>
        <pt x="1097" y="628" on="0"/>
        <pt x="1034" y="584" on="0"/>
        <pt x="950" y="549" on="1"/>
        <pt x="761" y="474" on="0"/>
        <pt x="488" y="274" on="0"/>
        <pt x="356" y="44" on="0"/>
        <pt x="356" y="-80" on="1"/>
        <pt x="356" y="-205" on="0"/>
        <pt x="486" y="-391" on="0"/>
        <pt x="750" y="-498" on="0"/>
        <pt x="903" y="-498" on="1"/>
        <pt x="1190" y="-498" on="0"/>
        <pt x="1493" y="-430" on="1"/>
        <pt x="1520" y="-512" on="1"/>
        <pt x="1336" y="-613" on="0"/>
        <pt x="1036" y="-696" on="0"/>
      </contour>
    </TTGlyph>
    <TTGlyph name="uni0639.fina" xMin="164" yMin="-895" xMax="1354" yMax="881">
      <contour>
        <pt x="1106" y="-20" on="1"/>
        <pt x="940" y="-20" on="0"/>
        <pt x="699" y="46" on="0"/>
        <pt x="610" y="119" on="1"/>
        <pt x="348" y="-57" on="0"/>
        <pt x="348" y="-297" on="1"/>
        <pt x="348" y="-474" on="0"/>
        <pt x="632" y="-696" on="0"/>
        <pt x="860" y="-696" on="1"/>
        <pt x="986" y="-696" on="0"/>
        <pt x="1170" y="-671" on="0"/>
        <pt x="1327" y="-635" on="1"/>
        <pt x="1354" y="-717" on="1"/>
        <pt x="1192" y="-806" on="0"/>
        <pt x="1054" y="-863" on="0"/>
        <pt x="921" y="-895" on="0"/>
        <pt x="854" y="-895" on="1"/>
        <pt x="688" y="-895" on="0"/>
        <pt x="417" y="-742" on="0"/>
        <pt x="262" y="-467" on="0"/>
        <pt x="262" y="-301" on="1"/>
        <pt x="262" y="-156" on="0"/>
        <pt x="399" y="105" on="0"/>
        <pt x="522" y="203" on="1"/>
        <pt x="484" y="246" on="0"/>
        <pt x="421" y="335" on="0"/>
        <pt x="358" y="423" on="0"/>
        <pt x="289" y="505" on="0"/>
        <pt x="246" y="541" on="1"/>
        <pt x="209" y="516" on="1"/>
        <pt x="164" y="565" on="0"/>
        <pt x="164" y="624" on="1"/>
        <pt x="164" y="709" on="0"/>
        <pt x="336" y="821" on="0"/>
        <pt x="533" y="881" on="0"/>
        <pt x="635" y="881" on="1"/>
        <pt x="790" y="881" on="0"/>
        <pt x="997" y="709" on="0"/>
        <pt x="997" y="580" on="1"/>
        <pt x="997" y="371" on="0"/>
        <pt x="764" y="213" on="1"/>
        <pt x="871" y="164" on="0"/>
        <pt x="1106" y="164" on="1"/>
        <pt x="1130" y="164" on="0"/>
        <pt x="1130" y="141" on="1"/>
        <pt x="1130" y="2" on="1"/>
        <pt x="1130" y="-20" on="0"/>
      </contour>
      <contour>
        <pt x="643" y="682" on="1"/>
        <pt x="563" y="682" on="0"/>
        <pt x="430" y="647" on="0"/>
        <pt x="360" y="610" on="1"/>
        <pt x="411" y="569" on="0"/>
        <pt x="487" y="488" on="0"/>
        <pt x="553" y="408" on="0"/>
        <pt x="615" y="330" on="0"/>
        <pt x="653" y="293" on="1"/>
        <pt x="825" y="419" on="0"/>
        <pt x="825" y="528" on="1"/>
        <pt x="825" y="595" on="0"/>
        <pt x="724" y="682" on="0"/>
      </contour>
    </TTGlyph>
    <TTGlyph name="uni0639.init" xMin="-20" yMin="-20" xMax="1155" yMax="881">
      <contour>
        <pt x="0" y="-20" on="1"/>
        <pt x="-20" y="-20" on="0"/>
        <pt x="-20" y="0" on="1"/>
        <pt x="-20" y="143" on="1"/>
        <pt x="-20" y="164" on="0"/>
        <pt x="0" y="164" on="1"/>
        <pt x="167" y="164" on="0"/>
        <pt x="299" y="170" on="1"/>
        <pt x="234" y="216" on="0"/>
        <pt x="156" y="341" on="0"/>
        <pt x="156" y="414" on="1"/>
        <pt x="156" y="520" on="0"/>
        <pt x="272" y="748" on="0"/>
        <pt x="447" y="881" on="0"/>
        <pt x="541" y="881" on="1"/>
        <pt x="623" y="881" on="0"/>
        <pt x="771" y="802" on="0"/>
        <pt x="879" y="709" on="1"/>
        <pt x="836" y="633" on="1"/>
        <pt x="740" y="669" on="0"/>
        <pt x="655" y="688" on="0"/>
        <pt x="602" y="688" on="1"/>
        <pt x="453" y="688" on="0"/>
        <pt x="293" y="600" on="1"/>
        <pt x="293" y="497" on="0"/>
        <pt x="392" y="328" on="0"/>
        <pt x="579" y="225" on="0"/>
        <pt x="711" y="215" on="1"/>
        <pt x="880" y="248" on="0"/>
        <pt x="1122" y="346" on="1"/>
        <pt x="1155" y="316" on="0"/>
        <pt x="1155" y="260" on="1"/>
        <pt x="1153" y="235" on="1"/>
        <pt x="1138" y="155" on="0"/>
        <pt x="1053" y="133" on="1"/>
        <pt x="756" y="60" on="0"/>
        <pt x="469" y="9" on="0"/>
        <pt x="171" y="-20" on="0"/>
      </contour>
    </TTGlyph>
    <TTGlyph name="uni0639.medi" xMin="-20" yMin="-20" xMax="1038" yMax="881">
      <contour>
        <pt x="1014" y="-20" on="1"/>
        <pt x="858" y="-20" on="0"/>
        <pt x="623" y="40" on="0"/>
        <pt x="528" y="111" on="1"/>
        <pt x="396" y="39" on="0"/>
        <pt x="147" y="-20" on="0"/>
        <pt x="2" y="-20" on="1"/>
        <pt x="-20" y="-20" on="0"/>
        <pt x="-20" y="2" on="1"/>
        <pt x="-20" y="141" on="1"/>
        <pt x="-20" y="164" on="0"/>
        <pt x="2" y="164" on="1"/>
        <pt x="268" y="164" on="0"/>
        <pt x="416" y="221" on="1"/>
        <pt x="381" y="262" on="0"/>
        <pt x="322" y="347" on="0"/>
        <pt x="262" y="429" on="0"/>
        <pt x="195" y="507" on="0"/>
        <pt x="154" y="541" on="1"/>
        <pt x="117" y="516" on="1"/>
        <pt x="72" y="565" on="0"/>
        <pt x="72" y="624" on="1"/>
        <pt x="72" y="707" on="0"/>
        <pt x="236" y="818" on="0"/>
        <pt x="442" y="881" on="0"/>
        <pt x="543" y="881" on="1"/>
        <pt x="698" y="881" on="0"/>
        <pt x="905" y="709" on="0"/>
        <pt x="905" y="580" on="1"/>
        <pt x="905" y="481" on="0"/>
        <pt x="795" y="288" on="0"/>
        <pt x="688" y="207" on="1"/>
        <pt x="791" y="164" on="0"/>
        <pt x="1014" y="164" on="1"/>
        <pt x="1038" y="164" on="0"/>
        <pt x="1038" y="141" on="1"/>
        <pt x="1038" y="2" on="1"/>
        <pt x="1038" y="-20" on="0"/>
      </contour>
      <contour>
        <pt x="551" y="682" on="1"/>
        <pt x="402" y="682" on="0"/>
        <pt x="268" y="610" on="1"/>
        <pt x="346" y="546" on="0"/>
        <pt x="426" y="450" on="1"/>
        <pt x="523" y="331" on="0"/>
        <pt x="557" y="297" on="1"/>
        <pt x="638" y="350" on="0"/>
        <pt x="733" y="471" on="0"/>
        <pt x="733" y="528" on="1"/>
        <pt x="733" y="595" on="0"/>
        <pt x="632" y="682" on="0"/>
      </contour>
    </TTGlyph>
    <TTGlyph name="uni063A" xMin="164" yMin="-696" xMax="1520" yMax="1732">
      <component glyphName="uni0639" x="0" y="0" flags="0x204"/>
      <component glyphName="onedot.above" x="27" y="606" flags="0x4"/>
    </TTGlyph>
    <TTGlyph name="uni063A.fina" xMin="164" yMin="-895" xMax="1354" yMax="1372">
      <component glyphName="uni0639.fina" x="0" y="0" flags="0x204"/>
      <component glyphName="onedot.above" x="80" y="246" flags="0x4"/>
    </TTGlyph>
    <TTGlyph name="uni063A.init" xMin="-20" yMin="-20" xMax="1155" yMax="1325">
      <component glyphName="uni0639.init" x="0" y="0" flags="0x204"/>
      <component glyphName="onedot.above" x="-134" y="199" flags="0x4"/>
    </TTGlyph>
    <TTGlyph name="uni063A.medi" xMin="-20" yMin="-20" xMax="1038" yMax="1372">
      <component glyphName="uni0639.medi" x="0" y="0" flags="0x204"/>
      <component glyphName="onedot.above" x="8" y="246" flags="0x4"/>
    </TTGlyph>
    <TTGlyph name="uni0640" xMin="-20" yMin="-20" xMax="281" yMax="164">
      <contour>
        <pt x="0" y="-20" on="1"/>
        <pt x="-20" y="-20" on="0"/>
        <pt x="-20" y="0" on="1"/>
        <pt x="-20" y="143" on="1"/>
        <pt x="-20" y="164" on="0"/>
        <pt x="0" y="164" on="1"/>
        <pt x="260" y="164" on="1"/>
        <pt x="281" y="164" on="0"/>
        <pt x="281" y="143" on="1"/>
        <pt x="281" y="0" on="1"/>
        <pt x="281" y="-20" on="0"/>
        <pt x="260" y="-20" on="1"/>
      </contour>
    </TTGlyph>
    <TTGlyph name="uni0641" xMin="164" yMin="-20" xMax="1921" yMax="1638">
      <component glyphName="feh_dotless.isol" x="0" y="0" flags="0x204"/>
      <component glyphName="onedot.above" x="965" y="512" flags="0x4"/>
    </TTGlyph>
    <TTGlyph name="uni0641.fina" xMin="164" yMin="-20" xMax="2011" yMax="1429">
      <component glyphName="uni06A1.fina" x="0" y="0" flags="0x204"/>
      <component glyphName="onedot.above" x="1014" y="303" flags="0x4"/>
    </TTGlyph>
    <TTGlyph name="uni0641.init" xMin="-20" yMin="-20" xMax="889" yMax="1597">
      <component glyphName="uni066F.init" x="0" y="0" flags="0x204"/>
      <component glyphName="onedot.above" x="-110" y="471" flags="0x4"/>
    </TTGlyph>
    <TTGlyph name="uni0641.medi" xMin="-20" yMin="-20" xMax="973" yMax="1380">
      <component glyphName="uni066F.medi" x="0" y="0" flags="0x204"/>
      <component glyphName="onedot.above" x="-69" y="254" flags="0x4"/>
    </TTGlyph>
    <TTGlyph name="uni0642" xMin="164" yMin="-696" xMax="1436" yMax="1305">
      <component glyphName="uni066F" x="0" y="0" flags="0x204"/>
      <component glyphName="twodots.above" x="365" y="164" flags="0x4"/>
    </TTGlyph>
    <TTGlyph name="uni0642.fina" xMin="164" yMin="-696" xMax="1587" yMax="1315">
      <component glyphName="uni066F.fina" x="0" y="0" flags="0x204"/>
      <component glyphName="twodots.above" x="426" y="174" flags="0x4"/>
    </TTGlyph>
    <TTGlyph name="uni0642.init" xMin="-20" yMin="-20" xMax="889" yMax="1557">
      <component glyphName="uni066F.init" x="0" y="0" flags="0x204"/>
      <component glyphName="twodots.above" x="-120" y="416" flags="0x4"/>
    </TTGlyph>
    <TTGlyph name="uni0642.medi" xMin="-20" yMin="-20" xMax="973" yMax="1354">
      <component glyphName="uni066F.medi" x="0" y="0" flags="0x204"/>
      <component glyphName="twodots.above" x="-69" y="213" flags="0x4"/>
    </TTGlyph>
    <TTGlyph name="uni0643" xMin="41" yMin="-20" xMax="1200" yMax="1597">
      <contour>
        <pt x="545" y="-20" on="1"/>
        <pt x="377" y="-20" on="0"/>
        <pt x="41" y="10" on="0"/>
        <pt x="41" y="27" on="1"/>
        <pt x="41" y="71" on="0"/>
        <pt x="67" y="193" on="0"/>
        <pt x="80" y="213" on="1"/>
        <pt x="180" y="190" on="0"/>
        <pt x="469" y="164" on="0"/>
        <pt x="590" y="164" on="1"/>
        <pt x="842" y="164" on="0"/>
        <pt x="1110" y="211" on="1"/>
        <pt x="1087" y="326" on="0"/>
        <pt x="1036" y="633" on="0"/>
        <pt x="936" y="1200" on="0"/>
        <pt x="925" y="1405" on="1"/>
        <pt x="925" y="1485" on="0"/>
        <pt x="998" y="1579" on="0"/>
        <pt x="1083" y="1597" on="1"/>
        <pt x="1089" y="1574" on="0"/>
        <pt x="1100" y="1534" on="0"/>
        <pt x="1169" y="1311" on="1"/>
        <pt x="1106" y="1255" on="1"/>
        <pt x="1115" y="1125" on="0"/>
        <pt x="1145" y="870" on="1"/>
        <pt x="1200" y="387" on="0"/>
        <pt x="1200" y="240" on="1"/>
        <pt x="1200" y="174" on="0"/>
        <pt x="1151" y="70" on="0"/>
        <pt x="1114" y="20" on="1"/>
        <pt x="852" y="-20" on="0"/>
      </contour>
      <contour>
        <pt x="651" y="797" on="1"/>
        <pt x="653" y="809" on="1"/>
        <pt x="653" y="822" on="0"/>
        <pt x="631" y="848" on="0"/>
        <pt x="614" y="848" on="1"/>
        <pt x="573" y="848" on="0"/>
        <pt x="493" y="785" on="0"/>
        <pt x="473" y="733" on="1"/>
        <pt x="518" y="673" on="0"/>
        <pt x="621" y="673" on="1"/>
        <pt x="678" y="673" on="0"/>
        <pt x="766" y="692" on="1"/>
        <pt x="760" y="575" on="1"/>
        <pt x="638" y="545" on="0"/>
        <pt x="484" y="483" on="0"/>
        <pt x="385" y="430" on="1"/>
        <pt x="379" y="547" on="1"/>
        <pt x="438" y="581" on="1"/>
        <pt x="498" y="614" on="1"/>
        <pt x="387" y="636" on="0"/>
        <pt x="387" y="735" on="1"/>
        <pt x="387" y="825" on="0"/>
        <pt x="533" y="975" on="0"/>
        <pt x="610" y="975" on="1"/>
        <pt x="674" y="975" on="0"/>
        <pt x="729" y="910" on="0"/>
        <pt x="729" y="862" on="1"/>
        <pt x="729" y="820" on="0"/>
        <pt x="709" y="780" on="1"/>
      </contour>
    </TTGlyph>
    <TTGlyph name="uni0643.fina" xMin="164" yMin="-20" xMax="1815" yMax="1597">
      <contour>
        <pt x="1509" y="1597" on="1"/>
        <pt x="1524" y="1304" on="0"/>
        <pt x="1535" y="578" on="1"/>
        <pt x="1542" y="225" on="1"/>
        <pt x="1653" y="164" on="0"/>
        <pt x="1794" y="164" on="1"/>
        <pt x="1815" y="164" on="0"/>
        <pt x="1815" y="143" on="1"/>
        <pt x="1815" y="0" on="1"/>
        <pt x="1815" y="-20" on="0"/>
        <pt x="1794" y="-20" on="1"/>
        <pt x="1684" y="-20" on="0"/>
        <pt x="1519" y="47" on="0"/>
        <pt x="1483" y="104" on="1"/>
        <pt x="1302" y="40" on="0"/>
        <pt x="942" y="-20" on="0"/>
        <pt x="741" y="-20" on="1"/>
        <pt x="521" y="-20" on="0"/>
        <pt x="280" y="57" on="0"/>
        <pt x="164" y="214" on="0"/>
        <pt x="164" y="332" on="1"/>
        <pt x="164" y="420" on="0"/>
        <pt x="197" y="514" on="1"/>
        <pt x="281" y="514" on="1"/>
        <pt x="274" y="479" on="0"/>
        <pt x="274" y="424" on="1"/>
        <pt x="274" y="322" on="0"/>
        <pt x="373" y="212" on="0"/>
        <pt x="589" y="164" on="0"/>
        <pt x="793" y="164" on="1"/>
        <pt x="1132" y="164" on="0"/>
        <pt x="1446" y="240" on="1"/>
        <pt x="1411" y="533" on="0"/>
        <pt x="1370" y="1154" on="1"/>
        <pt x="1348" y="1462" on="1"/>
        <pt x="1421" y="1538" on="0"/>
      </contour>
      <contour>
        <pt x="940" y="797" on="1"/>
        <pt x="942" y="809" on="1"/>
        <pt x="942" y="822" on="0"/>
        <pt x="920" y="848" on="0"/>
        <pt x="903" y="848" on="1"/>
        <pt x="862" y="848" on="0"/>
        <pt x="780" y="784" on="0"/>
        <pt x="762" y="733" on="1"/>
        <pt x="807" y="673" on="0"/>
        <pt x="910" y="673" on="1"/>
        <pt x="967" y="673" on="0"/>
        <pt x="1055" y="692" on="1"/>
        <pt x="1049" y="575" on="1"/>
        <pt x="927" y="545" on="0"/>
        <pt x="773" y="483" on="0"/>
        <pt x="674" y="430" on="1"/>
        <pt x="668" y="547" on="1"/>
        <pt x="727" y="581" on="1"/>
        <pt x="786" y="614" on="1"/>
        <pt x="676" y="636" on="0"/>
        <pt x="676" y="735" on="1"/>
        <pt x="676" y="825" on="0"/>
        <pt x="822" y="975" on="0"/>
        <pt x="899" y="975" on="1"/>
        <pt x="963" y="975" on="0"/>
        <pt x="1018" y="910" on="0"/>
        <pt x="1018" y="862" on="1"/>
        <pt x="1018" y="822" on="0"/>
        <pt x="997" y="780" on="1"/>
      </contour>
    </TTGlyph>
    <TTGlyph name="uni0643.init" xMin="-20" yMin="-20" xMax="957" yMax="1556">
      <contour>
        <pt x="0" y="-20" on="1"/>
        <pt x="-20" y="-20" on="0"/>
        <pt x="-20" y="0" on="1"/>
        <pt x="-20" y="143" on="1"/>
        <pt x="-20" y="164" on="0"/>
        <pt x="0" y="164" on="1"/>
        <pt x="220" y="164" on="0"/>
        <pt x="566" y="229" on="0"/>
        <pt x="711" y="305" on="1"/>
        <pt x="621" y="579" on="0"/>
        <pt x="205" y="778" on="1"/>
        <pt x="183" y="770" on="0"/>
        <pt x="147" y="770" on="1"/>
        <pt x="85" y="770" on="0"/>
        <pt x="0" y="858" on="0"/>
        <pt x="0" y="926" on="1"/>
        <pt x="0" y="971" on="0"/>
        <pt x="49" y="1149" on="0"/>
        <pt x="63" y="1157" on="1"/>
        <pt x="345" y="1304" on="0"/>
        <pt x="680" y="1459" on="0"/>
        <pt x="920" y="1556" on="1"/>
        <pt x="939" y="1540" on="0"/>
        <pt x="957" y="1488" on="0"/>
        <pt x="957" y="1465" on="1"/>
        <pt x="955" y="1444" on="1"/>
        <pt x="943" y="1359" on="0"/>
        <pt x="854" y="1323" on="1"/>
        <pt x="429" y="1149" on="0"/>
        <pt x="88" y="993" on="1"/>
        <pt x="272" y="948" on="0"/>
        <pt x="609" y="739" on="0"/>
        <pt x="807" y="485" on="0"/>
        <pt x="807" y="375" on="1"/>
        <pt x="807" y="181" on="0"/>
        <pt x="405" y="-20" on="0"/>
      </contour>
    </TTGlyph>
    <TTGlyph name="uni0643.medi" xMin="-20" yMin="-20" xMax="1147" yMax="1556">
      <contour>
        <pt x="379" y="252" on="1"/>
        <pt x="345" y="416" on="0"/>
        <pt x="246" y="547" on="1"/>
        <pt x="139" y="674" on="0"/>
        <pt x="2" y="914" on="0"/>
        <pt x="2" y="979" on="1"/>
        <pt x="2" y="1042" on="0"/>
        <pt x="48" y="1123" on="0"/>
        <pt x="106" y="1155" on="1"/>
        <pt x="248" y="1234" on="0"/>
        <pt x="543" y="1370" on="0"/>
        <pt x="999" y="1556" on="1"/>
        <pt x="1018" y="1540" on="0"/>
        <pt x="1037" y="1488" on="0"/>
        <pt x="1037" y="1465" on="1"/>
        <pt x="1035" y="1444" on="1"/>
        <pt x="1023" y="1359" on="0"/>
        <pt x="934" y="1323" on="1"/>
        <pt x="702" y="1229" on="1"/>
        <pt x="298" y="1065" on="0"/>
        <pt x="88" y="971" on="1"/>
        <pt x="278" y="739" on="0"/>
        <pt x="536" y="472" on="0"/>
        <pt x="804" y="249" on="0"/>
        <pt x="1017" y="164" on="0"/>
        <pt x="1126" y="164" on="1"/>
        <pt x="1147" y="164" on="0"/>
        <pt x="1147" y="143" on="1"/>
        <pt x="1147" y="0" on="1"/>
        <pt x="1147" y="-20" on="0"/>
        <pt x="1126" y="-20" on="1"/>
        <pt x="990" y="-20" on="0"/>
        <pt x="774" y="56" on="0"/>
        <pt x="552" y="233" on="0"/>
        <pt x="471" y="309" on="1"/>
        <pt x="471" y="208" on="0"/>
        <pt x="414" y="113" on="1"/>
        <pt x="304" y="48" on="0"/>
        <pt x="109" y="-20" on="0"/>
        <pt x="0" y="-20" on="1"/>
        <pt x="-20" y="-20" on="0"/>
        <pt x="-20" y="0" on="1"/>
        <pt x="-20" y="143" on="1"/>
        <pt x="-20" y="164" on="0"/>
        <pt x="0" y="164" on="1"/>
        <pt x="87" y="164" on="0"/>
        <pt x="294" y="211" on="0"/>
      </contour>
    </TTGlyph>
    <TTGlyph name="uni0644" xMin="164" yMin="-696" xMax="1290" yMax="1597">
      <contour>
        <pt x="1200" y="-197" on="1"/>
        <pt x="1155" y="108" on="0"/>
        <pt x="1087" y="512" on="1"/>
        <pt x="1045" y="756" on="0"/>
        <pt x="966" y="1327" on="0"/>
        <pt x="966" y="1405" on="1"/>
        <pt x="966" y="1485" on="0"/>
        <pt x="1039" y="1579" on="0"/>
        <pt x="1124" y="1597" on="1"/>
        <pt x="1130" y="1574" on="0"/>
        <pt x="1141" y="1534" on="0"/>
        <pt x="1210" y="1311" on="1"/>
        <pt x="1153" y="1262" on="1"/>
        <pt x="1184" y="995" on="1"/>
        <pt x="1237" y="510" on="1"/>
        <pt x="1290" y="86" on="0"/>
        <pt x="1290" y="-106" on="1"/>
        <pt x="1290" y="-251" on="0"/>
        <pt x="1105" y="-521" on="0"/>
        <pt x="777" y="-696" on="0"/>
        <pt x="600" y="-696" on="1"/>
        <pt x="394" y="-696" on="0"/>
        <pt x="164" y="-459" on="0"/>
        <pt x="164" y="-244" on="1"/>
        <pt x="164" y="-169" on="0"/>
        <pt x="181" y="-56" on="0"/>
        <pt x="211" y="68" on="1"/>
        <pt x="299" y="47" on="1"/>
        <pt x="272" y="-56" on="0"/>
        <pt x="272" y="-125" on="1"/>
        <pt x="272" y="-303" on="0"/>
        <pt x="449" y="-498" on="0"/>
        <pt x="606" y="-498" on="1"/>
        <pt x="721" y="-498" on="0"/>
        <pt x="966" y="-420" on="0"/>
        <pt x="1160" y="-280" on="0"/>
      </contour>
    </TTGlyph>
    <TTGlyph name="uni0644.fina" xMin="164" yMin="-696" xMax="1466" yMax="1597">
      <contour>
        <pt x="1446" y="-20" on="1"/>
        <pt x="1360" y="-20" on="0"/>
        <pt x="1286" y="16" on="1"/>
        <pt x="1290" y="-106" on="1"/>
        <pt x="1290" y="-251" on="0"/>
        <pt x="1105" y="-521" on="0"/>
        <pt x="777" y="-696" on="0"/>
        <pt x="600" y="-696" on="1"/>
        <pt x="394" y="-696" on="0"/>
        <pt x="164" y="-459" on="0"/>
        <pt x="164" y="-244" on="1"/>
        <pt x="164" y="-169" on="0"/>
        <pt x="181" y="-56" on="0"/>
        <pt x="211" y="68" on="1"/>
        <pt x="299" y="47" on="1"/>
        <pt x="272" y="-56" on="0"/>
        <pt x="272" y="-125" on="1"/>
        <pt x="272" y="-303" on="0"/>
        <pt x="449" y="-498" on="0"/>
        <pt x="606" y="-498" on="1"/>
        <pt x="721" y="-498" on="0"/>
        <pt x="966" y="-420" on="0"/>
        <pt x="1160" y="-280" on="0"/>
        <pt x="1200" y="-197" on="1"/>
        <pt x="1155" y="108" on="0"/>
        <pt x="1087" y="512" on="1"/>
        <pt x="1045" y="756" on="0"/>
        <pt x="966" y="1327" on="0"/>
        <pt x="966" y="1405" on="1"/>
        <pt x="966" y="1485" on="0"/>
        <pt x="1039" y="1579" on="0"/>
        <pt x="1124" y="1597" on="1"/>
        <pt x="1130" y="1574" on="0"/>
        <pt x="1141" y="1534" on="0"/>
        <pt x="1210" y="1311" on="1"/>
        <pt x="1153" y="1262" on="1"/>
        <pt x="1165" y="1171" on="0"/>
        <pt x="1270" y="205" on="1"/>
        <pt x="1345" y="164" on="0"/>
        <pt x="1446" y="164" on="1"/>
        <pt x="1466" y="164" on="0"/>
        <pt x="1466" y="143" on="1"/>
        <pt x="1466" y="0" on="1"/>
        <pt x="1466" y="-20" on="0"/>
      </contour>
    </TTGlyph>
    <TTGlyph name="uni0644.init" xMin="-23" yMin="-20" xMax="369" yMax="1597">
      <contour>
        <pt x="-2" y="-20" on="1"/>
        <pt x="-23" y="-20" on="0"/>
        <pt x="-23" y="0" on="1"/>
        <pt x="-23" y="143" on="1"/>
        <pt x="-23" y="164" on="0"/>
        <pt x="-2" y="164" on="1"/>
        <pt x="147" y="164" on="0"/>
        <pt x="264" y="227" on="1"/>
        <pt x="214" y="879" on="0"/>
        <pt x="143" y="1462" on="1"/>
        <pt x="214" y="1537" on="0"/>
        <pt x="305" y="1597" on="1"/>
        <pt x="324" y="1240" on="1"/>
        <pt x="350" y="808" on="0"/>
        <pt x="367" y="458" on="0"/>
        <pt x="369" y="305" on="1"/>
        <pt x="369" y="221" on="0"/>
        <pt x="285" y="63" on="1"/>
        <pt x="239" y="-20" on="0"/>
      </contour>
    </TTGlyph>
    <TTGlyph name="uni0644.medi" xMin="-20" yMin="-20" xMax="631" yMax="1597">
      <contour>
        <pt x="0" y="-20" on="1"/>
        <pt x="-20" y="-20" on="0"/>
        <pt x="-20" y="0" on="1"/>
        <pt x="-20" y="143" on="1"/>
        <pt x="-20" y="164" on="0"/>
        <pt x="0" y="164" on="1"/>
        <pt x="135" y="164" on="0"/>
        <pt x="262" y="225" on="1"/>
        <pt x="224" y="553" on="0"/>
        <pt x="186" y="1150" on="1"/>
        <pt x="164" y="1462" on="1"/>
        <pt x="235" y="1537" on="0"/>
        <pt x="326" y="1597" on="1"/>
        <pt x="340" y="1283" on="0"/>
        <pt x="351" y="578" on="1"/>
        <pt x="358" y="225" on="1"/>
        <pt x="469" y="164" on="0"/>
        <pt x="610" y="164" on="1"/>
        <pt x="631" y="164" on="0"/>
        <pt x="631" y="143" on="1"/>
        <pt x="631" y="0" on="1"/>
        <pt x="631" y="-20" on="0"/>
        <pt x="610" y="-20" on="1"/>
        <pt x="424" y="-20" on="0"/>
        <pt x="334" y="66" on="1"/>
        <pt x="244" y="16" on="0"/>
        <pt x="106" y="-20" on="0"/>
      </contour>
    </TTGlyph>
    <TTGlyph name="uni06440622.fina" xMin="83" yMin="-20" xMax="1511" yMax="1597">
      <component glyphName="uni06440627.fina" x="0" y="0" flags="0x204"/>
      <component glyphName="uni0653" x="406" y="61" flags="0x4"/>
    </TTGlyph>
    <TTGlyph name="uni06440622.isol" xMin="82" yMin="-20" xMax="1226" yMax="1638">
      <component glyphName="uni06440627.isol" x="102" y="0" flags="0x4"/>
      <component glyphName="uni0653" x="307" y="111" flags="0x4"/>
    </TTGlyph>
    <TTGlyph name="uni06440623.fina" xMin="83" yMin="-20" xMax="1511" yMax="1923">
      <component glyphName="uni06440627.fina" x="0" y="0" flags="0x204"/>
      <component glyphName="uni0654" x="120" y="248" flags="0x4"/>
    </TTGlyph>
    <TTGlyph name="uni06440623.isol" xMin="83" yMin="-20" xMax="1124" yMax="1905">
      <component glyphName="uni06440627.isol" x="0" y="0" flags="0x204"/>
      <component glyphName="uni0654" x="120" y="230" flags="0x4"/>
    </TTGlyph>
    <TTGlyph name="uni06440625.fina" xMin="83" yMin="-604" xMax="1511" yMax="1597">
      <component glyphName="uni06440627.fina" x="0" y="0" flags="0x204"/>
      <component glyphName="uni0654" x="743" y="-1734" flags="0x4"/>
    </TTGlyph>
    <TTGlyph name="uni06440625.isol" xMin="84" yMin="-645" xMax="1124" yMax="1638">
      <component glyphName="uni06440627.isol" x="0" y="0" flags="0x204"/>
      <component glyphName="uni0654" x="686" y="-1775" flags="0x4"/>
    </TTGlyph>
    <TTGlyph name="uni06440627.fina" xMin="83" yMin="-20" xMax="1511" yMax="1597">
      <contour>
        <pt x="1085" y="950" on="1"/>
        <pt x="1042" y="586" on="0"/>
        <pt x="999" y="430" on="1"/>
        <pt x="886" y="42" on="0"/>
        <pt x="625" y="10" on="1"/>
        <pt x="461" y="-8" on="0"/>
        <pt x="248" y="-18" on="0"/>
        <pt x="135" y="-20" on="1"/>
        <pt x="127" y="63" on="1"/>
        <pt x="386" y="126" on="0"/>
        <pt x="637" y="221" on="0"/>
        <pt x="715" y="283" on="1"/>
        <pt x="534" y="681" on="0"/>
        <pt x="276" y="926" on="1"/>
        <pt x="188" y="926" on="1"/>
        <pt x="144" y="972" on="0"/>
        <pt x="94" y="1050" on="0"/>
        <pt x="83" y="1109" on="0"/>
        <pt x="83" y="1132" on="1"/>
        <pt x="83" y="1227" on="0"/>
        <pt x="174" y="1266" on="1"/>
        <pt x="318" y="1174" on="0"/>
        <pt x="603" y="787" on="0"/>
        <pt x="684" y="588" on="1"/>
        <pt x="725" y="482" on="0"/>
        <pt x="774" y="336" on="1"/>
        <pt x="790" y="351" on="0"/>
        <pt x="829" y="401" on="1"/>
        <pt x="924" y="532" on="0"/>
        <pt x="1031" y="1046" on="0"/>
        <pt x="1044" y="1462" on="1"/>
        <pt x="1115" y="1537" on="0"/>
        <pt x="1206" y="1597" on="1"/>
        <pt x="1221" y="1304" on="0"/>
        <pt x="1232" y="578" on="1"/>
        <pt x="1239" y="225" on="1"/>
        <pt x="1350" y="164" on="0"/>
        <pt x="1491" y="164" on="1"/>
        <pt x="1511" y="164" on="0"/>
        <pt x="1511" y="143" on="1"/>
        <pt x="1511" y="0" on="1"/>
        <pt x="1511" y="-20" on="0"/>
        <pt x="1491" y="-20" on="1"/>
        <pt x="1349" y="-20" on="0"/>
        <pt x="1161" y="93" on="0"/>
        <pt x="1149" y="190" on="1"/>
        <pt x="1125" y="378" on="0"/>
        <pt x="1098" y="734" on="0"/>
      </contour>
    </TTGlyph>
    <TTGlyph name="uni06440627.isol" xMin="84" yMin="-20" xMax="1124" yMax="1638">
      <contour>
        <pt x="330" y="-20" on="1"/>
        <pt x="324" y="-20" on="0"/>
        <pt x="324" y="5" on="1"/>
        <pt x="324" y="52" on="0"/>
        <pt x="351" y="164" on="0"/>
        <pt x="360" y="164" on="1"/>
        <pt x="410" y="164" on="1"/>
        <pt x="560" y="282" on="0"/>
        <pt x="669" y="380" on="0"/>
        <pt x="759" y="477" on="0"/>
        <pt x="797" y="528" on="1"/>
        <pt x="562" y="793" on="0"/>
        <pt x="289" y="954" on="1"/>
        <pt x="201" y="948" on="1"/>
        <pt x="135" y="1008" on="0"/>
        <pt x="84" y="1107" on="0"/>
        <pt x="84" y="1158" on="1"/>
        <pt x="84" y="1193" on="0"/>
        <pt x="115" y="1262" on="0"/>
        <pt x="166" y="1288" on="1"/>
        <pt x="326" y="1177" on="0"/>
        <pt x="744" y="798" on="0"/>
        <pt x="866" y="645" on="1"/>
        <pt x="913" y="747" on="0"/>
        <pt x="913" y="852" on="1"/>
        <pt x="913" y="952" on="0"/>
        <pt x="851" y="1353" on="1"/>
        <pt x="833" y="1462" on="0"/>
        <pt x="833" y="1487" on="1"/>
        <pt x="833" y="1608" on="0"/>
        <pt x="995" y="1638" on="1"/>
        <pt x="1001" y="1615" on="0"/>
        <pt x="1012" y="1575" on="0"/>
        <pt x="1081" y="1352" on="1"/>
        <pt x="1016" y="1296" on="1"/>
        <pt x="1034" y="972" on="0"/>
        <pt x="1034" y="901" on="1"/>
        <pt x="1034" y="716" on="0"/>
        <pt x="940" y="541" on="1"/>
        <pt x="1124" y="234" on="0"/>
        <pt x="1124" y="184" on="1"/>
        <pt x="1124" y="145" on="0"/>
        <pt x="1067" y="25" on="0"/>
        <pt x="1049" y="20" on="1"/>
        <pt x="813" y="-20" on="0"/>
      </contour>
      <contour>
        <pt x="1028" y="211" on="1"/>
        <pt x="971" y="316" on="0"/>
        <pt x="877" y="436" on="1"/>
        <pt x="769" y="290" on="0"/>
        <pt x="600" y="168" on="1"/>
        <pt x="860" y="181" on="0"/>
      </contour>
    </TTGlyph>
    <TTGlyph name="uni06440671.fina" xMin="83" yMin="-20" xMax="1511" yMax="1597">
      <component glyphName="uni06440627.fina" x="0" y="0" flags="0x204"/>
      <component glyphName="wasla" x="524" y="25" flags="0x4"/>
    </TTGlyph>
    <TTGlyph name="uni06440671.isol" xMin="84" yMin="-20" xMax="1124" yMax="1671">
      <component glyphName="uni06440627.isol" x="0" y="0" flags="0x204"/>
      <component glyphName="wasla" x="397" y="106" flags="0x4"/>
    </TTGlyph>
    <TTGlyph name="uni06440672.fina" xMin="83" yMin="-20" xMax="1511" yMax="1853">
      <component glyphName="uni06440627.fina" x="0" y="0" flags="0x204"/>
      <component glyphName="wavyhamza_above" x="563" y="190" flags="0x4"/>
    </TTGlyph>
    <TTGlyph name="uni06440672.isol" xMin="84" yMin="-20" xMax="1124" yMax="1907">
      <component glyphName="uni06440627.isol" x="0" y="0" flags="0x204"/>
      <component glyphName="wavyhamza_above" x="397" y="244" flags="0x4"/>
    </TTGlyph>
    <TTGlyph name="uni06440673.fina" xMin="83" yMin="-607" xMax="1511" yMax="1597">
      <component glyphName="uni06440627.fina" x="0" y="0" flags="0x204"/>
      <component glyphName="wavyhamza_above" x="811" y="-1750" flags="0x4"/>
    </TTGlyph>
    <TTGlyph name="uni06440673.isol" xMin="84" yMin="-660" xMax="1124" yMax="1638">
      <component glyphName="uni06440627.isol" x="0" y="0" flags="0x204"/>
      <component glyphName="wavyhamza_above" x="674" y="-1803" flags="0x4"/>
    </TTGlyph>
    <TTGlyph name="uni06440675.fina" xMin="83" yMin="-20" xMax="1511" yMax="1804">
      <component glyphName="uni06440627.fina" x="0" y="0" flags="0x204"/>
      <component glyphName="uni0654" x="502" y="129" flags="0x4"/>
    </TTGlyph>
    <TTGlyph name="uni06440675.isol" xMin="84" yMin="-20" xMax="1124" yMax="1804">
      <component glyphName="uni06440627.isol" x="0" y="0" flags="0x204"/>
      <component glyphName="uni0654" x="387" y="129" flags="0x4"/>
    </TTGlyph>
    <TTGlyph name="uni0645" xMin="164" yMin="-831" xMax="1085" yMax="821">
      <contour>
        <pt x="371" y="-696" on="1"/>
        <pt x="290" y="-777" on="0"/>
        <pt x="209" y="-831" on="1"/>
        <pt x="209" y="-635" on="0"/>
        <pt x="187" y="-345" on="1"/>
        <pt x="164" y="-56" on="0"/>
        <pt x="164" y="-8" on="1"/>
        <pt x="164" y="38" on="0"/>
        <pt x="211" y="153" on="0"/>
        <pt x="240" y="215" on="1"/>
        <pt x="515" y="297" on="0"/>
        <pt x="832" y="297" on="1"/>
        <pt x="862" y="297" on="1"/>
        <pt x="832" y="336" on="0"/>
        <pt x="762" y="447" on="0"/>
        <pt x="683" y="549" on="0"/>
        <pt x="597" y="621" on="0"/>
        <pt x="551" y="621" on="1"/>
        <pt x="494" y="621" on="0"/>
        <pt x="389" y="537" on="0"/>
        <pt x="328" y="442" on="1"/>
        <pt x="250" y="481" on="1"/>
        <pt x="315" y="644" on="0"/>
        <pt x="494" y="821" on="0"/>
        <pt x="596" y="821" on="1"/>
        <pt x="649" y="821" on="0"/>
        <pt x="751" y="748" on="0"/>
        <pt x="816" y="663" on="1"/>
        <pt x="919" y="527" on="0"/>
        <pt x="1025" y="410" on="0"/>
        <pt x="1085" y="365" on="1"/>
        <pt x="993" y="119" on="1"/>
        <pt x="526" y="119" on="0"/>
        <pt x="256" y="27" on="1"/>
        <pt x="266" y="-53" on="0"/>
        <pt x="312" y="-300" on="1"/>
        <pt x="356" y="-538" on="0"/>
      </contour>
    </TTGlyph>
    <TTGlyph name="uni0645.fina" xMin="164" yMin="-831" xMax="1319" yMax="799">
      <contour>
        <pt x="422" y="262" on="1"/>
        <pt x="422" y="340" on="0"/>
        <pt x="467" y="428" on="1"/>
        <pt x="411" y="393" on="0"/>
        <pt x="310" y="317" on="0"/>
        <pt x="266" y="285" on="1"/>
        <pt x="282" y="95" on="0"/>
        <pt x="325" y="-175" on="1"/>
        <pt x="375" y="-490" on="0"/>
        <pt x="399" y="-696" on="1"/>
        <pt x="326" y="-772" on="0"/>
        <pt x="238" y="-831" on="1"/>
        <pt x="228" y="-579" on="0"/>
        <pt x="193" y="-235" on="1"/>
        <pt x="164" y="49" on="0"/>
        <pt x="164" y="203" on="1"/>
        <pt x="164" y="270" on="0"/>
        <pt x="248" y="444" on="1"/>
        <pt x="254" y="459" on="0"/>
        <pt x="464" y="614" on="0"/>
        <pt x="662" y="733" on="0"/>
        <pt x="821" y="799" on="0"/>
        <pt x="872" y="799" on="1"/>
        <pt x="903" y="799" on="0"/>
        <pt x="959" y="738" on="0"/>
        <pt x="1014" y="627" on="0"/>
        <pt x="1069" y="482" on="1"/>
        <pt x="1139" y="294" on="0"/>
        <pt x="1240" y="164" on="0"/>
        <pt x="1292" y="164" on="1"/>
        <pt x="1319" y="164" on="0"/>
        <pt x="1319" y="139" on="1"/>
        <pt x="1319" y="6" on="1"/>
        <pt x="1319" y="-20" on="0"/>
        <pt x="1292" y="-20" on="1"/>
        <pt x="1168" y="-20" on="0"/>
        <pt x="1073" y="86" on="1"/>
        <pt x="1042" y="-20" on="1"/>
        <pt x="880" y="-20" on="0"/>
        <pt x="580" y="57" on="0"/>
        <pt x="422" y="185" on="0"/>
      </contour>
      <contour>
        <pt x="549" y="311" on="1"/>
        <pt x="636" y="239" on="0"/>
        <pt x="886" y="158" on="0"/>
        <pt x="1026" y="147" on="1"/>
        <pt x="969" y="233" on="0"/>
        <pt x="889" y="483" on="0"/>
        <pt x="877" y="614" on="1"/>
        <pt x="782" y="570" on="0"/>
        <pt x="584" y="388" on="0"/>
      </contour>
    </TTGlyph>
    <TTGlyph name="uni0645.init" xMin="-20" yMin="-20" xMax="985" yMax="799">
      <contour>
        <pt x="862" y="-20" on="1"/>
        <pt x="720" y="-20" on="0"/>
        <pt x="391" y="59" on="0"/>
        <pt x="281" y="123" on="1"/>
        <pt x="222" y="44" on="0"/>
        <pt x="88" y="-20" on="0"/>
        <pt x="0" y="-20" on="1"/>
        <pt x="-20" y="-20" on="0"/>
        <pt x="-20" y="0" on="1"/>
        <pt x="-20" y="143" on="1"/>
        <pt x="-20" y="164" on="0"/>
        <pt x="0" y="164" on="1"/>
        <pt x="91" y="164" on="0"/>
        <pt x="214" y="249" on="0"/>
        <pt x="264" y="342" on="1"/>
        <pt x="311" y="438" on="1"/>
        <pt x="400" y="630" on="0"/>
        <pt x="577" y="799" on="0"/>
        <pt x="688" y="799" on="1"/>
        <pt x="756" y="799" on="0"/>
        <pt x="894" y="637" on="0"/>
        <pt x="985" y="366" on="0"/>
        <pt x="985" y="231" on="1"/>
        <pt x="985" y="78" on="0"/>
      </contour>
      <contour>
        <pt x="651" y="586" on="1"/>
        <pt x="583" y="586" on="0"/>
        <pt x="463" y="461" on="0"/>
        <pt x="377" y="285" on="1"/>
        <pt x="550" y="189" on="0"/>
        <pt x="809" y="164" on="1"/>
        <pt x="805" y="260" on="0"/>
        <pt x="757" y="455" on="0"/>
        <pt x="684" y="586" on="0"/>
      </contour>
    </TTGlyph>
    <TTGlyph name="uni0645.medi" xMin="-20" yMin="-20" xMax="1036" yMax="799">
      <contour>
        <pt x="0" y="-20" on="1"/>
        <pt x="-20" y="-20" on="0"/>
        <pt x="-20" y="0" on="1"/>
        <pt x="-20" y="143" on="1"/>
        <pt x="-20" y="164" on="0"/>
        <pt x="0" y="164" on="1"/>
        <pt x="82" y="164" on="0"/>
        <pt x="158" y="188" on="1"/>
        <pt x="139" y="222" on="0"/>
        <pt x="139" y="262" on="1"/>
        <pt x="139" y="364" on="0"/>
        <pt x="285" y="629" on="0"/>
        <pt x="494" y="799" on="0"/>
        <pt x="590" y="799" on="1"/>
        <pt x="663" y="799" on="0"/>
        <pt x="741" y="598" on="1"/>
        <pt x="786" y="482" on="1"/>
        <pt x="840" y="342" on="0"/>
        <pt x="903" y="228" on="0"/>
        <pt x="971" y="164" on="0"/>
        <pt x="1010" y="164" on="1"/>
        <pt x="1036" y="164" on="0"/>
        <pt x="1036" y="139" on="1"/>
        <pt x="1036" y="6" on="1"/>
        <pt x="1036" y="-20" on="0"/>
        <pt x="1010" y="-20" on="1"/>
        <pt x="886" y="-20" on="0"/>
        <pt x="791" y="86" on="1"/>
        <pt x="760" y="-20" on="1"/>
        <pt x="644" y="-20" on="0"/>
        <pt x="417" y="20" on="0"/>
        <pt x="340" y="51" on="1"/>
        <pt x="223" y="9" on="0"/>
        <pt x="75" y="-20" on="0"/>
      </contour>
      <contour>
        <pt x="266" y="311" on="1"/>
        <pt x="353" y="239" on="0"/>
        <pt x="603" y="158" on="0"/>
        <pt x="743" y="147" on="1"/>
        <pt x="686" y="233" on="0"/>
        <pt x="606" y="483" on="0"/>
        <pt x="594" y="614" on="1"/>
        <pt x="499" y="570" on="0"/>
        <pt x="301" y="388" on="0"/>
      </contour>
    </TTGlyph>
    <TTGlyph name="uni0646" xMin="164" yMin="-696" xMax="1290" yMax="670">
      <component glyphName="uni06BA" x="0" y="0" flags="0x204"/>
      <component glyphName="onedot.above" x="168" y="-456" flags="0x4"/>
    </TTGlyph>
    <TTGlyph name="uni0646.fina" xMin="164" yMin="-696" xMax="1452" yMax="670">
      <component glyphName="uni06BA.fina" x="0" y="0" flags="0x4"/>
      <component glyphName="onedot.above" x="168" y="-456" flags="0x4"/>
    </TTGlyph>
    <TTGlyph name="uni0646.init" xMin="-20" yMin="-20" xMax="541" yMax="1353">
      <component glyphName="uni066E.init" x="0" y="0" flags="0x204"/>
      <component glyphName="onedot.above" x="-204" y="227" flags="0x4"/>
    </TTGlyph>
    <TTGlyph name="uni0646.medi" xMin="-20" yMin="-20" xMax="745" yMax="1039">
      <component glyphName="uni066E.medi" x="0" y="0" flags="0x204"/>
      <component glyphName="onedot.above" x="-159" y="-87" flags="0x4"/>
    </TTGlyph>
    <TTGlyph name="uni0647" xMin="164" yMin="-20" xMax="860" yMax="963">
      <contour>
        <pt x="164" y="283" on="1"/>
        <pt x="164" y="516" on="0"/>
        <pt x="399" y="741" on="1"/>
        <pt x="389" y="750" on="1"/>
        <pt x="341" y="782" on="0"/>
        <pt x="341" y="849" on="1"/>
        <pt x="341" y="887" on="0"/>
        <pt x="378" y="952" on="0"/>
        <pt x="406" y="963" on="1"/>
        <pt x="516" y="927" on="0"/>
        <pt x="727" y="738" on="0"/>
        <pt x="860" y="499" on="0"/>
        <pt x="860" y="403" on="1"/>
        <pt x="860" y="332" on="0"/>
        <pt x="749" y="82" on="0"/>
        <pt x="696" y="47" on="1"/>
        <pt x="597" y="-20" on="0"/>
        <pt x="459" y="-20" on="1"/>
        <pt x="320" y="-20" on="0"/>
        <pt x="164" y="144" on="0"/>
      </contour>
      <contour>
        <pt x="741" y="279" on="1"/>
        <pt x="692" y="513" on="0"/>
        <pt x="469" y="690" on="1"/>
        <pt x="381" y="607" on="0"/>
        <pt x="274" y="426" on="0"/>
        <pt x="274" y="354" on="1"/>
        <pt x="274" y="267" on="0"/>
        <pt x="384" y="172" on="0"/>
        <pt x="485" y="172" on="1"/>
        <pt x="543" y="172" on="0"/>
        <pt x="690" y="233" on="0"/>
      </contour>
    </TTGlyph>
    <TTGlyph name="uni0647.fina" xMin="164" yMin="-20" xMax="1130" yMax="1098">
      <contour>
        <pt x="672" y="121" on="1"/>
        <pt x="548" y="131" on="0"/>
        <pt x="410" y="163" on="0"/>
        <pt x="248" y="241" on="0"/>
        <pt x="164" y="314" on="0"/>
        <pt x="164" y="344" on="1"/>
        <pt x="164" y="375" on="0"/>
        <pt x="227" y="526" on="0"/>
        <pt x="250" y="567" on="1"/>
        <pt x="285" y="632" on="0"/>
        <pt x="520" y="802" on="0"/>
        <pt x="664" y="862" on="1"/>
        <pt x="651" y="963" on="1"/>
        <pt x="699" y="1009" on="0"/>
        <pt x="786" y="1067" on="0"/>
        <pt x="834" y="1098" on="1"/>
        <pt x="843" y="687" on="0"/>
        <pt x="855" y="379" on="1"/>
        <pt x="860" y="225" on="1"/>
        <pt x="969" y="164" on="0"/>
        <pt x="1110" y="164" on="1"/>
        <pt x="1130" y="164" on="0"/>
        <pt x="1130" y="143" on="1"/>
        <pt x="1130" y="0" on="1"/>
        <pt x="1130" y="-20" on="0"/>
        <pt x="1110" y="-20" on="1"/>
        <pt x="964" y="-20" on="0"/>
        <pt x="784" y="89" on="0"/>
        <pt x="768" y="190" on="1"/>
        <pt x="754" y="276" on="1"/>
      </contour>
      <contour>
        <pt x="748" y="317" on="1"/>
        <pt x="686" y="707" on="1"/>
        <pt x="400" y="605" on="0"/>
        <pt x="281" y="455" on="1"/>
        <pt x="343" y="407" on="0"/>
        <pt x="453" y="352" on="0"/>
        <pt x="631" y="320" on="0"/>
      </contour>
    </TTGlyph>
    <TTGlyph name="uni0647.init" xMin="-20" yMin="-63" xMax="1100" yMax="1024">
      <contour>
        <pt x="0" y="-20" on="1"/>
        <pt x="-20" y="-20" on="0"/>
        <pt x="-20" y="0" on="1"/>
        <pt x="-20" y="147" on="1"/>
        <pt x="-20" y="164" on="0"/>
        <pt x="0" y="164" on="1"/>
        <pt x="157" y="164" on="0"/>
        <pt x="276" y="195" on="1"/>
        <pt x="127" y="323" on="0"/>
        <pt x="127" y="479" on="1"/>
        <pt x="127" y="549" on="0"/>
        <pt x="183" y="710" on="0"/>
        <pt x="281" y="836" on="0"/>
        <pt x="340" y="866" on="1"/>
        <pt x="395" y="1024" on="1"/>
        <pt x="600" y="965" on="0"/>
        <pt x="924" y="729" on="0"/>
        <pt x="1100" y="421" on="0"/>
        <pt x="1100" y="260" on="1"/>
        <pt x="1100" y="147" on="0"/>
        <pt x="977" y="-63" on="1"/>
        <pt x="666" y="-26" on="0"/>
        <pt x="442" y="86" on="1"/>
        <pt x="345" y="29" on="0"/>
        <pt x="131" y="-20" on="0"/>
      </contour>
      <contour>
        <pt x="213" y="481" on="1"/>
        <pt x="320" y="365" on="0"/>
        <pt x="457" y="281" on="1"/>
        <pt x="578" y="375" on="0"/>
        <pt x="578" y="537" on="1"/>
        <pt x="578" y="604" on="0"/>
        <pt x="490" y="725" on="0"/>
        <pt x="436" y="725" on="1"/>
        <pt x="398" y="725" on="0"/>
        <pt x="306" y="662" on="0"/>
        <pt x="233" y="553" on="0"/>
      </contour>
      <contour>
        <pt x="719" y="530" on="1"/>
        <pt x="719" y="347" on="0"/>
        <pt x="596" y="211" on="1"/>
        <pt x="760" y="139" on="0"/>
        <pt x="971" y="113" on="1"/>
        <pt x="971" y="268" on="0"/>
        <pt x="804" y="603" on="0"/>
        <pt x="668" y="719" on="1"/>
        <pt x="719" y="630" on="0"/>
      </contour>
    </TTGlyph>
    <TTGlyph name="uni0647.medi" xMin="0" yMin="-512" xMax="979" yMax="999">
      <contour>
        <pt x="782" y="-35" on="1"/>
        <pt x="848" y="-69" on="0"/>
        <pt x="920" y="-161" on="0"/>
        <pt x="920" y="-207" on="1"/>
        <pt x="920" y="-243" on="0"/>
        <pt x="854" y="-417" on="0"/>
        <pt x="838" y="-436" on="1"/>
        <pt x="813" y="-467" on="0"/>
        <pt x="693" y="-512" on="0"/>
        <pt x="635" y="-512" on="1"/>
        <pt x="448" y="-512" on="0"/>
        <pt x="210" y="-289" on="0"/>
        <pt x="180" y="-84" on="1"/>
        <pt x="88" y="-123" on="1"/>
        <pt x="63" y="-18" on="1"/>
        <pt x="38" y="-20" on="1"/>
        <pt x="20" y="-20" on="1"/>
        <pt x="0" y="-20" on="0"/>
        <pt x="0" y="0" on="1"/>
        <pt x="0" y="143" on="1"/>
        <pt x="0" y="164" on="0"/>
        <pt x="20" y="164" on="1"/>
        <pt x="94" y="164" on="0"/>
        <pt x="178" y="170" on="1"/>
        <pt x="223" y="614" on="0"/>
        <pt x="629" y="999" on="1"/>
        <pt x="715" y="975" on="1"/>
        <pt x="723" y="865" on="0"/>
        <pt x="758" y="691" on="1"/>
        <pt x="788" y="535" on="0"/>
        <pt x="788" y="461" on="1"/>
        <pt x="788" y="271" on="0"/>
        <pt x="592" y="145" on="1"/>
        <pt x="744" y="164" on="0"/>
        <pt x="952" y="164" on="1"/>
        <pt x="979" y="164" on="0"/>
        <pt x="979" y="139" on="1"/>
        <pt x="979" y="6" on="1"/>
        <pt x="979" y="-20" on="0"/>
        <pt x="952" y="-20" on="1"/>
        <pt x="851" y="-20" on="0"/>
      </contour>
      <contour>
        <pt x="575" y="758" on="1"/>
        <pt x="477" y="619" on="0"/>
        <pt x="384" y="439" on="0"/>
        <pt x="328" y="252" on="0"/>
        <pt x="324" y="160" on="1"/>
        <pt x="503" y="183" on="0"/>
        <pt x="649" y="303" on="1"/>
        <pt x="628" y="425" on="1"/>
        <pt x="584" y="652" on="0"/>
      </contour>
      <contour>
        <pt x="432" y="-20" on="1"/>
        <pt x="398" y="-20" on="0"/>
        <pt x="338" y="-35" on="1"/>
        <pt x="370" y="-181" on="0"/>
        <pt x="535" y="-342" on="0"/>
        <pt x="655" y="-342" on="1"/>
        <pt x="699" y="-342" on="0"/>
        <pt x="791" y="-307" on="0"/>
        <pt x="815" y="-279" on="1"/>
        <pt x="796" y="-213" on="0"/>
        <pt x="677" y="-91" on="0"/>
        <pt x="515" y="-20" on="0"/>
      </contour>
    </TTGlyph>
    <TTGlyph name="uni0648" xMin="82" yMin="-512" xMax="1006" yMax="799">
      <contour>
        <pt x="465" y="-512" on="1"/>
        <pt x="385" y="-512" on="0"/>
        <pt x="151" y="-415" on="0"/>
        <pt x="82" y="-358" on="1"/>
        <pt x="117" y="-279" on="1"/>
        <pt x="249" y="-324" on="0"/>
        <pt x="410" y="-324" on="1"/>
        <pt x="589" y="-324" on="0"/>
        <pt x="847" y="-111" on="0"/>
        <pt x="915" y="98" on="1"/>
        <pt x="913" y="108" on="1"/>
        <pt x="913" y="117" on="1"/>
        <pt x="771" y="-20" on="0"/>
        <pt x="590" y="-20" on="1"/>
        <pt x="452" y="-20" on="0"/>
        <pt x="289" y="149" on="0"/>
        <pt x="289" y="291" on="1"/>
        <pt x="289" y="414" on="0"/>
        <pt x="386" y="651" on="0"/>
        <pt x="547" y="799" on="0"/>
        <pt x="629" y="799" on="1"/>
        <pt x="728" y="799" on="0"/>
        <pt x="902" y="618" on="0"/>
        <pt x="1006" y="317" on="0"/>
        <pt x="1006" y="174" on="1"/>
        <pt x="1006" y="2" on="0"/>
        <pt x="853" y="-327" on="0"/>
        <pt x="608" y="-512" on="0"/>
      </contour>
      <contour>
        <pt x="647" y="176" on="1"/>
        <pt x="716" y="176" on="0"/>
        <pt x="822" y="200" on="0"/>
        <pt x="891" y="231" on="1"/>
        <pt x="849" y="391" on="0"/>
        <pt x="680" y="594" on="0"/>
        <pt x="592" y="594" on="1"/>
        <pt x="543" y="594" on="0"/>
        <pt x="446" y="522" on="0"/>
        <pt x="381" y="405" on="0"/>
        <pt x="381" y="358" on="1"/>
        <pt x="381" y="270" on="0"/>
        <pt x="520" y="176" on="0"/>
      </contour>
    </TTGlyph>
    <TTGlyph name="uni0648.fina" xMin="82" yMin="-512" xMax="1169" yMax="819">
      <contour>
        <pt x="465" y="-512" on="1"/>
        <pt x="385" y="-512" on="0"/>
        <pt x="151" y="-415" on="0"/>
        <pt x="82" y="-358" on="1"/>
        <pt x="117" y="-279" on="1"/>
        <pt x="249" y="-324" on="0"/>
        <pt x="410" y="-324" on="1"/>
        <pt x="721" y="-324" on="0"/>
        <pt x="868" y="-16" on="1"/>
        <pt x="610" y="-5" on="0"/>
        <pt x="392" y="61" on="0"/>
        <pt x="289" y="201" on="0"/>
        <pt x="289" y="311" on="1"/>
        <pt x="289" y="434" on="0"/>
        <pt x="386" y="671" on="0"/>
        <pt x="547" y="819" on="0"/>
        <pt x="629" y="819" on="1"/>
        <pt x="727" y="819" on="0"/>
        <pt x="898" y="645" on="0"/>
        <pt x="1006" y="333" on="0"/>
        <pt x="1006" y="174" on="1"/>
        <pt x="1006" y="164" on="1"/>
        <pt x="1149" y="164" on="1"/>
        <pt x="1169" y="164" on="0"/>
        <pt x="1169" y="143" on="1"/>
        <pt x="1169" y="0" on="1"/>
        <pt x="1169" y="-20" on="0"/>
        <pt x="1149" y="-20" on="1"/>
        <pt x="1067" y="-20" on="1"/>
        <pt x="981" y="-18" on="1"/>
        <pt x="944" y="-160" on="0"/>
        <pt x="789" y="-388" on="0"/>
        <pt x="581" y="-512" on="0"/>
      </contour>
      <contour>
        <pt x="907" y="166" on="1"/>
        <pt x="887" y="289" on="0"/>
        <pt x="789" y="498" on="0"/>
        <pt x="659" y="614" on="0"/>
        <pt x="592" y="614" on="1"/>
        <pt x="543" y="614" on="0"/>
        <pt x="445" y="541" on="0"/>
        <pt x="381" y="427" on="0"/>
        <pt x="381" y="379" on="1"/>
        <pt x="381" y="303" on="0"/>
        <pt x="499" y="211" on="0"/>
        <pt x="643" y="184" on="1"/>
        <pt x="708" y="171" on="0"/>
      </contour>
    </TTGlyph>
    <TTGlyph name="uni0649" xMin="164" yMin="-696" xMax="1407" yMax="799">
      <contour>
        <pt x="1319" y="-135" on="1"/>
        <pt x="1258" y="-124" on="0"/>
        <pt x="1192" y="-119" on="1"/>
        <pt x="1005" y="-105" on="0"/>
        <pt x="828" y="-43" on="0"/>
        <pt x="737" y="93" on="0"/>
        <pt x="737" y="199" on="1"/>
        <pt x="737" y="315" on="0"/>
        <pt x="899" y="598" on="0"/>
        <pt x="1128" y="799" on="0"/>
        <pt x="1221" y="799" on="1"/>
        <pt x="1292" y="799" on="0"/>
        <pt x="1381" y="704" on="0"/>
        <pt x="1407" y="590" on="1"/>
        <pt x="1321" y="565" on="1"/>
        <pt x="1304" y="588" on="0"/>
        <pt x="1272" y="602" on="0"/>
        <pt x="1243" y="602" on="1"/>
        <pt x="1180" y="602" on="0"/>
        <pt x="990" y="469" on="0"/>
        <pt x="843" y="280" on="0"/>
        <pt x="823" y="190" on="1"/>
        <pt x="859" y="156" on="0"/>
        <pt x="986" y="114" on="0"/>
        <pt x="1088" y="100" on="1"/>
        <pt x="1217" y="81" on="0"/>
        <pt x="1345" y="32" on="0"/>
        <pt x="1405" y="-55" on="0"/>
        <pt x="1405" y="-133" on="1"/>
        <pt x="1405" y="-242" on="0"/>
        <pt x="1144" y="-514" on="0"/>
        <pt x="764" y="-696" on="0"/>
        <pt x="600" y="-696" on="1"/>
        <pt x="394" y="-696" on="0"/>
        <pt x="164" y="-459" on="0"/>
        <pt x="164" y="-244" on="1"/>
        <pt x="164" y="-169" on="0"/>
        <pt x="181" y="-56" on="0"/>
        <pt x="211" y="68" on="1"/>
        <pt x="299" y="47" on="1"/>
        <pt x="272" y="-56" on="0"/>
        <pt x="272" y="-125" on="1"/>
        <pt x="272" y="-303" on="0"/>
        <pt x="449" y="-498" on="0"/>
        <pt x="606" y="-498" on="1"/>
        <pt x="720" y="-498" on="0"/>
        <pt x="1019" y="-397" on="0"/>
        <pt x="1276" y="-224" on="0"/>
      </contour>
    </TTGlyph>
    <TTGlyph name="uni0649.fina" xMin="164" yMin="-696" xMax="1696" yMax="203">
      <contour>
        <pt x="1669" y="-20" on="1"/>
        <pt x="1590" y="-20" on="0"/>
        <pt x="1369" y="4" on="0"/>
        <pt x="1296" y="23" on="1"/>
        <pt x="1513" y="-94" on="1"/>
        <pt x="1549" y="-116" on="0"/>
        <pt x="1569" y="-189" on="0"/>
        <pt x="1569" y="-236" on="1"/>
        <pt x="1569" y="-343" on="0"/>
        <pt x="1297" y="-561" on="0"/>
        <pt x="881" y="-696" on="0"/>
        <pt x="682" y="-696" on="1"/>
        <pt x="434" y="-696" on="0"/>
        <pt x="164" y="-459" on="0"/>
        <pt x="164" y="-244" on="1"/>
        <pt x="164" y="-169" on="0"/>
        <pt x="181" y="-56" on="0"/>
        <pt x="211" y="68" on="1"/>
        <pt x="299" y="47" on="1"/>
        <pt x="272" y="-56" on="0"/>
        <pt x="272" y="-125" on="1"/>
        <pt x="272" y="-299" on="0"/>
        <pt x="492" y="-498" on="0"/>
        <pt x="688" y="-498" on="1"/>
        <pt x="971" y="-498" on="0"/>
        <pt x="1403" y="-359" on="0"/>
        <pt x="1483" y="-238" on="1"/>
        <pt x="1435" y="-211" on="1"/>
        <pt x="1055" y="-6" on="0"/>
        <pt x="1055" y="41" on="1"/>
        <pt x="1055" y="70" on="0"/>
        <pt x="1086" y="145" on="0"/>
        <pt x="1130" y="203" on="0"/>
        <pt x="1137" y="203" on="1"/>
        <pt x="1141" y="203" on="1"/>
        <pt x="1354" y="164" on="0"/>
        <pt x="1669" y="164" on="1"/>
        <pt x="1696" y="164" on="0"/>
        <pt x="1696" y="137" on="1"/>
        <pt x="1696" y="4" on="1"/>
        <pt x="1696" y="-20" on="0"/>
      </contour>
    </TTGlyph>
    <TTGlyph name="uni0649.init" xMin="-20" yMin="-20" xMax="541" yMax="881">
      <component glyphName="uni066E.init" x="0" y="0" flags="0x204"/>
    </TTGlyph>
    <TTGlyph name="uni0649.medi" xMin="-20" yMin="-20" xMax="745" yMax="528">
      <component glyphName="uni066E.medi" x="0" y="0" flags="0x204"/>
    </TTGlyph>
    <TTGlyph name="uni064A" xMin="164" yMin="-1158" xMax="1407" yMax="799">
      <component glyphName="uni0649" x="0" y="0" flags="0x204"/>
      <component glyphName="twodots.above" x="369" y="-1955" flags="0x4"/>
    </TTGlyph>
    <TTGlyph name="uni064A.fina" xMin="164" yMin="-1158" xMax="1696" yMax="203">
      <component glyphName="uni0649.fina" x="0" y="0" flags="0x204"/>
      <component glyphName="twodots.above" x="475" y="-1955" flags="0x4"/>
    </TTGlyph>
    <TTGlyph name="uni064A.init" xMin="-20" yMin="-492" xMax="705" yMax="881">
      <component glyphName="beh_dotless_alt.init" x="0" y="0" flags="0x204"/>
      <component glyphName="twodots.above" x="-175" y="-1289" flags="0x4"/>
    </TTGlyph>
    <TTGlyph name="uni064A.medi" xMin="-20" yMin="-492" xMax="909" yMax="528">
      <component glyphName="beh_dotless_alt.medi" x="0" y="0" flags="0x204"/>
      <component glyphName="twodots.above" x="-46" y="-1289" flags="0x4"/>
    </TTGlyph>
    <TTGlyph name="uni064B" xMin="-88" yMin="987" xMax="495" yMax="1511">
      <contour>
        <pt x="492" y="1303" on="1"/>
        <pt x="495" y="1271" on="1"/>
        <pt x="495" y="1196" on="0"/>
        <pt x="426" y="1163" on="1"/>
        <pt x="253" y="1082" on="0"/>
        <pt x="-57" y="987" on="1"/>
        <pt x="-43" y="1116" on="1"/>
        <pt x="213" y="1192" on="0"/>
      </contour>
      <contour>
        <pt x="457" y="1511" on="1"/>
        <pt x="460" y="1479" on="1"/>
        <pt x="460" y="1449" on="0"/>
        <pt x="431" y="1383" on="0"/>
        <pt x="391" y="1366" on="1"/>
        <pt x="205" y="1287" on="0"/>
        <pt x="-88" y="1204" on="1"/>
        <pt x="-78" y="1325" on="1"/>
        <pt x="200" y="1409" on="0"/>
      </contour>
    </TTGlyph>
    <TTGlyph name="uni064C" xMin="-184" yMin="952" xMax="471" yMax="1468">
      <contour>
        <pt x="35" y="952" on="1"/>
        <pt x="29" y="952" on="0"/>
        <pt x="-41" y="1004" on="0"/>
        <pt x="-41" y="1010" on="1"/>
        <pt x="-39" y="1020" on="1"/>
        <pt x="-29" y="1065" on="0"/>
        <pt x="-29" y="1090" on="1"/>
        <pt x="-29" y="1113" on="0"/>
        <pt x="-46" y="1135" on="0"/>
        <pt x="-57" y="1135" on="1"/>
        <pt x="-71" y="1135" on="0"/>
        <pt x="-112" y="1116" on="0"/>
        <pt x="-158" y="1094" on="1"/>
        <pt x="-184" y="1124" on="1"/>
        <pt x="-136" y="1187" on="0"/>
        <pt x="-54" y="1243" on="0"/>
        <pt x="-27" y="1243" on="1"/>
        <pt x="14" y="1243" on="0"/>
        <pt x="51" y="1181" on="0"/>
        <pt x="51" y="1135" on="1"/>
        <pt x="51" y="1096" on="0"/>
        <pt x="39" y="1055" on="1"/>
        <pt x="153" y="1082" on="0"/>
        <pt x="223" y="1137" on="1"/>
        <pt x="173" y="1159" on="0"/>
        <pt x="109" y="1234" on="0"/>
        <pt x="109" y="1282" on="1"/>
        <pt x="109" y="1327" on="0"/>
        <pt x="162" y="1414" on="0"/>
        <pt x="246" y="1468" on="0"/>
        <pt x="285" y="1468" on="1"/>
        <pt x="331" y="1468" on="0"/>
        <pt x="389" y="1365" on="0"/>
        <pt x="389" y="1274" on="1"/>
        <pt x="389" y="1227" on="0"/>
        <pt x="377" y="1196" on="1"/>
        <pt x="423" y="1190" on="0"/>
        <pt x="471" y="1190" on="1"/>
        <pt x="466" y="1143" on="0"/>
        <pt x="408" y="1108" on="0"/>
        <pt x="348" y="1108" on="1"/>
        <pt x="307" y="1112" on="1"/>
        <pt x="240" y="1045" on="0"/>
        <pt x="76" y="952" on="0"/>
      </contour>
      <contour>
        <pt x="182" y="1325" on="1"/>
        <pt x="182" y="1251" on="0"/>
        <pt x="299" y="1214" on="1"/>
        <pt x="313" y="1239" on="0"/>
        <pt x="313" y="1268" on="1"/>
        <pt x="313" y="1314" on="0"/>
        <pt x="277" y="1372" on="0"/>
        <pt x="248" y="1372" on="1"/>
        <pt x="225" y="1372" on="0"/>
        <pt x="182" y="1340" on="0"/>
      </contour>
    </TTGlyph>
    <TTGlyph name="uni064D" xMin="-88" yMin="-676" xMax="495" yMax="-152">
      <contour>
        <pt x="492" y="-360" on="1"/>
        <pt x="495" y="-392" on="1"/>
        <pt x="495" y="-467" on="0"/>
        <pt x="426" y="-500" on="1"/>
        <pt x="253" y="-581" on="0"/>
        <pt x="-57" y="-676" on="1"/>
        <pt x="-43" y="-547" on="1"/>
        <pt x="213" y="-471" on="0"/>
      </contour>
      <contour>
        <pt x="457" y="-152" on="1"/>
        <pt x="460" y="-184" on="1"/>
        <pt x="460" y="-214" on="0"/>
        <pt x="431" y="-280" on="0"/>
        <pt x="391" y="-297" on="1"/>
        <pt x="205" y="-376" on="0"/>
        <pt x="-88" y="-459" on="1"/>
        <pt x="-78" y="-338" on="1"/>
        <pt x="200" y="-254" on="0"/>
      </contour>
    </TTGlyph>
    <TTGlyph name="uni064E" xMin="-57" yMin="1006" xMax="495" yMax="1321">
      <contour>
        <pt x="492" y="1321" on="1"/>
        <pt x="495" y="1289" on="1"/>
        <pt x="495" y="1213" on="0"/>
        <pt x="426" y="1182" on="1"/>
        <pt x="253" y="1101" on="0"/>
        <pt x="-57" y="1006" on="1"/>
        <pt x="-43" y="1135" on="1"/>
        <pt x="271" y="1233" on="0"/>
      </contour>
    </TTGlyph>
    <TTGlyph name="uni064F" xMin="-104" yMin="946" xMax="430" yMax="1468">
      <contour>
        <pt x="-104" y="1024" on="1"/>
        <pt x="-40" y="1034" on="0"/>
        <pt x="113" y="1093" on="0"/>
        <pt x="180" y="1137" on="1"/>
        <pt x="134" y="1158" on="0"/>
        <pt x="68" y="1231" on="0"/>
        <pt x="68" y="1282" on="1"/>
        <pt x="68" y="1327" on="0"/>
        <pt x="121" y="1414" on="0"/>
        <pt x="205" y="1468" on="0"/>
        <pt x="244" y="1468" on="1"/>
        <pt x="290" y="1468" on="0"/>
        <pt x="348" y="1365" on="0"/>
        <pt x="348" y="1274" on="1"/>
        <pt x="348" y="1236" on="0"/>
        <pt x="334" y="1196" on="1"/>
        <pt x="383" y="1190" on="0"/>
        <pt x="430" y="1190" on="1"/>
        <pt x="425" y="1143" on="0"/>
        <pt x="367" y="1108" on="0"/>
        <pt x="307" y="1108" on="1"/>
        <pt x="289" y="1108" on="1"/>
        <pt x="270" y="1110" on="1"/>
        <pt x="202" y="1040" on="0"/>
        <pt x="43" y="946" on="0"/>
        <pt x="-16" y="946" on="1"/>
        <pt x="-57" y="946" on="0"/>
        <pt x="-104" y="987" on="0"/>
      </contour>
      <contour>
        <pt x="141" y="1325" on="1"/>
        <pt x="141" y="1251" on="0"/>
        <pt x="258" y="1214" on="1"/>
        <pt x="272" y="1239" on="0"/>
        <pt x="272" y="1268" on="1"/>
        <pt x="272" y="1314" on="0"/>
        <pt x="236" y="1372" on="0"/>
        <pt x="207" y="1372" on="1"/>
        <pt x="184" y="1372" on="0"/>
        <pt x="141" y="1340" on="0"/>
      </contour>
    </TTGlyph>
    <TTGlyph name="uni0650" xMin="-57" yMin="-526" xMax="495" yMax="-211">
      <contour>
        <pt x="492" y="-211" on="1"/>
        <pt x="495" y="-243" on="1"/>
        <pt x="495" y="-319" on="0"/>
        <pt x="426" y="-350" on="1"/>
        <pt x="253" y="-431" on="0"/>
        <pt x="-57" y="-526" on="1"/>
        <pt x="-43" y="-397" on="1"/>
        <pt x="271" y="-299" on="0"/>
      </contour>
    </TTGlyph>
    <TTGlyph name="uni0651" xMin="-70" yMin="989" xMax="430" yMax="1401">
      <contour>
        <pt x="381" y="1401" on="1"/>
        <pt x="403" y="1358" on="0"/>
        <pt x="430" y="1256" on="0"/>
        <pt x="430" y="1219" on="1"/>
        <pt x="430" y="1154" on="0"/>
        <pt x="346" y="1049" on="0"/>
        <pt x="283" y="1049" on="1"/>
        <pt x="260" y="1049" on="0"/>
        <pt x="205" y="1071" on="0"/>
        <pt x="188" y="1094" on="1"/>
        <pt x="167" y="1043" on="0"/>
        <pt x="93" y="989" on="0"/>
        <pt x="53" y="989" on="1"/>
        <pt x="-1" y="989" on="0"/>
        <pt x="-70" y="1057" on="0"/>
        <pt x="-70" y="1122" on="1"/>
        <pt x="-70" y="1144" on="0"/>
        <pt x="-54" y="1215" on="0"/>
        <pt x="-37" y="1247" on="1"/>
        <pt x="4" y="1239" on="1"/>
        <pt x="-6" y="1196" on="0"/>
        <pt x="-6" y="1167" on="1"/>
        <pt x="-6" y="1092" on="0"/>
        <pt x="59" y="1092" on="1"/>
        <pt x="90" y="1092" on="0"/>
        <pt x="131" y="1136" on="0"/>
        <pt x="131" y="1174" on="1"/>
        <pt x="127" y="1268" on="1"/>
        <pt x="190" y="1309" on="1"/>
        <pt x="200" y="1237" on="0"/>
        <pt x="225" y="1181" on="0"/>
        <pt x="268" y="1151" on="0"/>
        <pt x="303" y="1151" on="1"/>
        <pt x="320" y="1151" on="0"/>
        <pt x="351" y="1173" on="0"/>
        <pt x="356" y="1184" on="1"/>
        <pt x="348" y="1219" on="0"/>
        <pt x="313" y="1294" on="1"/>
        <pt x="308" y="1306" on="0"/>
        <pt x="308" y="1318" on="1"/>
        <pt x="308" y="1344" on="0"/>
        <pt x="351" y="1393" on="0"/>
      </contour>
    </TTGlyph>
    <TTGlyph name="uni0651064B" xMin="-175" yMin="989" xMax="430" yMax="1888">
      <component glyphName="uni0651" x="0" y="0" flags="0x204"/>
      <component glyphName="uni064B" x="-87" y="377" flags="0x4"/>
    </TTGlyph>
    <TTGlyph name="uni0651064C" xMin="-267" yMin="989" xMax="430" yMax="1876">
      <component glyphName="uni0651" x="0" y="0" flags="0x204"/>
      <component glyphName="uni064C" x="-83" y="408" flags="0x4"/>
    </TTGlyph>
    <TTGlyph name="uni0651064D" xMin="-70" yMin="500" xMax="552" yMax="1401">
      <component glyphName="uni0651" x="0" y="0" flags="0x204"/>
      <component glyphName="uni064D" x="57" y="1176" flags="0x4"/>
    </TTGlyph>
    <TTGlyph name="uni0651064E" xMin="-160" yMin="989" xMax="430" yMax="1630">
      <component glyphName="uni0651" x="0" y="0" flags="0x204"/>
      <component glyphName="uni064E" x="-103" y="309" flags="0x4"/>
    </TTGlyph>
    <TTGlyph name="uni0651064F" xMin="-166" yMin="989" xMax="430" yMax="1884">
      <component glyphName="uni0651" x="0" y="0" flags="0x204"/>
      <component glyphName="uni064F" x="-62" y="416" flags="0x4"/>
    </TTGlyph>
    <TTGlyph name="uni06510650" xMin="-70" yMin="691" xMax="503" yMax="1401">
      <component glyphName="uni0651" x="0" y="0" flags="0x204"/>
      <component glyphName="uni0650" x="8" y="1217" flags="0x4"/>
    </TTGlyph>
    <TTGlyph name="uni0652" xMin="27" yMin="1022" xMax="338" yMax="1391">
      <contour>
        <pt x="176" y="1022" on="1"/>
        <pt x="108" y="1022" on="0"/>
        <pt x="27" y="1123" on="0"/>
        <pt x="27" y="1194" on="1"/>
        <pt x="27" y="1252" on="0"/>
        <pt x="71" y="1341" on="0"/>
        <pt x="144" y="1391" on="0"/>
        <pt x="180" y="1391" on="1"/>
        <pt x="218" y="1391" on="0"/>
        <pt x="293" y="1340" on="0"/>
        <pt x="338" y="1251" on="0"/>
        <pt x="338" y="1192" on="1"/>
        <pt x="338" y="1122" on="0"/>
        <pt x="238" y="1022" on="0"/>
      </contour>
      <contour>
        <pt x="276" y="1192" on="1"/>
        <pt x="276" y="1205" on="0"/>
        <pt x="245" y="1253" on="0"/>
        <pt x="198" y="1284" on="0"/>
        <pt x="164" y="1284" on="1"/>
        <pt x="136" y="1284" on="0"/>
        <pt x="88" y="1241" on="0"/>
        <pt x="88" y="1210" on="1"/>
        <pt x="88" y="1174" on="0"/>
        <pt x="137" y="1130" on="0"/>
        <pt x="182" y="1130" on="1"/>
        <pt x="217" y="1130" on="0"/>
        <pt x="276" y="1173" on="0"/>
      </contour>
    </TTGlyph>
    <TTGlyph name="uni0653" xMin="-225" yMin="1305" xMax="549" yMax="1518">
      <contour>
        <pt x="270" y="1311" on="1"/>
        <pt x="129" y="1311" on="0"/>
        <pt x="-43" y="1376" on="1"/>
        <pt x="-122" y="1342" on="0"/>
        <pt x="-188" y="1305" on="1"/>
        <pt x="-225" y="1368" on="1"/>
        <pt x="-51" y="1513" on="0"/>
        <pt x="-25" y="1513" on="1"/>
        <pt x="-7" y="1513" on="0"/>
        <pt x="105" y="1488" on="1"/>
        <pt x="216" y="1462" on="0"/>
        <pt x="281" y="1462" on="1"/>
        <pt x="334" y="1462" on="0"/>
        <pt x="481" y="1496" on="0"/>
        <pt x="524" y="1518" on="1"/>
        <pt x="549" y="1452" on="1"/>
        <pt x="495" y="1395" on="0"/>
        <pt x="329" y="1311" on="0"/>
      </contour>
    </TTGlyph>
    <TTGlyph name="uni0654" xMin="-37" yMin="1130" xMax="350" yMax="1675">
      <contour>
        <pt x="236" y="1497" on="1"/>
        <pt x="238" y="1509" on="1"/>
        <pt x="238" y="1522" on="0"/>
        <pt x="216" y="1548" on="0"/>
        <pt x="199" y="1548" on="1"/>
        <pt x="153" y="1548" on="0"/>
        <pt x="75" y="1481" on="0"/>
        <pt x="57" y="1434" on="1"/>
        <pt x="105" y="1373" on="0"/>
        <pt x="204" y="1373" on="1"/>
        <pt x="258" y="1373" on="0"/>
        <pt x="350" y="1393" on="1"/>
        <pt x="344" y="1276" on="1"/>
        <pt x="213" y="1241" on="0"/>
        <pt x="66" y="1182" on="0"/>
        <pt x="-31" y="1130" on="1"/>
        <pt x="-37" y="1247" on="1"/>
        <pt x="-9" y="1266" on="0"/>
        <pt x="53" y="1298" on="0"/>
        <pt x="82" y="1315" on="1"/>
        <pt x="-29" y="1335" on="0"/>
        <pt x="-29" y="1436" on="1"/>
        <pt x="-29" y="1491" on="0"/>
        <pt x="35" y="1602" on="0"/>
        <pt x="143" y="1675" on="0"/>
        <pt x="195" y="1675" on="1"/>
        <pt x="253" y="1675" on="0"/>
        <pt x="313" y="1617" on="0"/>
        <pt x="313" y="1563" on="1"/>
        <pt x="313" y="1546" on="0"/>
        <pt x="301" y="1496" on="0"/>
        <pt x="293" y="1481" on="1"/>
      </contour>
    </TTGlyph>
    <TTGlyph name="uni0654064B" xMin="-198" yMin="1130" xMax="385" yMax="2197">
      <component glyphName="uni0654" x="0" y="0" flags="0x204"/>
      <component glyphName="uni064B" x="-110" y="686" flags="0x4"/>
    </TTGlyph>
    <TTGlyph name="uni0654064C" xMin="-287" yMin="1130" xMax="368" yMax="2197">
      <component glyphName="uni0654" x="0" y="0" flags="0x204"/>
      <component glyphName="uni064C" x="-103" y="729" flags="0x4"/>
    </TTGlyph>
    <TTGlyph name="uni0654064E" xMin="-165" yMin="1130" xMax="387" yMax="1995">
      <component glyphName="uni0654" x="0" y="0" flags="0x204"/>
      <component glyphName="uni064E" x="-108" y="674" flags="0x4"/>
    </TTGlyph>
    <TTGlyph name="uni0654064F" xMin="-181" yMin="1130" xMax="353" yMax="2211">
      <component glyphName="uni0654" x="0" y="0" flags="0x204"/>
      <component glyphName="uni064F" x="-77" y="743" flags="0x4"/>
    </TTGlyph>
    <TTGlyph name="uni06540652" xMin="-52" yMin="1130" xMax="350" yMax="2116">
      <component glyphName="uni0654" x="0" y="0" flags="0x204"/>
      <component glyphName="uni0652" x="-79" y="725" flags="0x4"/>
    </TTGlyph>
    <TTGlyph name="uni0655" xMin="45" yMin="-647" xMax="432" yMax="-102">
      <component glyphName="uni0654" x="82" y="-1777" flags="0x4"/>
    </TTGlyph>
    <TTGlyph name="uni0655064D" xMin="6" yMin="-1019" xMax="589" yMax="-20">
      <component glyphName="uni0654" x="82" y="-1695" flags="0x4"/>
      <component glyphName="uni064D" x="94" y="-343" flags="0x4"/>
    </TTGlyph>
    <TTGlyph name="uni06550650" xMin="13" yMin="-808" xMax="565" yMax="-20">
      <component glyphName="uni0654" x="82" y="-1695" flags="0x4"/>
      <component glyphName="uni0650" x="70" y="-282" flags="0x4"/>
    </TTGlyph>
</ttFont>
